0
SECTION
2
HEADER
9
$ACADVER
1
AC1009
9
$INSUNITS
70
4
9
$EXTMIN
10
20.000000
20
20.000000
30
0.0
9
$EXTMAX
10
1113.000001
20
435.000000
30
0.0
0
ENDSEC
0
SECTION
2
TABLES
0
TABLE
2
LAYER
70
3
0
LAYER
2
0
70
0
62
7
6
CONTINUOUS
0
LAYER
2
CUT_OUTER
70
0
62
1
6
CONTINUOUS
0
LAYER
2
CUT_INNER
70
0
62
3
6
CONTINUOUS
0
ENDTAB
0
ENDSEC
0
SECTION
2
ENTITIES
0
LINE
8
CUT_OUTER
10
32.000000
20
50.000000
30
0.0
11
32.000000
21
35.000000
31
0.0
0
ARC
8
CUT_OUTER
10
35.000000
20
35.000000
30
0.0
40
3.000000
50
180.000000
51
270.000000
0
LINE
8
CUT_OUTER
10
35.000000
20
32.000000
30
0.0
11
90.000000
21
32.000000
31
0.0
0
LINE
8
CUT_OUTER
10
90.000000
20
32.000000
30
0.0
11
90.000000
21
23.000000
31
0.0
0
ARC
8
CUT_OUTER
10
93.000000
20
23.000000
30
0.0
40
3.000000
50
180.000000
51
270.000000
0
LINE
8
CUT_OUTER
10
93.000000
20
20.000000
30
0.0
11
143.000000
21
20.000000
31
0.0
0
ARC
8
CUT_OUTER
10
143.000000
20
23.000000
30
0.0
40
3.000000
50
270.000000
51
0.000000
0
LINE
8
CUT_OUTER
10
146.000000
20
23.000000
30
0.0
11
146.000000
21
32.000000
31
0.0
0
LINE
8
CUT_OUTER
10
146.000000
20
32.000000
30
0.0
11
200.000000
21
32.000000
31
0.0
0
LINE
8
CUT_OUTER
10
200.000000
20
32.000000
30
0.0
11
200.000000
21
23.000000
31
0.0
0
ARC
8
CUT_OUTER
10
203.000000
20
23.000000
30
0.0
40
3.000000
50
180.000000
51
270.000000
0
LINE
8
CUT_OUTER
10
203.000000
20
20.000000
30
0.0
11
253.000000
21
20.000000
31
0.0
0
ARC
8
CUT_OUTER
10
253.000000
20
23.000000
30
0.0
40
3.000000
50
270.000000
51
0.000000
0
LINE
8
CUT_OUTER
10
256.000000
20
23.000000
30
0.0
11
256.000000
21
32.000000
31
0.0
0
LINE
8
CUT_OUTER
10
256.000000
20
32.000000
30
0.0
11
311.000000
21
32.000000
31
0.0
0
ARC
8
CUT_OUTER
10
311.000000
20
35.000000
30
0.0
40
3.000000
50
270.000000
51
0.000000
0
LINE
8
CUT_OUTER
10
314.000000
20
35.000000
30
0.0
11
314.000000
21
50.000000
31
0.0
0
LINE
8
CUT_OUTER
10
314.000000
20
50.000000
30
0.0
11
323.000000
21
50.000000
31
0.0
0
ARC
8
CUT_OUTER
10
323.000000
20
53.000000
30
0.0
40
3.000000
50
270.000000
51
0.000000
0
LINE
8
CUT_OUTER
10
326.000000
20
53.000000
30
0.0
11
326.000000
21
113.000000
31
0.0
0
ARC
8
CUT_OUTER
10
323.000000
20
113.000000
30
0.0
40
3.000000
50
0.000000
51
90.000000
0
LINE
8
CUT_OUTER
10
323.000000
20
116.000000
30
0.0
11
314.000000
21
116.000000
31
0.0
0
LINE
8
CUT_OUTER
10
314.000000
20
116.000000
30
0.0
11
314.000000
21
131.000000
31
0.0
0
ARC
8
CUT_OUTER
10
311.000000
20
131.000000
30
0.0
40
3.000000
50
0.000000
51
90.000000
0
LINE
8
CUT_OUTER
10
311.000000
20
134.000000
30
0.0
11
256.000000
21
134.000000
31
0.0
0
LINE
8
CUT_OUTER
10
256.000000
20
134.000000
30
0.0
11
256.000000
21
143.000000
31
0.0
0
ARC
8
CUT_OUTER
10
253.000000
20
143.000000
30
0.0
40
3.000000
50
0.000000
51
90.000000
0
LINE
8
CUT_OUTER
10
253.000000
20
146.000000
30
0.0
11
203.000000
21
146.000000
31
0.0
0
ARC
8
CUT_OUTER
10
203.000000
20
143.000000
30
0.0
40
3.000000
50
90.000000
51
180.000000
0
LINE
8
CUT_OUTER
10
200.000000
20
143.000000
30
0.0
11
200.000000
21
134.000000
31
0.0
0
LINE
8
CUT_OUTER
10
200.000000
20
134.000000
30
0.0
11
146.000000
21
134.000000
31
0.0
0
LINE
8
CUT_OUTER
10
146.000000
20
134.000000
30
0.0
11
146.000000
21
143.000000
31
0.0
0
ARC
8
CUT_OUTER
10
143.000000
20
143.000000
30
0.0
40
3.000000
50
0.000000
51
90.000000
0
LINE
8
CUT_OUTER
10
143.000000
20
146.000000
30
0.0
11
93.000000
21
146.000000
31
0.0
0
ARC
8
CUT_OUTER
10
93.000000
20
143.000000
30
0.0
40
3.000000
50
90.000000
51
180.000000
0
LINE
8
CUT_OUTER
10
90.000000
20
143.000000
30
0.0
11
90.000000
21
134.000000
31
0.0
0
LINE
8
CUT_OUTER
10
90.000000
20
134.000000
30
0.0
11
35.000000
21
134.000000
31
0.0
0
ARC
8
CUT_OUTER
10
35.000000
20
131.000000
30
0.0
40
3.000000
50
90.000000
51
180.000000
0
LINE
8
CUT_OUTER
10
32.000000
20
131.000000
30
0.0
11
32.000000
21
116.000000
31
0.0
0
LINE
8
CUT_OUTER
10
32.000000
20
116.000000
30
0.0
11
23.000000
21
116.000000
31
0.0
0
ARC
8
CUT_OUTER
10
23.000000
20
113.000000
30
0.0
40
3.000000
50
90.000000
51
180.000000
0
LINE
8
CUT_OUTER
10
20.000000
20
113.000000
30
0.0
11
20.000000
21
53.000000
31
0.0
0
ARC
8
CUT_OUTER
10
23.000000
20
53.000000
30
0.0
40
3.000000
50
180.000000
51
270.000000
0
LINE
8
CUT_OUTER
10
23.000000
20
50.000000
30
0.0
11
32.000000
21
50.000000
31
0.0
0
ARC
8
CUT_INNER
10
512.000000
20
32.600000
30
0.0
40
3.000000
50
299.926435
51
0.000000
0
LINE
8
CUT_INNER
10
515.000000
20
32.600000
30
0.0
11
515.000000
21
33.400000
31
0.0
0
ARC
8
CUT_INNER
10
512.000000
20
33.400000
30
0.0
40
3.000000
50
360.000000
51
60.073565
0
LINE
8
CUT_INNER
10
513.496663
20
36.000000
30
0.0
11
560.503337
21
36.000000
31
0.0
0
ARC
8
CUT_INNER
10
562.000000
20
33.400000
30
0.0
40
3.000000
50
119.926435
51
180.000000
0
LINE
8
CUT_INNER
10
559.000000
20
33.400000
30
0.0
11
559.000000
21
32.600000
31
0.0
0
ARC
8
CUT_INNER
10
562.000000
20
32.600000
30
0.0
40
3.000000
50
180.000000
51
240.073565
0
LINE
8
CUT_INNER
10
560.503337
20
30.000000
30
0.0
11
513.496663
21
30.000000
31
0.0
0
ARC
8
CUT_INNER
10
402.000000
20
32.600000
30
0.0
40
3.000000
50
299.926435
51
0.000000
0
LINE
8
CUT_INNER
10
405.000000
20
32.600000
30
0.0
11
405.000000
21
33.400000
31
0.0
0
ARC
8
CUT_INNER
10
402.000000
20
33.400000
30
0.0
40
3.000000
50
360.000000
51
60.073565
0
LINE
8
CUT_INNER
10
403.496663
20
36.000000
30
0.0
11
450.503337
21
36.000000
31
0.0
0
ARC
8
CUT_INNER
10
452.000000
20
33.400000
30
0.0
40
3.000000
50
119.926435
51
180.000000
0
LINE
8
CUT_INNER
10
449.000000
20
33.400000
30
0.0
11
449.000000
21
32.600000
31
0.0
0
ARC
8
CUT_INNER
10
452.000000
20
32.600000
30
0.0
40
3.000000
50
180.000000
51
240.073565
0
LINE
8
CUT_INNER
10
450.503337
20
30.000000
30
0.0
11
403.496663
21
30.000000
31
0.0
0
LINE
8
CUT_OUTER
10
341.000000
20
40.000000
30
0.0
11
341.000000
21
23.000000
31
0.0
0
ARC
8
CUT_OUTER
10
344.000000
20
23.000000
30
0.0
40
3.000000
50
180.000000
51
270.000000
0
LINE
8
CUT_OUTER
10
344.000000
20
20.000000
30
0.0
11
620.000000
21
20.000000
31
0.0
0
ARC
8
CUT_OUTER
10
620.000000
20
23.000000
30
0.0
40
3.000000
50
270.000000
51
0.000000
0
LINE
8
CUT_OUTER
10
623.000000
20
23.000000
30
0.0
11
623.000000
21
40.000000
31
0.0
0
LINE
8
CUT_OUTER
10
623.000000
20
40.000000
30
0.0
11
632.000000
21
40.000000
31
0.0
0
ARC
8
CUT_OUTER
10
632.000000
20
43.000000
30
0.0
40
3.000000
50
270.000000
51
0.000000
0
LINE
8
CUT_OUTER
10
635.000000
20
43.000000
30
0.0
11
635.000000
21
68.000000
31
0.0
0
ARC
8
CUT_OUTER
10
632.000000
20
68.000000
30
0.0
40
3.000000
50
0.000000
51
90.000000
0
LINE
8
CUT_OUTER
10
632.000000
20
71.000000
30
0.0
11
623.000000
21
71.000000
31
0.0
0
LINE
8
CUT_OUTER
10
623.000000
20
71.000000
30
0.0
11
623.000000
21
80.000000
31
0.0
0
LINE
8
CUT_OUTER
10
623.000000
20
80.000000
30
0.0
11
632.000000
21
80.000000
31
0.0
0
ARC
8
CUT_OUTER
10
632.000000
20
83.000000
30
0.0
40
3.000000
50
270.000000
51
0.000000
0
LINE
8
CUT_OUTER
10
635.000000
20
83.000000
30
0.0
11
635.000000
21
108.000000
31
0.0
0
ARC
8
CUT_OUTER
10
632.000000
20
108.000000
30
0.0
40
3.000000
50
0.000000
51
90.000000
0
LINE
8
CUT_OUTER
10
632.000000
20
111.000000
30
0.0
11
623.000000
21
111.000000
31
0.0
0
LINE
8
CUT_OUTER
10
623.000000
20
111.000000
30
0.0
11
623.000000
21
123.000000
31
0.0
0
ARC
8
CUT_OUTER
10
620.000000
20
123.000000
30
0.0
40
3.000000
50
0.000000
51
90.000000
0
LINE
8
CUT_OUTER
10
620.000000
20
126.000000
30
0.0
11
344.000000
21
126.000000
31
0.0
0
ARC
8
CUT_OUTER
10
344.000000
20
123.000000
30
0.0
40
3.000000
50
90.000000
51
180.000000
0
LINE
8
CUT_OUTER
10
341.000000
20
123.000000
30
0.0
11
341.000000
21
111.000000
31
0.0
0
LINE
8
CUT_OUTER
10
341.000000
20
111.000000
30
0.0
11
332.000000
21
111.000000
31
0.0
0
ARC
8
CUT_OUTER
10
332.000000
20
108.000000
30
0.0
40
3.000000
50
90.000000
51
180.000000
0
LINE
8
CUT_OUTER
10
329.000000
20
108.000000
30
0.0
11
329.000000
21
83.000000
31
0.0
0
ARC
8
CUT_OUTER
10
332.000000
20
83.000000
30
0.0
40
3.000000
50
180.000000
51
270.000000
0
LINE
8
CUT_OUTER
10
332.000000
20
80.000000
30
0.0
11
341.000000
21
80.000000
31
0.0
0
LINE
8
CUT_OUTER
10
341.000000
20
80.000000
30
0.0
11
341.000000
21
71.000000
31
0.0
0
LINE
8
CUT_OUTER
10
341.000000
20
71.000000
30
0.0
11
332.000000
21
71.000000
31
0.0
0
ARC
8
CUT_OUTER
10
332.000000
20
68.000000
30
0.0
40
3.000000
50
90.000000
51
180.000000
0
LINE
8
CUT_OUTER
10
329.000000
20
68.000000
30
0.0
11
329.000000
21
43.000000
31
0.0
0
ARC
8
CUT_OUTER
10
332.000000
20
43.000000
30
0.0
40
3.000000
50
180.000000
51
270.000000
0
LINE
8
CUT_OUTER
10
332.000000
20
40.000000
30
0.0
11
341.000000
21
40.000000
31
0.0
0
ARC
8
CUT_INNER
10
821.000001
20
32.600000
30
0.0
40
3.000000
50
299.926435
51
0.000000
0
LINE
8
CUT_INNER
10
824.000000
20
32.600000
30
0.0
11
824.000000
21
33.400000
31
0.0
0
ARC
8
CUT_INNER
10
821.000000
20
33.400000
30
0.0
40
3.000000
50
360.000000
51
60.073565
0
LINE
8
CUT_INNER
10
822.496663
20
36.000000
30
0.0
11
869.503338
21
36.000000
31
0.0
0
ARC
8
CUT_INNER
10
871.000001
20
33.400000
30
0.0
40
3.000000
50
119.926435
51
180.000000
0
LINE
8
CUT_INNER
10
868.000000
20
33.400000
30
0.0
11
868.000000
21
32.600000
31
0.0
0
ARC
8
CUT_INNER
10
871.000000
20
32.600000
30
0.0
40
3.000000
50
180.000000
51
240.073565
0
LINE
8
CUT_INNER
10
869.503338
20
30.000000
30
0.0
11
822.496663
21
30.000000
31
0.0
0
ARC
8
CUT_INNER
10
711.000001
20
32.600000
30
0.0
40
3.000000
50
299.926435
51
0.000000
0
LINE
8
CUT_INNER
10
714.000000
20
32.600000
30
0.0
11
714.000000
21
33.400000
31
0.0
0
ARC
8
CUT_INNER
10
711.000000
20
33.400000
30
0.0
40
3.000000
50
360.000000
51
60.073565
0
LINE
8
CUT_INNER
10
712.496663
20
36.000000
30
0.0
11
759.503338
21
36.000000
31
0.0
0
ARC
8
CUT_INNER
10
761.000001
20
33.400000
30
0.0
40
3.000000
50
119.926435
51
180.000000
0
LINE
8
CUT_INNER
10
758.000000
20
33.400000
30
0.0
11
758.000000
21
32.600000
31
0.0
0
ARC
8
CUT_INNER
10
761.000000
20
32.600000
30
0.0
40
3.000000
50
180.000000
51
240.073565
0
LINE
8
CUT_INNER
10
759.503338
20
30.000000
30
0.0
11
712.496663
21
30.000000
31
0.0
0
LINE
8
CUT_OUTER
10
650.000000
20
40.000000
30
0.0
11
650.000000
21
23.000000
31
0.0
0
ARC
8
CUT_OUTER
10
653.000000
20
23.000000
30
0.0
40
3.000000
50
180.000000
51
270.000000
0
LINE
8
CUT_OUTER
10
653.000000
20
20.000000
30
0.0
11
929.000000
21
20.000000
31
0.0
0
ARC
8
CUT_OUTER
10
929.000000
20
23.000000
30
0.0
40
3.000000
50
270.000000
51
0.000000
0
LINE
8
CUT_OUTER
10
932.000000
20
23.000000
30
0.0
11
932.000000
21
40.000000
31
0.0
0
LINE
8
CUT_OUTER
10
932.000000
20
40.000000
30
0.0
11
941.000000
21
40.000000
31
0.0
0
ARC
8
CUT_OUTER
10
941.000000
20
43.000000
30
0.0
40
3.000000
50
270.000000
51
0.000000
0
LINE
8
CUT_OUTER
10
944.000000
20
43.000000
30
0.0
11
944.000000
21
68.000000
31
0.0
0
ARC
8
CUT_OUTER
10
941.000000
20
68.000000
30
0.0
40
3.000000
50
0.000000
51
90.000000
0
LINE
8
CUT_OUTER
10
941.000000
20
71.000000
30
0.0
11
932.000000
21
71.000000
31
0.0
0
LINE
8
CUT_OUTER
10
932.000000
20
71.000000
30
0.0
11
932.000000
21
80.000000
31
0.0
0
LINE
8
CUT_OUTER
10
932.000000
20
80.000000
30
0.0
11
941.000000
21
80.000000
31
0.0
0
ARC
8
CUT_OUTER
10
941.000000
20
83.000000
30
0.0
40
3.000000
50
270.000000
51
0.000000
0
LINE
8
CUT_OUTER
10
944.000000
20
83.000000
30
0.0
11
944.000000
21
108.000000
31
0.0
0
ARC
8
CUT_OUTER
10
941.000000
20
108.000000
30
0.0
40
3.000000
50
0.000000
51
90.000000
0
LINE
8
CUT_OUTER
10
941.000000
20
111.000000
30
0.0
11
932.000000
21
111.000000
31
0.0
0
LINE
8
CUT_OUTER
10
932.000000
20
111.000000
30
0.0
11
932.000000
21
123.000000
31
0.0
0
ARC
8
CUT_OUTER
10
929.000000
20
123.000000
30
0.0
40
3.000000
50
0.000000
51
90.000000
0
LINE
8
CUT_OUTER
10
929.000000
20
126.000000
30
0.0
11
653.000000
21
126.000000
31
0.0
0
ARC
8
CUT_OUTER
10
653.000000
20
123.000000
30
0.0
40
3.000000
50
90.000000
51
180.000000
0
LINE
8
CUT_OUTER
10
650.000000
20
123.000000
30
0.0
11
650.000000
21
111.000000
31
0.0
0
LINE
8
CUT_OUTER
10
650.000000
20
111.000000
30
0.0
11
641.000000
21
111.000000
31
0.0
0
ARC
8
CUT_OUTER
10
641.000000
20
108.000000
30
0.0
40
3.000000
50
90.000000
51
180.000000
0
LINE
8
CUT_OUTER
10
638.000000
20
108.000000
30
0.0
11
638.000000
21
83.000000
31
0.0
0
ARC
8
CUT_OUTER
10
641.000000
20
83.000000
30
0.0
40
3.000000
50
180.000000
51
270.000000
0
LINE
8
CUT_OUTER
10
641.000000
20
80.000000
30
0.0
11
650.000000
21
80.000000
31
0.0
0
LINE
8
CUT_OUTER
10
650.000000
20
80.000000
30
0.0
11
650.000000
21
71.000000
31
0.0
0
LINE
8
CUT_OUTER
10
650.000000
20
71.000000
30
0.0
11
641.000000
21
71.000000
31
0.0
0
ARC
8
CUT_OUTER
10
641.000000
20
68.000000
30
0.0
40
3.000000
50
90.000000
51
180.000000
0
LINE
8
CUT_OUTER
10
638.000000
20
68.000000
30
0.0
11
638.000000
21
43.000000
31
0.0
0
ARC
8
CUT_OUTER
10
641.000000
20
43.000000
30
0.0
40
3.000000
50
180.000000
51
270.000000
0
LINE
8
CUT_OUTER
10
641.000000
20
40.000000
30
0.0
11
650.000000
21
40.000000
31
0.0
0
LINE
8
CUT_INNER
10
1055.000001
20
205.000000
30
0.0
11
1005.000001
21
205.000000
31
0.0
0
ARC
8
CUT_INNER
10
1055.000001
20
195.000000
30
0.0
40
10.000000
50
90.000000
51
270.000000
0
LINE
8
CUT_INNER
10
1005.000001
20
185.000000
30
0.0
11
1055.000001
21
185.000000
31
0.0
0
ARC
8
CUT_INNER
10
1005.000001
20
195.000000
30
0.0
40
10.000000
50
270.000000
51
90.000000
0
ARC
8
CUT_INNER
10
1000.000001
20
52.600000
30
0.0
40
3.000000
50
299.926435
51
360.000000
0
LINE
8
CUT_INNER
10
1003.000001
20
52.600000
30
0.0
11
1003.000001
21
53.400000
31
0.0
0
ARC
8
CUT_INNER
10
1000.000001
20
53.400000
30
0.0
40
3.000000
50
360.000000
51
60.073565
0
LINE
8
CUT_INNER
10
1001.496664
20
56.000000
30
0.0
11
1058.503338
21
56.000000
31
0.0
0
ARC
8
CUT_INNER
10
1060.000001
20
53.400000
30
0.0
40
3.000000
50
119.926435
51
180.000000
0
LINE
8
CUT_INNER
10
1057.000001
20
53.400000
30
0.0
11
1057.000001
21
52.600000
31
0.0
0
ARC
8
CUT_INNER
10
1060.000001
20
52.600000
30
0.0
40
3.000000
50
180.000000
51
240.073565
0
LINE
8
CUT_INNER
10
1058.503338
20
50.000000
30
0.0
11
1001.496664
21
50.000000
31
0.0
0
LINE
8
CUT_INNER
10
1081.000001
20
104.496663
30
0.0
11
1081.000001
21
126.503337
31
0.0
0
ARC
8
CUT_INNER
10
1083.600001
20
128.000000
30
0.0
40
3.000000
50
209.926435
51
270.000000
0
LINE
8
CUT_INNER
10
1083.600001
20
125.000000
30
0.0
11
1084.400001
21
125.000000
31
0.0
0
ARC
8
CUT_INNER
10
1084.400001
20
128.000000
30
0.0
40
3.000000
50
270.000000
51
330.073565
0
LINE
8
CUT_INNER
10
1087.000001
20
126.503337
30
0.0
11
1087.000001
21
104.496663
31
0.0
0
ARC
8
CUT_INNER
10
1084.400001
20
103.000000
30
0.0
40
3.000000
50
29.926435
51
90.000000
0
LINE
8
CUT_INNER
10
1084.400001
20
106.000000
30
0.0
11
1083.600001
21
106.000000
31
0.0
0
ARC
8
CUT_INNER
10
1083.600001
20
103.000000
30
0.0
40
3.000000
50
90.000000
51
150.073565
0
LINE
8
CUT_INNER
10
973.000001
20
64.496663
30
0.0
11
973.000001
21
86.503337
31
0.0
0
ARC
8
CUT_INNER
10
975.600001
20
88.000000
30
0.0
40
3.000000
50
209.926435
51
270.000000
0
LINE
8
CUT_INNER
10
975.600001
20
85.000000
30
0.0
11
976.400001
21
85.000000
31
0.0
0
ARC
8
CUT_INNER
10
976.400001
20
88.000000
30
0.0
40
3.000000
50
270.000000
51
330.073565
0
LINE
8
CUT_INNER
10
979.000001
20
86.503337
30
0.0
11
979.000001
21
64.496663
31
0.0
0
ARC
8
CUT_INNER
10
976.400001
20
63.000000
30
0.0
40
3.000000
50
29.926435
51
90.000000
0
LINE
8
CUT_INNER
10
976.400001
20
66.000000
30
0.0
11
975.600001
21
66.000000
31
0.0
0
ARC
8
CUT_INNER
10
975.600001
20
63.000000
30
0.0
40
3.000000
50
90.000000
51
150.073565
0
LINE
8
CUT_INNER
10
1081.000001
20
64.496663
30
0.0
11
1081.000001
21
86.503337
31
0.0
0
ARC
8
CUT_INNER
10
1083.600001
20
88.000000
30
0.0
40
3.000000
50
209.926435
51
270.000000
0
LINE
8
CUT_INNER
10
1083.600001
20
85.000000
30
0.0
11
1084.400001
21
85.000000
31
0.0
0
ARC
8
CUT_INNER
10
1084.400001
20
88.000000
30
0.0
40
3.000000
50
270.000000
51
330.073565
0
LINE
8
CUT_INNER
10
1087.000001
20
86.503337
30
0.0
11
1087.000001
21
64.496663
31
0.0
0
ARC
8
CUT_INNER
10
1084.400001
20
63.000000
30
0.0
40
3.000000
50
29.926435
51
90.000000
0
LINE
8
CUT_INNER
10
1084.400001
20
66.000000
30
0.0
11
1083.600001
21
66.000000
31
0.0
0
ARC
8
CUT_INNER
10
1083.600001
20
63.000000
30
0.0
40
3.000000
50
90.000000
51
150.073565
0
LINE
8
CUT_INNER
10
973.000001
20
104.496663
30
0.0
11
973.000001
21
126.503337
31
0.0
0
ARC
8
CUT_INNER
10
975.600001
20
128.000000
30
0.0
40
3.000000
50
209.926435
51
270.000000
0
LINE
8
CUT_INNER
10
975.600001
20
125.000000
30
0.0
11
976.400001
21
125.000000
31
0.0
0
ARC
8
CUT_INNER
10
976.400001
20
128.000000
30
0.0
40
3.000000
50
270.000000
51
330.073565
0
LINE
8
CUT_INNER
10
979.000001
20
126.503337
30
0.0
11
979.000001
21
104.496663
31
0.0
0
ARC
8
CUT_INNER
10
976.400001
20
103.000000
30
0.0
40
3.000000
50
29.926435
51
90.000000
0
LINE
8
CUT_INNER
10
976.400001
20
106.000000
30
0.0
11
975.600001
21
106.000000
31
0.0
0
ARC
8
CUT_INNER
10
975.600001
20
103.000000
30
0.0
40
3.000000
50
90.000000
51
150.073565
0
LINE
8
CUT_OUTER
10
947.000001
20
223.000000
30
0.0
11
947.000001
21
23.000000
31
0.0
0
ARC
8
CUT_OUTER
10
950.000001
20
23.000000
30
0.0
40
3.000000
50
180.000000
51
270.000000
0
LINE
8
CUT_OUTER
10
950.000001
20
20.000000
30
0.0
11
1110.000001
21
20.000000
31
0.0
0
ARC
8
CUT_OUTER
10
1110.000001
20
23.000000
30
0.0
40
3.000000
50
270.000000
51
0.000000
0
LINE
8
CUT_OUTER
10
1113.000001
20
23.000000
30
0.0
11
1113.000001
21
223.000000
31
0.0
0
ARC
8
CUT_OUTER
10
1110.000001
20
223.000000
30
0.0
40
3.000000
50
0.000000
51
90.000000
0
LINE
8
CUT_OUTER
10
1110.000001
20
226.000000
30
0.0
11
950.000001
21
226.000000
31
0.0
0
ARC
8
CUT_OUTER
10
950.000001
20
223.000000
30
0.0
40
3.000000
50
90.000000
51
180.000000
0
LINE
8
CUT_INNER
10
128.000000
20
414.000000
30
0.0
11
78.000000
21
414.000000
31
0.0
0
ARC
8
CUT_INNER
10
128.000000
20
404.000000
30
0.0
40
10.000000
50
90.000000
51
270.000000
0
LINE
8
CUT_INNER
10
78.000000
20
394.000000
30
0.0
11
128.000000
21
394.000000
31
0.0
0
ARC
8
CUT_INNER
10
78.000000
20
404.000000
30
0.0
40
10.000000
50
270.000000
51
90.000000
0
ARC
8
CUT_INNER
10
73.000000
20
261.600000
30
0.0
40
3.000000
50
299.926435
51
360.000000
0
LINE
8
CUT_INNER
10
76.000000
20
261.600000
30
0.0
11
76.000000
21
262.400000
31
0.0
0
ARC
8
CUT_INNER
10
73.000000
20
262.400000
30
0.0
40
3.000000
50
0.000000
51
60.073565
0
LINE
8
CUT_INNER
10
74.496663
20
265.000000
30
0.0
11
131.503337
21
265.000000
31
0.0
0
ARC
8
CUT_INNER
10
133.000000
20
262.400000
30
0.0
40
3.000000
50
119.926435
51
180.000000
0
LINE
8
CUT_INNER
10
130.000000
20
262.400000
30
0.0
11
130.000000
21
261.600000
31
0.0
0
ARC
8
CUT_INNER
10
133.000000
20
261.600000
30
0.0
40
3.000000
50
180.000000
51
240.073565
0
LINE
8
CUT_INNER
10
131.503337
20
259.000000
30
0.0
11
74.496663
21
259.000000
31
0.0
0
LINE
8
CUT_INNER
10
154.000000
20
313.496663
30
0.0
11
154.000000
21
335.503337
31
0.0
0
ARC
8
CUT_INNER
10
156.600000
20
337.000000
30
0.0
40
3.000000
50
209.926435
51
270.000000
0
LINE
8
CUT_INNER
10
156.600000
20
334.000000
30
0.0
11
157.400000
21
334.000000
31
0.0
0
ARC
8
CUT_INNER
10
157.400000
20
337.000000
30
0.0
40
3.000000
50
270.000000
51
330.073565
0
LINE
8
CUT_INNER
10
160.000000
20
335.503337
30
0.0
11
160.000000
21
313.496663
31
0.0
0
ARC
8
CUT_INNER
10
157.400000
20
312.000000
30
0.0
40
3.000000
50
29.926435
51
90.000000
0
LINE
8
CUT_INNER
10
157.400000
20
315.000000
30
0.0
11
156.600000
21
315.000000
31
0.0
0
ARC
8
CUT_INNER
10
156.600000
20
312.000000
30
0.0
40
3.000000
50
90.000000
51
150.073565
0
LINE
8
CUT_INNER
10
46.000000
20
273.496663
30
0.0
11
46.000000
21
295.503337
31
0.0
0
ARC
8
CUT_INNER
10
48.600000
20
297.000000
30
0.0
40
3.000000
50
209.926435
51
270.000000
0
LINE
8
CUT_INNER
10
48.600000
20
294.000000
30
0.0
11
49.400000
21
294.000000
31
0.0
0
ARC
8
CUT_INNER
10
49.400000
20
297.000000
30
0.0
40
3.000000
50
270.000000
51
330.073565
0
LINE
8
CUT_INNER
10
52.000000
20
295.503337
30
0.0
11
52.000000
21
273.496663
31
0.0
0
ARC
8
CUT_INNER
10
49.400000
20
272.000000
30
0.0
40
3.000000
50
29.926435
51
90.000000
0
LINE
8
CUT_INNER
10
49.400000
20
275.000000
30
0.0
11
48.600000
21
275.000000
31
0.0
0
ARC
8
CUT_INNER
10
48.600000
20
272.000000
30
0.0
40
3.000000
50
90.000000
51
150.073565
0
LINE
8
CUT_INNER
10
154.000000
20
273.496663
30
0.0
11
154.000000
21
295.503337
31
0.0
0
ARC
8
CUT_INNER
10
156.600000
20
297.000000
30
0.0
40
3.000000
50
209.926435
51
270.000000
0
LINE
8
CUT_INNER
10
156.600000
20
294.000000
30
0.0
11
157.400000
21
294.000000
31
0.0
0
ARC
8
CUT_INNER
10
157.400000
20
297.000000
30
0.0
40
3.000000
50
270.000000
51
330.073565
0
LINE
8
CUT_INNER
10
160.000000
20
295.503337
30
0.0
11
160.000000
21
273.496663
31
0.0
0
ARC
8
CUT_INNER
10
157.400000
20
272.000000
30
0.0
40
3.000000
50
29.926435
51
90.000000
0
LINE
8
CUT_INNER
10
157.400000
20
275.000000
30
0.0
11
156.600000
21
275.000000
31
0.0
0
ARC
8
CUT_INNER
10
156.600000
20
272.000000
30
0.0
40
3.000000
50
90.000000
51
150.073565
0
LINE
8
CUT_INNER
10
46.000000
20
313.496663
30
0.0
11
46.000000
21
335.503337
31
0.0
0
ARC
8
CUT_INNER
10
48.600000
20
337.000000
30
0.0
40
3.000000
50
209.926435
51
270.000000
0
LINE
8
CUT_INNER
10
48.600000
20
334.000000
30
0.0
11
49.400000
21
334.000000
31
0.0
0
ARC
8
CUT_INNER
10
49.400000
20
337.000000
30
0.0
40
3.000000
50
270.000000
51
330.073565
0
LINE
8
CUT_INNER
10
52.000000
20
335.503337
30
0.0
11
52.000000
21
313.496663
31
0.0
0
ARC
8
CUT_INNER
10
49.400000
20
312.000000
30
0.0
40
3.000000
50
29.926435
51
90.000000
0
LINE
8
CUT_INNER
10
49.400000
20
315.000000
30
0.0
11
48.600000
21
315.000000
31
0.0
0
ARC
8
CUT_INNER
10
48.600000
20
312.000000
30
0.0
40
3.000000
50
90.000000
51
150.073565
0
LINE
8
CUT_OUTER
10
20.000000
20
432.000000
30
0.0
11
20.000000
21
232.000000
31
0.0
0
ARC
8
CUT_OUTER
10
23.000000
20
232.000000
30
0.0
40
3.000000
50
180.000000
51
270.000000
0
LINE
8
CUT_OUTER
10
23.000000
20
229.000000
30
0.0
11
183.000000
21
229.000000
31
0.0
0
ARC
8
CUT_OUTER
10
183.000000
20
232.000000
30
0.0
40
3.000000
50
270.000000
51
0.000000
0
LINE
8
CUT_OUTER
10
186.000000
20
232.000000
30
0.0
11
186.000000
21
432.000000
31
0.0
0
ARC
8
CUT_OUTER
10
183.000000
20
432.000000
30
0.0
40
3.000000
50
0.000000
51
90.000000
0
LINE
8
CUT_OUTER
10
183.000000
20
435.000000
30
0.0
11
23.000000
21
435.000000
31
0.0
0
ARC
8
CUT_OUTER
10
23.000000
20
432.000000
30
0.0
40
3.000000
50
90.000000
51
180.000000
0
ENDSEC
0
EOF
