0
SECTION
2
HEADER
9
$ACADVER
1
AC1009
9
$INSUNITS
70
4
9
$EXTMIN
10
20.000000
20
10.000000
30
0.0
9
$EXTMAX
10
410.000000
20
287.000000
30
0.0
0
ENDSEC
0
SECTION
2
TABLES
0
TABLE
2
LAYER
70
5
0
LAYER
2
0
70
0
62
7
6
CONTINUOUS
0
LAYER
2
BORDER
70
0
62
1
6
CONTINUOUS
0
LAYER
2
VIEW_VISIBLE
70
0
62
3
6
CONTINUOUS
0
LAYER
2
VIEW_HIDDEN
70
0
62
5
6
CONTINUOUS
0
LAYER
2
ANNOTATION
70
0
62
2
6
CONTINUOUS
0
ENDTAB
0
ENDSEC
0
SECTION
2
ENTITIES
0
LINE
8
BORDER
10
20.000000
20
10.000000
30
0.0
11
410.000000
21
10.000000
31
0.0
0
LINE
8
BORDER
10
410.000000
20
10.000000
30
0.0
11
410.000000
21
287.000000
31
0.0
0
LINE
8
BORDER
10
410.000000
20
287.000000
30
0.0
11
20.000000
21
287.000000
31
0.0
0
LINE
8
BORDER
10
20.000000
20
287.000000
30
0.0
11
20.000000
21
10.000000
31
0.0
0
LINE
8
VIEW_VISIBLE
10
32.000000
20
161.000000
30
0.0
11
32.000000
21
151.000000
31
0.0
0
LINE
8
VIEW_VISIBLE
10
26.000000
20
161.000000
30
0.0
11
32.000000
21
161.000000
31
0.0
0
LINE
8
VIEW_VISIBLE
10
32.000000
20
151.000000
30
0.0
11
170.000000
21
151.000000
31
0.0
0
LINE
8
VIEW_VISIBLE
10
26.000000
20
173.500000
30
0.0
11
26.000000
21
161.000000
31
0.0
0
LINE
8
VIEW_VISIBLE
10
170.000000
20
151.000000
30
0.0
11
170.000000
21
161.000000
31
0.0
0
LINE
8
VIEW_VISIBLE
10
32.000000
20
173.500000
30
0.0
11
26.000000
21
173.500000
31
0.0
0
LINE
8
VIEW_VISIBLE
10
170.000000
20
161.000000
30
0.0
11
176.000000
21
161.000000
31
0.0
0
LINE
8
VIEW_VISIBLE
10
32.000000
20
181.000000
30
0.0
11
32.000000
21
173.500000
31
0.0
0
LINE
8
VIEW_VISIBLE
10
176.000000
20
161.000000
30
0.0
11
176.000000
21
173.500000
31
0.0
0
LINE
8
VIEW_VISIBLE
10
26.000000
20
181.000000
30
0.0
11
32.000000
21
181.000000
31
0.0
0
LINE
8
VIEW_VISIBLE
10
176.000000
20
173.500000
30
0.0
11
170.000000
21
173.500000
31
0.0
0
LINE
8
VIEW_VISIBLE
10
26.000000
20
193.500000
30
0.0
11
26.000000
21
181.000000
31
0.0
0
LINE
8
VIEW_VISIBLE
10
170.000000
20
173.500000
30
0.0
11
170.000000
21
181.000000
31
0.0
0
LINE
8
VIEW_VISIBLE
10
32.000000
20
193.500000
30
0.0
11
26.000000
21
193.500000
31
0.0
0
LINE
8
VIEW_VISIBLE
10
170.000000
20
181.000000
30
0.0
11
176.000000
21
181.000000
31
0.0
0
LINE
8
VIEW_VISIBLE
10
32.000000
20
201.000000
30
0.0
11
32.000000
21
193.500000
31
0.0
0
LINE
8
VIEW_VISIBLE
10
176.000000
20
181.000000
30
0.0
11
176.000000
21
193.500000
31
0.0
0
LINE
8
VIEW_VISIBLE
10
170.000000
20
201.000000
30
0.0
11
32.000000
21
201.000000
31
0.0
0
LINE
8
VIEW_VISIBLE
10
176.000000
20
193.500000
30
0.0
11
170.000000
21
193.500000
31
0.0
0
LINE
8
VIEW_VISIBLE
10
170.000000
20
193.500000
30
0.0
11
170.000000
21
201.000000
31
0.0
0
LINE
8
VIEW_VISIBLE
10
61.748332
20
153.000000
30
0.0
11
61.433699
21
152.864067
31
0.0
0
LINE
8
VIEW_VISIBLE
10
61.433699
20
152.864067
30
0.0
11
61.096423
21
152.803103
31
0.0
0
LINE
8
VIEW_VISIBLE
10
61.096423
20
152.803103
30
0.0
11
60.754113
21
152.820291
31
0.0
0
LINE
8
VIEW_VISIBLE
10
60.754113
20
152.820291
30
0.0
11
60.424641
21
152.914734
31
0.0
0
LINE
8
VIEW_VISIBLE
10
60.424641
20
152.914734
30
0.0
11
60.125208
21
153.081502
31
0.0
0
LINE
8
VIEW_VISIBLE
10
60.125208
20
153.081502
30
0.0
11
59.871447
21
153.311887
31
0.0
0
LINE
8
VIEW_VISIBLE
10
59.871447
20
153.311887
30
0.0
11
59.676608
21
153.593861
31
0.0
0
LINE
8
VIEW_VISIBLE
10
59.676608
20
153.593861
30
0.0
11
59.550863
21
153.912702
31
0.0
0
LINE
8
VIEW_VISIBLE
10
59.550863
20
153.912702
30
0.0
11
59.500776
21
154.251764
31
0.0
0
LINE
8
VIEW_VISIBLE
10
59.500776
20
154.251764
30
0.0
11
59.528963
21
154.593344
31
0.0
0
LINE
8
VIEW_VISIBLE
10
59.528963
20
154.593344
30
0.0
11
59.633953
21
154.919609
31
0.0
0
LINE
8
VIEW_VISIBLE
10
59.633953
20
154.919609
30
0.0
11
59.810263
21
155.213524
31
0.0
0
LINE
8
VIEW_VISIBLE
10
59.810263
20
155.213524
30
0.0
11
60.048690
21
155.459745
31
0.0
0
LINE
8
VIEW_VISIBLE
10
60.048690
20
155.459745
30
0.0
11
60.336783
21
155.645416
31
0.0
0
LINE
8
VIEW_VISIBLE
10
60.336783
20
155.645416
30
0.0
11
60.659503
21
155.760843
31
0.0
0
LINE
8
VIEW_VISIBLE
10
60.659503
20
155.760843
30
0.0
11
61.000000
21
155.800000
31
0.0
0
LINE
8
VIEW_VISIBLE
10
85.251669
20
153.000000
30
0.0
11
61.748332
21
153.000000
31
0.0
0
LINE
8
VIEW_VISIBLE
10
86.000000
20
155.800000
30
0.0
11
86.340497
21
155.760843
31
0.0
0
LINE
8
VIEW_VISIBLE
10
86.340497
20
155.760843
30
0.0
11
86.663217
21
155.645416
31
0.0
0
LINE
8
VIEW_VISIBLE
10
86.663217
20
155.645416
30
0.0
11
86.951311
21
155.459745
31
0.0
0
LINE
8
VIEW_VISIBLE
10
86.951311
20
155.459745
30
0.0
11
87.189737
21
155.213524
31
0.0
0
LINE
8
VIEW_VISIBLE
10
87.189737
20
155.213524
30
0.0
11
87.366048
21
154.919609
31
0.0
0
LINE
8
VIEW_VISIBLE
10
87.366048
20
154.919609
30
0.0
11
87.471037
21
154.593344
31
0.0
0
LINE
8
VIEW_VISIBLE
10
87.471037
20
154.593344
30
0.0
11
87.499225
21
154.251764
31
0.0
0
LINE
8
VIEW_VISIBLE
10
87.499225
20
154.251764
30
0.0
11
87.449138
21
153.912702
31
0.0
0
LINE
8
VIEW_VISIBLE
10
87.449138
20
153.912702
30
0.0
11
87.323393
21
153.593861
31
0.0
0
LINE
8
VIEW_VISIBLE
10
87.323393
20
153.593861
30
0.0
11
87.128553
21
153.311887
31
0.0
0
LINE
8
VIEW_VISIBLE
10
87.128553
20
153.311887
30
0.0
11
86.874793
21
153.081502
31
0.0
0
LINE
8
VIEW_VISIBLE
10
86.874793
20
153.081502
30
0.0
11
86.575360
21
152.914734
31
0.0
0
LINE
8
VIEW_VISIBLE
10
86.575360
20
152.914734
30
0.0
11
86.245887
21
152.820291
31
0.0
0
LINE
8
VIEW_VISIBLE
10
86.245887
20
152.820291
30
0.0
11
85.903577
21
152.803103
31
0.0
0
LINE
8
VIEW_VISIBLE
10
85.903577
20
152.803103
30
0.0
11
85.566301
21
152.864067
31
0.0
0
LINE
8
VIEW_VISIBLE
10
85.566301
20
152.864067
30
0.0
11
85.251669
21
153.000000
31
0.0
0
LINE
8
VIEW_VISIBLE
10
86.000000
20
156.200000
30
0.0
11
86.000000
21
155.800000
31
0.0
0
LINE
8
VIEW_VISIBLE
10
85.251669
20
159.000000
30
0.0
11
85.566301
21
159.135934
31
0.0
0
LINE
8
VIEW_VISIBLE
10
85.566301
20
159.135934
30
0.0
11
85.903577
21
159.196898
31
0.0
0
LINE
8
VIEW_VISIBLE
10
85.903577
20
159.196898
30
0.0
11
86.245887
21
159.179710
31
0.0
0
LINE
8
VIEW_VISIBLE
10
86.245887
20
159.179710
30
0.0
11
86.575360
21
159.085266
31
0.0
0
LINE
8
VIEW_VISIBLE
10
86.575360
20
159.085266
30
0.0
11
86.874793
21
158.918499
31
0.0
0
LINE
8
VIEW_VISIBLE
10
86.874793
20
158.918499
30
0.0
11
87.128553
21
158.688114
31
0.0
0
LINE
8
VIEW_VISIBLE
10
87.128553
20
158.688114
30
0.0
11
87.323393
21
158.406140
31
0.0
0
LINE
8
VIEW_VISIBLE
10
87.323393
20
158.406140
30
0.0
11
87.449138
21
158.087299
31
0.0
0
LINE
8
VIEW_VISIBLE
10
87.449138
20
158.087299
30
0.0
11
87.499225
21
157.748237
31
0.0
0
LINE
8
VIEW_VISIBLE
10
87.499225
20
157.748237
30
0.0
11
87.471037
21
157.406657
31
0.0
0
LINE
8
VIEW_VISIBLE
10
87.471037
20
157.406657
30
0.0
11
87.366048
21
157.080392
31
0.0
0
LINE
8
VIEW_VISIBLE
10
87.366048
20
157.080392
30
0.0
11
87.189737
21
156.786476
31
0.0
0
LINE
8
VIEW_VISIBLE
10
87.189737
20
156.786476
30
0.0
11
86.951311
21
156.540256
31
0.0
0
LINE
8
VIEW_VISIBLE
10
86.951311
20
156.540256
30
0.0
11
86.663217
21
156.354585
31
0.0
0
LINE
8
VIEW_VISIBLE
10
86.663217
20
156.354585
30
0.0
11
86.340497
21
156.239158
31
0.0
0
LINE
8
VIEW_VISIBLE
10
86.340497
20
156.239158
30
0.0
11
86.000000
21
156.200000
31
0.0
0
LINE
8
VIEW_VISIBLE
10
61.748332
20
159.000000
30
0.0
11
85.251669
21
159.000000
31
0.0
0
LINE
8
VIEW_VISIBLE
10
61.000000
20
156.200000
30
0.0
11
60.659503
21
156.239158
31
0.0
0
LINE
8
VIEW_VISIBLE
10
60.659503
20
156.239158
30
0.0
11
60.336783
21
156.354585
31
0.0
0
LINE
8
VIEW_VISIBLE
10
60.336783
20
156.354585
30
0.0
11
60.048690
21
156.540256
31
0.0
0
LINE
8
VIEW_VISIBLE
10
60.048690
20
156.540256
30
0.0
11
59.810263
21
156.786476
31
0.0
0
LINE
8
VIEW_VISIBLE
10
59.810263
20
156.786476
30
0.0
11
59.633953
21
157.080392
31
0.0
0
LINE
8
VIEW_VISIBLE
10
59.633953
20
157.080392
30
0.0
11
59.528963
21
157.406657
31
0.0
0
LINE
8
VIEW_VISIBLE
10
59.528963
20
157.406657
30
0.0
11
59.500776
21
157.748237
31
0.0
0
LINE
8
VIEW_VISIBLE
10
59.500776
20
157.748237
30
0.0
11
59.550863
21
158.087299
31
0.0
0
LINE
8
VIEW_VISIBLE
10
59.550863
20
158.087299
30
0.0
11
59.676608
21
158.406140
31
0.0
0
LINE
8
VIEW_VISIBLE
10
59.676608
20
158.406140
30
0.0
11
59.871447
21
158.688114
31
0.0
0
LINE
8
VIEW_VISIBLE
10
59.871447
20
158.688114
30
0.0
11
60.125208
21
158.918499
31
0.0
0
LINE
8
VIEW_VISIBLE
10
60.125208
20
158.918499
30
0.0
11
60.424641
21
159.085266
31
0.0
0
LINE
8
VIEW_VISIBLE
10
60.424641
20
159.085266
30
0.0
11
60.754113
21
159.179710
31
0.0
0
LINE
8
VIEW_VISIBLE
10
60.754113
20
159.179710
30
0.0
11
61.096423
21
159.196898
31
0.0
0
LINE
8
VIEW_VISIBLE
10
61.096423
20
159.196898
30
0.0
11
61.433699
21
159.135934
31
0.0
0
LINE
8
VIEW_VISIBLE
10
61.433699
20
159.135934
30
0.0
11
61.748332
21
159.000000
31
0.0
0
LINE
8
VIEW_VISIBLE
10
61.000000
20
155.800000
30
0.0
11
61.000000
21
156.200000
31
0.0
0
LINE
8
VIEW_VISIBLE
10
116.748332
20
153.000000
30
0.0
11
116.433699
21
152.864067
31
0.0
0
LINE
8
VIEW_VISIBLE
10
116.433699
20
152.864067
30
0.0
11
116.096423
21
152.803103
31
0.0
0
LINE
8
VIEW_VISIBLE
10
116.096423
20
152.803103
30
0.0
11
115.754113
21
152.820291
31
0.0
0
LINE
8
VIEW_VISIBLE
10
115.754113
20
152.820291
30
0.0
11
115.424641
21
152.914734
31
0.0
0
LINE
8
VIEW_VISIBLE
10
115.424641
20
152.914734
30
0.0
11
115.125208
21
153.081502
31
0.0
0
LINE
8
VIEW_VISIBLE
10
115.125208
20
153.081502
30
0.0
11
114.871447
21
153.311887
31
0.0
0
LINE
8
VIEW_VISIBLE
10
114.871447
20
153.311887
30
0.0
11
114.676608
21
153.593861
31
0.0
0
LINE
8
VIEW_VISIBLE
10
114.676608
20
153.593861
30
0.0
11
114.550863
21
153.912702
31
0.0
0
LINE
8
VIEW_VISIBLE
10
114.550863
20
153.912702
30
0.0
11
114.500776
21
154.251764
31
0.0
0
LINE
8
VIEW_VISIBLE
10
114.500776
20
154.251764
30
0.0
11
114.528963
21
154.593344
31
0.0
0
LINE
8
VIEW_VISIBLE
10
114.528963
20
154.593344
30
0.0
11
114.633953
21
154.919609
31
0.0
0
LINE
8
VIEW_VISIBLE
10
114.633953
20
154.919609
30
0.0
11
114.810263
21
155.213524
31
0.0
0
LINE
8
VIEW_VISIBLE
10
114.810263
20
155.213524
30
0.0
11
115.048690
21
155.459745
31
0.0
0
LINE
8
VIEW_VISIBLE
10
115.048690
20
155.459745
30
0.0
11
115.336783
21
155.645416
31
0.0
0
LINE
8
VIEW_VISIBLE
10
115.336783
20
155.645416
30
0.0
11
115.659503
21
155.760843
31
0.0
0
LINE
8
VIEW_VISIBLE
10
115.659503
20
155.760843
30
0.0
11
116.000000
21
155.800000
31
0.0
0
LINE
8
VIEW_VISIBLE
10
140.251669
20
153.000000
30
0.0
11
116.748332
21
153.000000
31
0.0
0
LINE
8
VIEW_VISIBLE
10
141.000000
20
155.800000
30
0.0
11
141.340497
21
155.760843
31
0.0
0
LINE
8
VIEW_VISIBLE
10
141.340497
20
155.760843
30
0.0
11
141.663217
21
155.645416
31
0.0
0
LINE
8
VIEW_VISIBLE
10
141.663217
20
155.645416
30
0.0
11
141.951311
21
155.459745
31
0.0
0
LINE
8
VIEW_VISIBLE
10
141.951311
20
155.459745
30
0.0
11
142.189737
21
155.213524
31
0.0
0
LINE
8
VIEW_VISIBLE
10
142.189737
20
155.213524
30
0.0
11
142.366048
21
154.919609
31
0.0
0
LINE
8
VIEW_VISIBLE
10
142.366048
20
154.919609
30
0.0
11
142.471037
21
154.593344
31
0.0
0
LINE
8
VIEW_VISIBLE
10
142.471037
20
154.593344
30
0.0
11
142.499225
21
154.251764
31
0.0
0
LINE
8
VIEW_VISIBLE
10
142.499225
20
154.251764
30
0.0
11
142.449138
21
153.912702
31
0.0
0
LINE
8
VIEW_VISIBLE
10
142.449138
20
153.912702
30
0.0
11
142.323393
21
153.593861
31
0.0
0
LINE
8
VIEW_VISIBLE
10
142.323393
20
153.593861
30
0.0
11
142.128553
21
153.311887
31
0.0
0
LINE
8
VIEW_VISIBLE
10
142.128553
20
153.311887
30
0.0
11
141.874793
21
153.081502
31
0.0
0
LINE
8
VIEW_VISIBLE
10
141.874793
20
153.081502
30
0.0
11
141.575360
21
152.914734
31
0.0
0
LINE
8
VIEW_VISIBLE
10
141.575360
20
152.914734
30
0.0
11
141.245887
21
152.820291
31
0.0
0
LINE
8
VIEW_VISIBLE
10
141.245887
20
152.820291
30
0.0
11
140.903577
21
152.803103
31
0.0
0
LINE
8
VIEW_VISIBLE
10
140.903577
20
152.803103
30
0.0
11
140.566301
21
152.864067
31
0.0
0
LINE
8
VIEW_VISIBLE
10
140.566301
20
152.864067
30
0.0
11
140.251669
21
153.000000
31
0.0
0
LINE
8
VIEW_VISIBLE
10
141.000000
20
156.200000
30
0.0
11
141.000000
21
155.800000
31
0.0
0
LINE
8
VIEW_VISIBLE
10
140.251669
20
159.000000
30
0.0
11
140.566301
21
159.135934
31
0.0
0
LINE
8
VIEW_VISIBLE
10
140.566301
20
159.135934
30
0.0
11
140.903577
21
159.196898
31
0.0
0
LINE
8
VIEW_VISIBLE
10
140.903577
20
159.196898
30
0.0
11
141.245887
21
159.179710
31
0.0
0
LINE
8
VIEW_VISIBLE
10
141.245887
20
159.179710
30
0.0
11
141.575360
21
159.085266
31
0.0
0
LINE
8
VIEW_VISIBLE
10
141.575360
20
159.085266
30
0.0
11
141.874793
21
158.918499
31
0.0
0
LINE
8
VIEW_VISIBLE
10
141.874793
20
158.918499
30
0.0
11
142.128553
21
158.688114
31
0.0
0
LINE
8
VIEW_VISIBLE
10
142.128553
20
158.688114
30
0.0
11
142.323393
21
158.406140
31
0.0
0
LINE
8
VIEW_VISIBLE
10
142.323393
20
158.406140
30
0.0
11
142.449138
21
158.087299
31
0.0
0
LINE
8
VIEW_VISIBLE
10
142.449138
20
158.087299
30
0.0
11
142.499225
21
157.748237
31
0.0
0
LINE
8
VIEW_VISIBLE
10
142.499225
20
157.748237
30
0.0
11
142.471037
21
157.406657
31
0.0
0
LINE
8
VIEW_VISIBLE
10
142.471037
20
157.406657
30
0.0
11
142.366048
21
157.080392
31
0.0
0
LINE
8
VIEW_VISIBLE
10
142.366048
20
157.080392
30
0.0
11
142.189737
21
156.786476
31
0.0
0
LINE
8
VIEW_VISIBLE
10
142.189737
20
156.786476
30
0.0
11
141.951311
21
156.540256
31
0.0
0
LINE
8
VIEW_VISIBLE
10
141.951311
20
156.540256
30
0.0
11
141.663217
21
156.354585
31
0.0
0
LINE
8
VIEW_VISIBLE
10
141.663217
20
156.354585
30
0.0
11
141.340497
21
156.239158
31
0.0
0
LINE
8
VIEW_VISIBLE
10
141.340497
20
156.239158
30
0.0
11
141.000000
21
156.200000
31
0.0
0
LINE
8
VIEW_VISIBLE
10
116.748332
20
159.000000
30
0.0
11
140.251669
21
159.000000
31
0.0
0
LINE
8
VIEW_VISIBLE
10
116.000000
20
156.200000
30
0.0
11
115.659503
21
156.239158
31
0.0
0
LINE
8
VIEW_VISIBLE
10
115.659503
20
156.239158
30
0.0
11
115.336783
21
156.354585
31
0.0
0
LINE
8
VIEW_VISIBLE
10
115.336783
20
156.354585
30
0.0
11
115.048690
21
156.540256
31
0.0
0
LINE
8
VIEW_VISIBLE
10
115.048690
20
156.540256
30
0.0
11
114.810263
21
156.786476
31
0.0
0
LINE
8
VIEW_VISIBLE
10
114.810263
20
156.786476
30
0.0
11
114.633953
21
157.080392
31
0.0
0
LINE
8
VIEW_VISIBLE
10
114.633953
20
157.080392
30
0.0
11
114.528963
21
157.406657
31
0.0
0
LINE
8
VIEW_VISIBLE
10
114.528963
20
157.406657
30
0.0
11
114.500776
21
157.748237
31
0.0
0
LINE
8
VIEW_VISIBLE
10
114.500776
20
157.748237
30
0.0
11
114.550863
21
158.087299
31
0.0
0
LINE
8
VIEW_VISIBLE
10
114.550863
20
158.087299
30
0.0
11
114.676608
21
158.406140
31
0.0
0
LINE
8
VIEW_VISIBLE
10
114.676608
20
158.406140
30
0.0
11
114.871447
21
158.688114
31
0.0
0
LINE
8
VIEW_VISIBLE
10
114.871447
20
158.688114
30
0.0
11
115.125208
21
158.918499
31
0.0
0
LINE
8
VIEW_VISIBLE
10
115.125208
20
158.918499
30
0.0
11
115.424641
21
159.085266
31
0.0
0
LINE
8
VIEW_VISIBLE
10
115.424641
20
159.085266
30
0.0
11
115.754113
21
159.179710
31
0.0
0
LINE
8
VIEW_VISIBLE
10
115.754113
20
159.179710
30
0.0
11
116.096423
21
159.196898
31
0.0
0
LINE
8
VIEW_VISIBLE
10
116.096423
20
159.196898
30
0.0
11
116.433699
21
159.135934
31
0.0
0
LINE
8
VIEW_VISIBLE
10
116.433699
20
159.135934
30
0.0
11
116.748332
21
159.000000
31
0.0
0
LINE
8
VIEW_VISIBLE
10
116.000000
20
155.800000
30
0.0
11
116.000000
21
156.200000
31
0.0
0
LINE
8
VIEW_HIDDEN
10
32.000000
20
161.000000
30
0.0
11
32.000000
21
151.000000
31
0.0
0
LINE
8
VIEW_HIDDEN
10
26.000000
20
161.000000
30
0.0
11
32.000000
21
161.000000
31
0.0
0
LINE
8
VIEW_HIDDEN
10
32.000000
20
151.000000
30
0.0
11
170.000000
21
151.000000
31
0.0
0
LINE
8
VIEW_HIDDEN
10
26.000000
20
173.500000
30
0.0
11
26.000000
21
161.000000
31
0.0
0
LINE
8
VIEW_HIDDEN
10
170.000000
20
151.000000
30
0.0
11
170.000000
21
161.000000
31
0.0
0
LINE
8
VIEW_HIDDEN
10
32.000000
20
173.500000
30
0.0
11
26.000000
21
173.500000
31
0.0
0
LINE
8
VIEW_HIDDEN
10
170.000000
20
161.000000
30
0.0
11
176.000000
21
161.000000
31
0.0
0
LINE
8
VIEW_HIDDEN
10
32.000000
20
181.000000
30
0.0
11
32.000000
21
173.500000
31
0.0
0
LINE
8
VIEW_HIDDEN
10
176.000000
20
161.000000
30
0.0
11
176.000000
21
173.500000
31
0.0
0
LINE
8
VIEW_HIDDEN
10
26.000000
20
181.000000
30
0.0
11
32.000000
21
181.000000
31
0.0
0
LINE
8
VIEW_HIDDEN
10
176.000000
20
173.500000
30
0.0
11
170.000000
21
173.500000
31
0.0
0
LINE
8
VIEW_HIDDEN
10
26.000000
20
193.500000
30
0.0
11
26.000000
21
181.000000
31
0.0
0
LINE
8
VIEW_HIDDEN
10
170.000000
20
173.500000
30
0.0
11
170.000000
21
181.000000
31
0.0
0
LINE
8
VIEW_HIDDEN
10
32.000000
20
193.500000
30
0.0
11
26.000000
21
193.500000
31
0.0
0
LINE
8
VIEW_HIDDEN
10
170.000000
20
181.000000
30
0.0
11
176.000000
21
181.000000
31
0.0
0
LINE
8
VIEW_HIDDEN
10
32.000000
20
201.000000
30
0.0
11
32.000000
21
193.500000
31
0.0
0
LINE
8
VIEW_HIDDEN
10
176.000000
20
181.000000
30
0.0
11
176.000000
21
193.500000
31
0.0
0
LINE
8
VIEW_HIDDEN
10
170.000000
20
201.000000
30
0.0
11
32.000000
21
201.000000
31
0.0
0
LINE
8
VIEW_HIDDEN
10
176.000000
20
193.500000
30
0.0
11
170.000000
21
193.500000
31
0.0
0
LINE
8
VIEW_HIDDEN
10
170.000000
20
193.500000
30
0.0
11
170.000000
21
201.000000
31
0.0
0
LINE
8
VIEW_HIDDEN
10
61.748332
20
153.000000
30
0.0
11
61.433699
21
152.864067
31
0.0
0
LINE
8
VIEW_HIDDEN
10
61.433699
20
152.864067
30
0.0
11
61.096423
21
152.803103
31
0.0
0
LINE
8
VIEW_HIDDEN
10
61.096423
20
152.803103
30
0.0
11
60.754113
21
152.820291
31
0.0
0
LINE
8
VIEW_HIDDEN
10
60.754113
20
152.820291
30
0.0
11
60.424641
21
152.914734
31
0.0
0
LINE
8
VIEW_HIDDEN
10
60.424641
20
152.914734
30
0.0
11
60.125208
21
153.081502
31
0.0
0
LINE
8
VIEW_HIDDEN
10
60.125208
20
153.081502
30
0.0
11
59.871447
21
153.311887
31
0.0
0
LINE
8
VIEW_HIDDEN
10
59.871447
20
153.311887
30
0.0
11
59.676608
21
153.593861
31
0.0
0
LINE
8
VIEW_HIDDEN
10
59.676608
20
153.593861
30
0.0
11
59.550863
21
153.912702
31
0.0
0
LINE
8
VIEW_HIDDEN
10
59.550863
20
153.912702
30
0.0
11
59.500776
21
154.251764
31
0.0
0
LINE
8
VIEW_HIDDEN
10
59.500776
20
154.251764
30
0.0
11
59.528963
21
154.593344
31
0.0
0
LINE
8
VIEW_HIDDEN
10
59.528963
20
154.593344
30
0.0
11
59.633953
21
154.919609
31
0.0
0
LINE
8
VIEW_HIDDEN
10
59.633953
20
154.919609
30
0.0
11
59.810263
21
155.213524
31
0.0
0
LINE
8
VIEW_HIDDEN
10
59.810263
20
155.213524
30
0.0
11
60.048690
21
155.459745
31
0.0
0
LINE
8
VIEW_HIDDEN
10
60.048690
20
155.459745
30
0.0
11
60.336783
21
155.645416
31
0.0
0
LINE
8
VIEW_HIDDEN
10
60.336783
20
155.645416
30
0.0
11
60.659503
21
155.760843
31
0.0
0
LINE
8
VIEW_HIDDEN
10
60.659503
20
155.760843
30
0.0
11
61.000000
21
155.800000
31
0.0
0
LINE
8
VIEW_HIDDEN
10
85.251669
20
153.000000
30
0.0
11
61.748332
21
153.000000
31
0.0
0
LINE
8
VIEW_HIDDEN
10
86.000000
20
155.800000
30
0.0
11
86.340497
21
155.760843
31
0.0
0
LINE
8
VIEW_HIDDEN
10
86.340497
20
155.760843
30
0.0
11
86.663217
21
155.645416
31
0.0
0
LINE
8
VIEW_HIDDEN
10
86.663217
20
155.645416
30
0.0
11
86.951311
21
155.459745
31
0.0
0
LINE
8
VIEW_HIDDEN
10
86.951311
20
155.459745
30
0.0
11
87.189737
21
155.213524
31
0.0
0
LINE
8
VIEW_HIDDEN
10
87.189737
20
155.213524
30
0.0
11
87.366048
21
154.919609
31
0.0
0
LINE
8
VIEW_HIDDEN
10
87.366048
20
154.919609
30
0.0
11
87.471037
21
154.593344
31
0.0
0
LINE
8
VIEW_HIDDEN
10
87.471037
20
154.593344
30
0.0
11
87.499225
21
154.251764
31
0.0
0
LINE
8
VIEW_HIDDEN
10
87.499225
20
154.251764
30
0.0
11
87.449138
21
153.912702
31
0.0
0
LINE
8
VIEW_HIDDEN
10
87.449138
20
153.912702
30
0.0
11
87.323393
21
153.593861
31
0.0
0
LINE
8
VIEW_HIDDEN
10
87.323393
20
153.593861
30
0.0
11
87.128553
21
153.311887
31
0.0
0
LINE
8
VIEW_HIDDEN
10
87.128553
20
153.311887
30
0.0
11
86.874793
21
153.081502
31
0.0
0
LINE
8
VIEW_HIDDEN
10
86.874793
20
153.081502
30
0.0
11
86.575360
21
152.914734
31
0.0
0
LINE
8
VIEW_HIDDEN
10
86.575360
20
152.914734
30
0.0
11
86.245887
21
152.820291
31
0.0
0
LINE
8
VIEW_HIDDEN
10
86.245887
20
152.820291
30
0.0
11
85.903577
21
152.803103
31
0.0
0
LINE
8
VIEW_HIDDEN
10
85.903577
20
152.803103
30
0.0
11
85.566301
21
152.864067
31
0.0
0
LINE
8
VIEW_HIDDEN
10
85.566301
20
152.864067
30
0.0
11
85.251669
21
153.000000
31
0.0
0
LINE
8
VIEW_HIDDEN
10
86.000000
20
156.200000
30
0.0
11
86.000000
21
155.800000
31
0.0
0
LINE
8
VIEW_HIDDEN
10
85.251669
20
159.000000
30
0.0
11
85.566301
21
159.135934
31
0.0
0
LINE
8
VIEW_HIDDEN
10
85.566301
20
159.135934
30
0.0
11
85.903577
21
159.196898
31
0.0
0
LINE
8
VIEW_HIDDEN
10
85.903577
20
159.196898
30
0.0
11
86.245887
21
159.179710
31
0.0
0
LINE
8
VIEW_HIDDEN
10
86.245887
20
159.179710
30
0.0
11
86.575360
21
159.085266
31
0.0
0
LINE
8
VIEW_HIDDEN
10
86.575360
20
159.085266
30
0.0
11
86.874793
21
158.918499
31
0.0
0
LINE
8
VIEW_HIDDEN
10
86.874793
20
158.918499
30
0.0
11
87.128553
21
158.688114
31
0.0
0
LINE
8
VIEW_HIDDEN
10
87.128553
20
158.688114
30
0.0
11
87.323393
21
158.406140
31
0.0
0
LINE
8
VIEW_HIDDEN
10
87.323393
20
158.406140
30
0.0
11
87.449138
21
158.087299
31
0.0
0
LINE
8
VIEW_HIDDEN
10
87.449138
20
158.087299
30
0.0
11
87.499225
21
157.748237
31
0.0
0
LINE
8
VIEW_HIDDEN
10
87.499225
20
157.748237
30
0.0
11
87.471037
21
157.406657
31
0.0
0
LINE
8
VIEW_HIDDEN
10
87.471037
20
157.406657
30
0.0
11
87.366048
21
157.080392
31
0.0
0
LINE
8
VIEW_HIDDEN
10
87.366048
20
157.080392
30
0.0
11
87.189737
21
156.786476
31
0.0
0
LINE
8
VIEW_HIDDEN
10
87.189737
20
156.786476
30
0.0
11
86.951311
21
156.540256
31
0.0
0
LINE
8
VIEW_HIDDEN
10
86.951311
20
156.540256
30
0.0
11
86.663217
21
156.354585
31
0.0
0
LINE
8
VIEW_HIDDEN
10
86.663217
20
156.354585
30
0.0
11
86.340497
21
156.239158
31
0.0
0
LINE
8
VIEW_HIDDEN
10
86.340497
20
156.239158
30
0.0
11
86.000000
21
156.200000
31
0.0
0
LINE
8
VIEW_HIDDEN
10
61.748332
20
159.000000
30
0.0
11
85.251669
21
159.000000
31
0.0
0
LINE
8
VIEW_HIDDEN
10
61.000000
20
156.200000
30
0.0
11
60.659503
21
156.239158
31
0.0
0
LINE
8
VIEW_HIDDEN
10
60.659503
20
156.239158
30
0.0
11
60.336783
21
156.354585
31
0.0
0
LINE
8
VIEW_HIDDEN
10
60.336783
20
156.354585
30
0.0
11
60.048690
21
156.540256
31
0.0
0
LINE
8
VIEW_HIDDEN
10
60.048690
20
156.540256
30
0.0
11
59.810263
21
156.786476
31
0.0
0
LINE
8
VIEW_HIDDEN
10
59.810263
20
156.786476
30
0.0
11
59.633953
21
157.080392
31
0.0
0
LINE
8
VIEW_HIDDEN
10
59.633953
20
157.080392
30
0.0
11
59.528963
21
157.406657
31
0.0
0
LINE
8
VIEW_HIDDEN
10
59.528963
20
157.406657
30
0.0
11
59.500776
21
157.748237
31
0.0
0
LINE
8
VIEW_HIDDEN
10
59.500776
20
157.748237
30
0.0
11
59.550863
21
158.087299
31
0.0
0
LINE
8
VIEW_HIDDEN
10
59.550863
20
158.087299
30
0.0
11
59.676608
21
158.406140
31
0.0
0
LINE
8
VIEW_HIDDEN
10
59.676608
20
158.406140
30
0.0
11
59.871447
21
158.688114
31
0.0
0
LINE
8
VIEW_HIDDEN
10
59.871447
20
158.688114
30
0.0
11
60.125208
21
158.918499
31
0.0
0
LINE
8
VIEW_HIDDEN
10
60.125208
20
158.918499
30
0.0
11
60.424641
21
159.085266
31
0.0
0
LINE
8
VIEW_HIDDEN
10
60.424641
20
159.085266
30
0.0
11
60.754113
21
159.179710
31
0.0
0
LINE
8
VIEW_HIDDEN
10
60.754113
20
159.179710
30
0.0
11
61.096423
21
159.196898
31
0.0
0
LINE
8
VIEW_HIDDEN
10
61.096423
20
159.196898
30
0.0
11
61.433699
21
159.135934
31
0.0
0
LINE
8
VIEW_HIDDEN
10
61.433699
20
159.135934
30
0.0
11
61.748332
21
159.000000
31
0.0
0
LINE
8
VIEW_HIDDEN
10
61.000000
20
155.800000
30
0.0
11
61.000000
21
156.200000
31
0.0
0
LINE
8
VIEW_HIDDEN
10
116.748332
20
153.000000
30
0.0
11
116.433699
21
152.864067
31
0.0
0
LINE
8
VIEW_HIDDEN
10
116.433699
20
152.864067
30
0.0
11
116.096423
21
152.803103
31
0.0
0
LINE
8
VIEW_HIDDEN
10
116.096423
20
152.803103
30
0.0
11
115.754113
21
152.820291
31
0.0
0
LINE
8
VIEW_HIDDEN
10
115.754113
20
152.820291
30
0.0
11
115.424641
21
152.914734
31
0.0
0
LINE
8
VIEW_HIDDEN
10
115.424641
20
152.914734
30
0.0
11
115.125208
21
153.081502
31
0.0
0
LINE
8
VIEW_HIDDEN
10
115.125208
20
153.081502
30
0.0
11
114.871447
21
153.311887
31
0.0
0
LINE
8
VIEW_HIDDEN
10
114.871447
20
153.311887
30
0.0
11
114.676608
21
153.593861
31
0.0
0
LINE
8
VIEW_HIDDEN
10
114.676608
20
153.593861
30
0.0
11
114.550863
21
153.912702
31
0.0
0
LINE
8
VIEW_HIDDEN
10
114.550863
20
153.912702
30
0.0
11
114.500776
21
154.251764
31
0.0
0
LINE
8
VIEW_HIDDEN
10
114.500776
20
154.251764
30
0.0
11
114.528963
21
154.593344
31
0.0
0
LINE
8
VIEW_HIDDEN
10
114.528963
20
154.593344
30
0.0
11
114.633953
21
154.919609
31
0.0
0
LINE
8
VIEW_HIDDEN
10
114.633953
20
154.919609
30
0.0
11
114.810263
21
155.213524
31
0.0
0
LINE
8
VIEW_HIDDEN
10
114.810263
20
155.213524
30
0.0
11
115.048690
21
155.459745
31
0.0
0
LINE
8
VIEW_HIDDEN
10
115.048690
20
155.459745
30
0.0
11
115.336783
21
155.645416
31
0.0
0
LINE
8
VIEW_HIDDEN
10
115.336783
20
155.645416
30
0.0
11
115.659503
21
155.760843
31
0.0
0
LINE
8
VIEW_HIDDEN
10
115.659503
20
155.760843
30
0.0
11
116.000000
21
155.800000
31
0.0
0
LINE
8
VIEW_HIDDEN
10
140.251669
20
153.000000
30
0.0
11
116.748332
21
153.000000
31
0.0
0
LINE
8
VIEW_HIDDEN
10
141.000000
20
155.800000
30
0.0
11
141.340497
21
155.760843
31
0.0
0
LINE
8
VIEW_HIDDEN
10
141.340497
20
155.760843
30
0.0
11
141.663217
21
155.645416
31
0.0
0
LINE
8
VIEW_HIDDEN
10
141.663217
20
155.645416
30
0.0
11
141.951311
21
155.459745
31
0.0
0
LINE
8
VIEW_HIDDEN
10
141.951311
20
155.459745
30
0.0
11
142.189737
21
155.213524
31
0.0
0
LINE
8
VIEW_HIDDEN
10
142.189737
20
155.213524
30
0.0
11
142.366048
21
154.919609
31
0.0
0
LINE
8
VIEW_HIDDEN
10
142.366048
20
154.919609
30
0.0
11
142.471037
21
154.593344
31
0.0
0
LINE
8
VIEW_HIDDEN
10
142.471037
20
154.593344
30
0.0
11
142.499225
21
154.251764
31
0.0
0
LINE
8
VIEW_HIDDEN
10
142.499225
20
154.251764
30
0.0
11
142.449138
21
153.912702
31
0.0
0
LINE
8
VIEW_HIDDEN
10
142.449138
20
153.912702
30
0.0
11
142.323393
21
153.593861
31
0.0
0
LINE
8
VIEW_HIDDEN
10
142.323393
20
153.593861
30
0.0
11
142.128553
21
153.311887
31
0.0
0
LINE
8
VIEW_HIDDEN
10
142.128553
20
153.311887
30
0.0
11
141.874793
21
153.081502
31
0.0
0
LINE
8
VIEW_HIDDEN
10
141.874793
20
153.081502
30
0.0
11
141.575360
21
152.914734
31
0.0
0
LINE
8
VIEW_HIDDEN
10
141.575360
20
152.914734
30
0.0
11
141.245887
21
152.820291
31
0.0
0
LINE
8
VIEW_HIDDEN
10
141.245887
20
152.820291
30
0.0
11
140.903577
21
152.803103
31
0.0
0
LINE
8
VIEW_HIDDEN
10
140.903577
20
152.803103
30
0.0
11
140.566301
21
152.864067
31
0.0
0
LINE
8
VIEW_HIDDEN
10
140.566301
20
152.864067
30
0.0
11
140.251669
21
153.000000
31
0.0
0
LINE
8
VIEW_HIDDEN
10
141.000000
20
156.200000
30
0.0
11
141.000000
21
155.800000
31
0.0
0
LINE
8
VIEW_HIDDEN
10
140.251669
20
159.000000
30
0.0
11
140.566301
21
159.135934
31
0.0
0
LINE
8
VIEW_HIDDEN
10
140.566301
20
159.135934
30
0.0
11
140.903577
21
159.196898
31
0.0
0
LINE
8
VIEW_HIDDEN
10
140.903577
20
159.196898
30
0.0
11
141.245887
21
159.179710
31
0.0
0
LINE
8
VIEW_HIDDEN
10
141.245887
20
159.179710
30
0.0
11
141.575360
21
159.085266
31
0.0
0
LINE
8
VIEW_HIDDEN
10
141.575360
20
159.085266
30
0.0
11
141.874793
21
158.918499
31
0.0
0
LINE
8
VIEW_HIDDEN
10
141.874793
20
158.918499
30
0.0
11
142.128553
21
158.688114
31
0.0
0
LINE
8
VIEW_HIDDEN
10
142.128553
20
158.688114
30
0.0
11
142.323393
21
158.406140
31
0.0
0
LINE
8
VIEW_HIDDEN
10
142.323393
20
158.406140
30
0.0
11
142.449138
21
158.087299
31
0.0
0
LINE
8
VIEW_HIDDEN
10
142.449138
20
158.087299
30
0.0
11
142.499225
21
157.748237
31
0.0
0
LINE
8
VIEW_HIDDEN
10
142.499225
20
157.748237
30
0.0
11
142.471037
21
157.406657
31
0.0
0
LINE
8
VIEW_HIDDEN
10
142.471037
20
157.406657
30
0.0
11
142.366048
21
157.080392
31
0.0
0
LINE
8
VIEW_HIDDEN
10
142.366048
20
157.080392
30
0.0
11
142.189737
21
156.786476
31
0.0
0
LINE
8
VIEW_HIDDEN
10
142.189737
20
156.786476
30
0.0
11
141.951311
21
156.540256
31
0.0
0
LINE
8
VIEW_HIDDEN
10
141.951311
20
156.540256
30
0.0
11
141.663217
21
156.354585
31
0.0
0
LINE
8
VIEW_HIDDEN
10
141.663217
20
156.354585
30
0.0
11
141.340497
21
156.239158
31
0.0
0
LINE
8
VIEW_HIDDEN
10
141.340497
20
156.239158
30
0.0
11
141.000000
21
156.200000
31
0.0
0
LINE
8
VIEW_HIDDEN
10
116.748332
20
159.000000
30
0.0
11
140.251669
21
159.000000
31
0.0
0
LINE
8
VIEW_HIDDEN
10
116.000000
20
156.200000
30
0.0
11
115.659503
21
156.239158
31
0.0
0
LINE
8
VIEW_HIDDEN
10
115.659503
20
156.239158
30
0.0
11
115.336783
21
156.354585
31
0.0
0
LINE
8
VIEW_HIDDEN
10
115.336783
20
156.354585
30
0.0
11
115.048690
21
156.540256
31
0.0
0
LINE
8
VIEW_HIDDEN
10
115.048690
20
156.540256
30
0.0
11
114.810263
21
156.786476
31
0.0
0
LINE
8
VIEW_HIDDEN
10
114.810263
20
156.786476
30
0.0
11
114.633953
21
157.080392
31
0.0
0
LINE
8
VIEW_HIDDEN
10
114.633953
20
157.080392
30
0.0
11
114.528963
21
157.406657
31
0.0
0
LINE
8
VIEW_HIDDEN
10
114.528963
20
157.406657
30
0.0
11
114.500776
21
157.748237
31
0.0
0
LINE
8
VIEW_HIDDEN
10
114.500776
20
157.748237
30
0.0
11
114.550863
21
158.087299
31
0.0
0
LINE
8
VIEW_HIDDEN
10
114.550863
20
158.087299
30
0.0
11
114.676608
21
158.406140
31
0.0
0
LINE
8
VIEW_HIDDEN
10
114.676608
20
158.406140
30
0.0
11
114.871447
21
158.688114
31
0.0
0
LINE
8
VIEW_HIDDEN
10
114.871447
20
158.688114
30
0.0
11
115.125208
21
158.918499
31
0.0
0
LINE
8
VIEW_HIDDEN
10
115.125208
20
158.918499
30
0.0
11
115.424641
21
159.085266
31
0.0
0
LINE
8
VIEW_HIDDEN
10
115.424641
20
159.085266
30
0.0
11
115.754113
21
159.179710
31
0.0
0
LINE
8
VIEW_HIDDEN
10
115.754113
20
159.179710
30
0.0
11
116.096423
21
159.196898
31
0.0
0
LINE
8
VIEW_HIDDEN
10
116.096423
20
159.196898
30
0.0
11
116.433699
21
159.135934
31
0.0
0
LINE
8
VIEW_HIDDEN
10
116.433699
20
159.135934
30
0.0
11
116.748332
21
159.000000
31
0.0
0
LINE
8
VIEW_HIDDEN
10
116.000000
20
155.800000
30
0.0
11
116.000000
21
156.200000
31
0.0
0
LINE
8
VIEW_VISIBLE
10
32.000000
20
124.000000
30
0.0
11
26.000000
21
124.000000
31
0.0
0
LINE
8
VIEW_VISIBLE
10
170.000000
20
124.000000
30
0.0
11
32.000000
21
124.000000
31
0.0
0
LINE
8
VIEW_VISIBLE
10
176.000000
20
124.000000
30
0.0
11
170.000000
21
124.000000
31
0.0
0
LINE
8
VIEW_VISIBLE
10
32.000000
20
118.000000
30
0.0
11
26.000000
21
118.000000
31
0.0
0
LINE
8
VIEW_VISIBLE
10
170.000000
20
118.000000
30
0.0
11
32.000000
21
118.000000
31
0.0
0
LINE
8
VIEW_VISIBLE
10
176.000000
20
118.000000
30
0.0
11
170.000000
21
118.000000
31
0.0
0
LINE
8
VIEW_VISIBLE
10
26.000000
20
124.000000
30
0.0
11
26.000000
21
118.000000
31
0.0
0
LINE
8
VIEW_VISIBLE
10
32.000000
20
124.000000
30
0.0
11
32.000000
21
118.000000
31
0.0
0
LINE
8
VIEW_VISIBLE
10
176.000000
20
124.000000
30
0.0
11
176.000000
21
118.000000
31
0.0
0
LINE
8
VIEW_VISIBLE
10
170.000000
20
124.000000
30
0.0
11
170.000000
21
118.000000
31
0.0
0
LINE
8
VIEW_HIDDEN
10
32.000000
20
124.000000
30
0.0
11
32.000000
21
118.000000
31
0.0
0
LINE
8
VIEW_HIDDEN
10
32.000000
20
124.000000
30
0.0
11
32.000000
21
118.000000
31
0.0
0
LINE
8
VIEW_HIDDEN
10
26.000000
20
124.000000
30
0.0
11
26.000000
21
118.000000
31
0.0
0
LINE
8
VIEW_HIDDEN
10
26.000000
20
118.000000
30
0.0
11
32.000000
21
118.000000
31
0.0
0
LINE
8
VIEW_HIDDEN
10
26.000000
20
124.000000
30
0.0
11
32.000000
21
124.000000
31
0.0
0
LINE
8
VIEW_HIDDEN
10
32.000000
20
118.000000
30
0.0
11
170.000000
21
118.000000
31
0.0
0
LINE
8
VIEW_HIDDEN
10
170.000000
20
124.000000
30
0.0
11
170.000000
21
118.000000
31
0.0
0
LINE
8
VIEW_HIDDEN
10
32.000000
20
124.000000
30
0.0
11
170.000000
21
124.000000
31
0.0
0
LINE
8
VIEW_HIDDEN
10
32.000000
20
124.000000
30
0.0
11
26.000000
21
124.000000
31
0.0
0
LINE
8
VIEW_HIDDEN
10
170.000000
20
124.000000
30
0.0
11
176.000000
21
124.000000
31
0.0
0
LINE
8
VIEW_HIDDEN
10
26.000000
20
124.000000
30
0.0
11
32.000000
21
124.000000
31
0.0
0
LINE
8
VIEW_HIDDEN
10
176.000000
20
124.000000
30
0.0
11
170.000000
21
124.000000
31
0.0
0
LINE
8
VIEW_HIDDEN
10
170.000000
20
124.000000
30
0.0
11
176.000000
21
124.000000
31
0.0
0
LINE
8
VIEW_HIDDEN
10
61.748332
20
124.000000
30
0.0
11
61.546347
21
124.000000
31
0.0
0
LINE
8
VIEW_HIDDEN
10
61.546347
20
124.000000
30
0.0
11
61.332172
21
124.000000
31
0.0
0
LINE
8
VIEW_HIDDEN
10
61.332172
20
124.000000
30
0.0
11
61.110586
21
124.000000
31
0.0
0
LINE
8
VIEW_HIDDEN
10
61.110586
20
124.000000
30
0.0
11
60.886533
21
124.000000
31
0.0
0
LINE
8
VIEW_HIDDEN
10
60.886533
20
124.000000
30
0.0
11
60.665012
21
124.000000
31
0.0
0
LINE
8
VIEW_HIDDEN
10
60.665012
20
124.000000
30
0.0
11
60.450964
21
124.000000
31
0.0
0
LINE
8
VIEW_HIDDEN
10
60.450964
20
124.000000
30
0.0
11
60.249167
21
124.000000
31
0.0
0
LINE
8
VIEW_HIDDEN
10
60.249167
20
124.000000
30
0.0
11
60.064120
21
124.000000
31
0.0
0
LINE
8
VIEW_HIDDEN
10
60.064120
20
124.000000
30
0.0
11
59.899955
21
124.000000
31
0.0
0
LINE
8
VIEW_HIDDEN
10
59.899955
20
124.000000
30
0.0
11
59.760332
21
124.000000
31
0.0
0
LINE
8
VIEW_HIDDEN
10
59.760332
20
124.000000
30
0.0
11
59.648368
21
124.000000
31
0.0
0
LINE
8
VIEW_HIDDEN
10
59.648368
20
124.000000
30
0.0
11
59.566560
21
124.000000
31
0.0
0
LINE
8
VIEW_HIDDEN
10
59.566560
20
124.000000
30
0.0
11
59.516734
21
124.000000
31
0.0
0
LINE
8
VIEW_HIDDEN
10
59.516734
20
124.000000
30
0.0
11
59.500000
21
124.000000
31
0.0
0
LINE
8
VIEW_HIDDEN
10
59.500000
20
124.000000
30
0.0
11
59.509432
21
124.000000
31
0.0
0
LINE
8
VIEW_HIDDEN
10
59.509432
20
124.000000
30
0.0
11
59.537608
21
124.000000
31
0.0
0
LINE
8
VIEW_HIDDEN
10
59.537608
20
124.000000
30
0.0
11
59.584175
21
124.000000
31
0.0
0
LINE
8
VIEW_HIDDEN
10
59.584175
20
124.000000
30
0.0
11
59.648547
21
124.000000
31
0.0
0
LINE
8
VIEW_HIDDEN
10
59.648547
20
124.000000
30
0.0
11
59.729914
21
124.000000
31
0.0
0
LINE
8
VIEW_HIDDEN
10
59.729914
20
124.000000
30
0.0
11
59.827253
21
124.000000
31
0.0
0
LINE
8
VIEW_HIDDEN
10
59.827253
20
124.000000
30
0.0
11
59.939340
21
124.000000
31
0.0
0
LINE
8
VIEW_HIDDEN
10
59.939340
20
124.000000
30
0.0
11
60.064766
21
124.000000
31
0.0
0
LINE
8
VIEW_HIDDEN
10
60.064766
20
124.000000
30
0.0
11
60.201952
21
124.000000
31
0.0
0
LINE
8
VIEW_HIDDEN
10
60.201952
20
124.000000
30
0.0
11
60.349175
21
124.000000
31
0.0
0
LINE
8
VIEW_HIDDEN
10
60.349175
20
124.000000
30
0.0
11
60.504582
21
124.000000
31
0.0
0
LINE
8
VIEW_HIDDEN
10
60.504582
20
124.000000
30
0.0
11
60.666219
21
124.000000
31
0.0
0
LINE
8
VIEW_HIDDEN
10
60.666219
20
124.000000
30
0.0
11
60.832054
21
124.000000
31
0.0
0
LINE
8
VIEW_HIDDEN
10
60.832054
20
124.000000
30
0.0
11
61.000000
21
124.000000
31
0.0
0
LINE
8
VIEW_HIDDEN
10
85.251669
20
124.000000
30
0.0
11
61.748332
21
124.000000
31
0.0
0
LINE
8
VIEW_HIDDEN
10
86.000000
20
124.000000
30
0.0
11
86.167947
21
124.000000
31
0.0
0
LINE
8
VIEW_HIDDEN
10
86.167947
20
124.000000
30
0.0
11
86.333782
21
124.000000
31
0.0
0
LINE
8
VIEW_HIDDEN
10
86.333782
20
124.000000
30
0.0
11
86.495419
21
124.000000
31
0.0
0
LINE
8
VIEW_HIDDEN
10
86.495419
20
124.000000
30
0.0
11
86.650826
21
124.000000
31
0.0
0
LINE
8
VIEW_HIDDEN
10
86.650826
20
124.000000
30
0.0
11
86.798048
21
124.000000
31
0.0
0
LINE
8
VIEW_HIDDEN
10
86.798048
20
124.000000
30
0.0
11
86.935235
21
124.000000
31
0.0
0
LINE
8
VIEW_HIDDEN
10
86.935235
20
124.000000
30
0.0
11
87.060660
21
124.000000
31
0.0
0
LINE
8
VIEW_HIDDEN
10
87.060660
20
124.000000
30
0.0
11
87.172748
21
124.000000
31
0.0
0
LINE
8
VIEW_HIDDEN
10
87.172748
20
124.000000
30
0.0
11
87.270087
21
124.000000
31
0.0
0
LINE
8
VIEW_HIDDEN
10
87.270087
20
124.000000
30
0.0
11
87.351454
21
124.000000
31
0.0
0
LINE
8
VIEW_HIDDEN
10
87.351454
20
124.000000
30
0.0
11
87.415825
21
124.000000
31
0.0
0
LINE
8
VIEW_HIDDEN
10
87.415825
20
124.000000
30
0.0
11
87.462392
21
124.000000
31
0.0
0
LINE
8
VIEW_HIDDEN
10
87.462392
20
124.000000
30
0.0
11
87.490569
21
124.000000
31
0.0
0
LINE
8
VIEW_HIDDEN
10
87.490569
20
124.000000
30
0.0
11
87.500000
21
124.000000
31
0.0
0
LINE
8
VIEW_HIDDEN
10
87.500000
20
124.000000
30
0.0
11
87.483267
21
124.000000
31
0.0
0
LINE
8
VIEW_HIDDEN
10
87.483267
20
124.000000
30
0.0
11
87.433441
21
124.000000
31
0.0
0
LINE
8
VIEW_HIDDEN
10
87.433441
20
124.000000
30
0.0
11
87.351633
21
124.000000
31
0.0
0
LINE
8
VIEW_HIDDEN
10
87.351633
20
124.000000
30
0.0
11
87.239668
21
124.000000
31
0.0
0
LINE
8
VIEW_HIDDEN
10
87.239668
20
124.000000
30
0.0
11
87.100046
21
124.000000
31
0.0
0
LINE
8
VIEW_HIDDEN
10
87.100046
20
124.000000
30
0.0
11
86.935880
21
124.000000
31
0.0
0
LINE
8
VIEW_HIDDEN
10
86.935880
20
124.000000
30
0.0
11
86.750834
21
124.000000
31
0.0
0
LINE
8
VIEW_HIDDEN
10
86.750834
20
124.000000
30
0.0
11
86.549036
21
124.000000
31
0.0
0
LINE
8
VIEW_HIDDEN
10
86.549036
20
124.000000
30
0.0
11
86.334989
21
124.000000
31
0.0
0
LINE
8
VIEW_HIDDEN
10
86.334989
20
124.000000
30
0.0
11
86.113467
21
124.000000
31
0.0
0
LINE
8
VIEW_HIDDEN
10
86.113467
20
124.000000
30
0.0
11
85.889414
21
124.000000
31
0.0
0
LINE
8
VIEW_HIDDEN
10
85.889414
20
124.000000
30
0.0
11
85.667829
21
124.000000
31
0.0
0
LINE
8
VIEW_HIDDEN
10
85.667829
20
124.000000
30
0.0
11
85.453654
21
124.000000
31
0.0
0
LINE
8
VIEW_HIDDEN
10
85.453654
20
124.000000
30
0.0
11
85.251669
21
124.000000
31
0.0
0
LINE
8
VIEW_HIDDEN
10
85.251669
20
124.000000
30
0.0
11
85.453654
21
124.000000
31
0.0
0
LINE
8
VIEW_HIDDEN
10
85.453654
20
124.000000
30
0.0
11
85.667829
21
124.000000
31
0.0
0
LINE
8
VIEW_HIDDEN
10
85.667829
20
124.000000
30
0.0
11
85.889414
21
124.000000
31
0.0
0
LINE
8
VIEW_HIDDEN
10
85.889414
20
124.000000
30
0.0
11
86.113467
21
124.000000
31
0.0
0
LINE
8
VIEW_HIDDEN
10
86.113467
20
124.000000
30
0.0
11
86.334989
21
124.000000
31
0.0
0
LINE
8
VIEW_HIDDEN
10
86.334989
20
124.000000
30
0.0
11
86.549036
21
124.000000
31
0.0
0
LINE
8
VIEW_HIDDEN
10
86.549036
20
124.000000
30
0.0
11
86.750834
21
124.000000
31
0.0
0
LINE
8
VIEW_HIDDEN
10
86.750834
20
124.000000
30
0.0
11
86.935880
21
124.000000
31
0.0
0
LINE
8
VIEW_HIDDEN
10
86.935880
20
124.000000
30
0.0
11
87.100046
21
124.000000
31
0.0
0
LINE
8
VIEW_HIDDEN
10
87.100046
20
124.000000
30
0.0
11
87.239668
21
124.000000
31
0.0
0
LINE
8
VIEW_HIDDEN
10
87.239668
20
124.000000
30
0.0
11
87.351633
21
124.000000
31
0.0
0
LINE
8
VIEW_HIDDEN
10
87.351633
20
124.000000
30
0.0
11
87.433441
21
124.000000
31
0.0
0
LINE
8
VIEW_HIDDEN
10
87.433441
20
124.000000
30
0.0
11
87.483267
21
124.000000
31
0.0
0
LINE
8
VIEW_HIDDEN
10
87.483267
20
124.000000
30
0.0
11
87.500000
21
124.000000
31
0.0
0
LINE
8
VIEW_HIDDEN
10
87.500000
20
124.000000
30
0.0
11
87.490569
21
124.000000
31
0.0
0
LINE
8
VIEW_HIDDEN
10
87.490569
20
124.000000
30
0.0
11
87.462392
21
124.000000
31
0.0
0
LINE
8
VIEW_HIDDEN
10
87.462392
20
124.000000
30
0.0
11
87.415825
21
124.000000
31
0.0
0
LINE
8
VIEW_HIDDEN
10
87.415825
20
124.000000
30
0.0
11
87.351454
21
124.000000
31
0.0
0
LINE
8
VIEW_HIDDEN
10
87.351454
20
124.000000
30
0.0
11
87.270087
21
124.000000
31
0.0
0
LINE
8
VIEW_HIDDEN
10
87.270087
20
124.000000
30
0.0
11
87.172748
21
124.000000
31
0.0
0
LINE
8
VIEW_HIDDEN
10
87.172748
20
124.000000
30
0.0
11
87.060660
21
124.000000
31
0.0
0
LINE
8
VIEW_HIDDEN
10
87.060660
20
124.000000
30
0.0
11
86.935235
21
124.000000
31
0.0
0
LINE
8
VIEW_HIDDEN
10
86.935235
20
124.000000
30
0.0
11
86.798048
21
124.000000
31
0.0
0
LINE
8
VIEW_HIDDEN
10
86.798048
20
124.000000
30
0.0
11
86.650826
21
124.000000
31
0.0
0
LINE
8
VIEW_HIDDEN
10
86.650826
20
124.000000
30
0.0
11
86.495419
21
124.000000
31
0.0
0
LINE
8
VIEW_HIDDEN
10
86.495419
20
124.000000
30
0.0
11
86.333782
21
124.000000
31
0.0
0
LINE
8
VIEW_HIDDEN
10
86.333782
20
124.000000
30
0.0
11
86.167947
21
124.000000
31
0.0
0
LINE
8
VIEW_HIDDEN
10
86.167947
20
124.000000
30
0.0
11
86.000000
21
124.000000
31
0.0
0
LINE
8
VIEW_HIDDEN
10
61.748332
20
124.000000
30
0.0
11
85.251669
21
124.000000
31
0.0
0
LINE
8
VIEW_HIDDEN
10
61.000000
20
124.000000
30
0.0
11
60.832054
21
124.000000
31
0.0
0
LINE
8
VIEW_HIDDEN
10
60.832054
20
124.000000
30
0.0
11
60.666219
21
124.000000
31
0.0
0
LINE
8
VIEW_HIDDEN
10
60.666219
20
124.000000
30
0.0
11
60.504582
21
124.000000
31
0.0
0
LINE
8
VIEW_HIDDEN
10
60.504582
20
124.000000
30
0.0
11
60.349175
21
124.000000
31
0.0
0
LINE
8
VIEW_HIDDEN
10
60.349175
20
124.000000
30
0.0
11
60.201952
21
124.000000
31
0.0
0
LINE
8
VIEW_HIDDEN
10
60.201952
20
124.000000
30
0.0
11
60.064766
21
124.000000
31
0.0
0
LINE
8
VIEW_HIDDEN
10
60.064766
20
124.000000
30
0.0
11
59.939340
21
124.000000
31
0.0
0
LINE
8
VIEW_HIDDEN
10
59.939340
20
124.000000
30
0.0
11
59.827253
21
124.000000
31
0.0
0
LINE
8
VIEW_HIDDEN
10
59.827253
20
124.000000
30
0.0
11
59.729914
21
124.000000
31
0.0
0
LINE
8
VIEW_HIDDEN
10
59.729914
20
124.000000
30
0.0
11
59.648547
21
124.000000
31
0.0
0
LINE
8
VIEW_HIDDEN
10
59.648547
20
124.000000
30
0.0
11
59.584175
21
124.000000
31
0.0
0
LINE
8
VIEW_HIDDEN
10
59.584175
20
124.000000
30
0.0
11
59.537608
21
124.000000
31
0.0
0
LINE
8
VIEW_HIDDEN
10
59.537608
20
124.000000
30
0.0
11
59.509432
21
124.000000
31
0.0
0
LINE
8
VIEW_HIDDEN
10
59.509432
20
124.000000
30
0.0
11
59.500000
21
124.000000
31
0.0
0
LINE
8
VIEW_HIDDEN
10
59.500000
20
124.000000
30
0.0
11
59.516734
21
124.000000
31
0.0
0
LINE
8
VIEW_HIDDEN
10
59.516734
20
124.000000
30
0.0
11
59.566560
21
124.000000
31
0.0
0
LINE
8
VIEW_HIDDEN
10
59.566560
20
124.000000
30
0.0
11
59.648368
21
124.000000
31
0.0
0
LINE
8
VIEW_HIDDEN
10
59.648368
20
124.000000
30
0.0
11
59.760332
21
124.000000
31
0.0
0
LINE
8
VIEW_HIDDEN
10
59.760332
20
124.000000
30
0.0
11
59.899955
21
124.000000
31
0.0
0
LINE
8
VIEW_HIDDEN
10
59.899955
20
124.000000
30
0.0
11
60.064120
21
124.000000
31
0.0
0
LINE
8
VIEW_HIDDEN
10
60.064120
20
124.000000
30
0.0
11
60.249167
21
124.000000
31
0.0
0
LINE
8
VIEW_HIDDEN
10
60.249167
20
124.000000
30
0.0
11
60.450964
21
124.000000
31
0.0
0
LINE
8
VIEW_HIDDEN
10
60.450964
20
124.000000
30
0.0
11
60.665012
21
124.000000
31
0.0
0
LINE
8
VIEW_HIDDEN
10
60.665012
20
124.000000
30
0.0
11
60.886533
21
124.000000
31
0.0
0
LINE
8
VIEW_HIDDEN
10
60.886533
20
124.000000
30
0.0
11
61.110586
21
124.000000
31
0.0
0
LINE
8
VIEW_HIDDEN
10
61.110586
20
124.000000
30
0.0
11
61.332172
21
124.000000
31
0.0
0
LINE
8
VIEW_HIDDEN
10
61.332172
20
124.000000
30
0.0
11
61.546347
21
124.000000
31
0.0
0
LINE
8
VIEW_HIDDEN
10
61.546347
20
124.000000
30
0.0
11
61.748332
21
124.000000
31
0.0
0
LINE
8
VIEW_HIDDEN
10
116.748332
20
124.000000
30
0.0
11
116.546347
21
124.000000
31
0.0
0
LINE
8
VIEW_HIDDEN
10
116.546347
20
124.000000
30
0.0
11
116.332172
21
124.000000
31
0.0
0
LINE
8
VIEW_HIDDEN
10
116.332172
20
124.000000
30
0.0
11
116.110586
21
124.000000
31
0.0
0
LINE
8
VIEW_HIDDEN
10
116.110586
20
124.000000
30
0.0
11
115.886533
21
124.000000
31
0.0
0
LINE
8
VIEW_HIDDEN
10
115.886533
20
124.000000
30
0.0
11
115.665012
21
124.000000
31
0.0
0
LINE
8
VIEW_HIDDEN
10
115.665012
20
124.000000
30
0.0
11
115.450964
21
124.000000
31
0.0
0
LINE
8
VIEW_HIDDEN
10
115.450964
20
124.000000
30
0.0
11
115.249167
21
124.000000
31
0.0
0
LINE
8
VIEW_HIDDEN
10
115.249167
20
124.000000
30
0.0
11
115.064120
21
124.000000
31
0.0
0
LINE
8
VIEW_HIDDEN
10
115.064120
20
124.000000
30
0.0
11
114.899955
21
124.000000
31
0.0
0
LINE
8
VIEW_HIDDEN
10
114.899955
20
124.000000
30
0.0
11
114.760332
21
124.000000
31
0.0
0
LINE
8
VIEW_HIDDEN
10
114.760332
20
124.000000
30
0.0
11
114.648368
21
124.000000
31
0.0
0
LINE
8
VIEW_HIDDEN
10
114.648368
20
124.000000
30
0.0
11
114.566560
21
124.000000
31
0.0
0
LINE
8
VIEW_HIDDEN
10
114.566560
20
124.000000
30
0.0
11
114.516734
21
124.000000
31
0.0
0
LINE
8
VIEW_HIDDEN
10
114.516734
20
124.000000
30
0.0
11
114.500000
21
124.000000
31
0.0
0
LINE
8
VIEW_HIDDEN
10
114.500000
20
124.000000
30
0.0
11
114.509432
21
124.000000
31
0.0
0
LINE
8
VIEW_HIDDEN
10
114.509432
20
124.000000
30
0.0
11
114.537608
21
124.000000
31
0.0
0
LINE
8
VIEW_HIDDEN
10
114.537608
20
124.000000
30
0.0
11
114.584175
21
124.000000
31
0.0
0
LINE
8
VIEW_HIDDEN
10
114.584175
20
124.000000
30
0.0
11
114.648547
21
124.000000
31
0.0
0
LINE
8
VIEW_HIDDEN
10
114.648547
20
124.000000
30
0.0
11
114.729914
21
124.000000
31
0.0
0
LINE
8
VIEW_HIDDEN
10
114.729914
20
124.000000
30
0.0
11
114.827253
21
124.000000
31
0.0
0
LINE
8
VIEW_HIDDEN
10
114.827253
20
124.000000
30
0.0
11
114.939340
21
124.000000
31
0.0
0
LINE
8
VIEW_HIDDEN
10
114.939340
20
124.000000
30
0.0
11
115.064766
21
124.000000
31
0.0
0
LINE
8
VIEW_HIDDEN
10
115.064766
20
124.000000
30
0.0
11
115.201952
21
124.000000
31
0.0
0
LINE
8
VIEW_HIDDEN
10
115.201952
20
124.000000
30
0.0
11
115.349175
21
124.000000
31
0.0
0
LINE
8
VIEW_HIDDEN
10
115.349175
20
124.000000
30
0.0
11
115.504582
21
124.000000
31
0.0
0
LINE
8
VIEW_HIDDEN
10
115.504582
20
124.000000
30
0.0
11
115.666219
21
124.000000
31
0.0
0
LINE
8
VIEW_HIDDEN
10
115.666219
20
124.000000
30
0.0
11
115.832054
21
124.000000
31
0.0
0
LINE
8
VIEW_HIDDEN
10
115.832054
20
124.000000
30
0.0
11
116.000000
21
124.000000
31
0.0
0
LINE
8
VIEW_HIDDEN
10
140.251669
20
124.000000
30
0.0
11
116.748332
21
124.000000
31
0.0
0
LINE
8
VIEW_HIDDEN
10
141.000000
20
124.000000
30
0.0
11
141.167947
21
124.000000
31
0.0
0
LINE
8
VIEW_HIDDEN
10
141.167947
20
124.000000
30
0.0
11
141.333782
21
124.000000
31
0.0
0
LINE
8
VIEW_HIDDEN
10
141.333782
20
124.000000
30
0.0
11
141.495419
21
124.000000
31
0.0
0
LINE
8
VIEW_HIDDEN
10
141.495419
20
124.000000
30
0.0
11
141.650826
21
124.000000
31
0.0
0
LINE
8
VIEW_HIDDEN
10
141.650826
20
124.000000
30
0.0
11
141.798048
21
124.000000
31
0.0
0
LINE
8
VIEW_HIDDEN
10
141.798048
20
124.000000
30
0.0
11
141.935235
21
124.000000
31
0.0
0
LINE
8
VIEW_HIDDEN
10
141.935235
20
124.000000
30
0.0
11
142.060660
21
124.000000
31
0.0
0
LINE
8
VIEW_HIDDEN
10
142.060660
20
124.000000
30
0.0
11
142.172748
21
124.000000
31
0.0
0
LINE
8
VIEW_HIDDEN
10
142.172748
20
124.000000
30
0.0
11
142.270087
21
124.000000
31
0.0
0
LINE
8
VIEW_HIDDEN
10
142.270087
20
124.000000
30
0.0
11
142.351454
21
124.000000
31
0.0
0
LINE
8
VIEW_HIDDEN
10
142.351454
20
124.000000
30
0.0
11
142.415825
21
124.000000
31
0.0
0
LINE
8
VIEW_HIDDEN
10
142.415825
20
124.000000
30
0.0
11
142.462392
21
124.000000
31
0.0
0
LINE
8
VIEW_HIDDEN
10
142.462392
20
124.000000
30
0.0
11
142.490569
21
124.000000
31
0.0
0
LINE
8
VIEW_HIDDEN
10
142.490569
20
124.000000
30
0.0
11
142.500000
21
124.000000
31
0.0
0
LINE
8
VIEW_HIDDEN
10
142.500000
20
124.000000
30
0.0
11
142.483267
21
124.000000
31
0.0
0
LINE
8
VIEW_HIDDEN
10
142.483267
20
124.000000
30
0.0
11
142.433441
21
124.000000
31
0.0
0
LINE
8
VIEW_HIDDEN
10
142.433441
20
124.000000
30
0.0
11
142.351633
21
124.000000
31
0.0
0
LINE
8
VIEW_HIDDEN
10
142.351633
20
124.000000
30
0.0
11
142.239668
21
124.000000
31
0.0
0
LINE
8
VIEW_HIDDEN
10
142.239668
20
124.000000
30
0.0
11
142.100046
21
124.000000
31
0.0
0
LINE
8
VIEW_HIDDEN
10
142.100046
20
124.000000
30
0.0
11
141.935880
21
124.000000
31
0.0
0
LINE
8
VIEW_HIDDEN
10
141.935880
20
124.000000
30
0.0
11
141.750834
21
124.000000
31
0.0
0
LINE
8
VIEW_HIDDEN
10
141.750834
20
124.000000
30
0.0
11
141.549036
21
124.000000
31
0.0
0
LINE
8
VIEW_HIDDEN
10
141.549036
20
124.000000
30
0.0
11
141.334989
21
124.000000
31
0.0
0
LINE
8
VIEW_HIDDEN
10
141.334989
20
124.000000
30
0.0
11
141.113467
21
124.000000
31
0.0
0
LINE
8
VIEW_HIDDEN
10
141.113467
20
124.000000
30
0.0
11
140.889414
21
124.000000
31
0.0
0
LINE
8
VIEW_HIDDEN
10
140.889414
20
124.000000
30
0.0
11
140.667829
21
124.000000
31
0.0
0
LINE
8
VIEW_HIDDEN
10
140.667829
20
124.000000
30
0.0
11
140.453654
21
124.000000
31
0.0
0
LINE
8
VIEW_HIDDEN
10
140.453654
20
124.000000
30
0.0
11
140.251669
21
124.000000
31
0.0
0
LINE
8
VIEW_HIDDEN
10
140.251669
20
124.000000
30
0.0
11
140.453654
21
124.000000
31
0.0
0
LINE
8
VIEW_HIDDEN
10
140.453654
20
124.000000
30
0.0
11
140.667829
21
124.000000
31
0.0
0
LINE
8
VIEW_HIDDEN
10
140.667829
20
124.000000
30
0.0
11
140.889414
21
124.000000
31
0.0
0
LINE
8
VIEW_HIDDEN
10
140.889414
20
124.000000
30
0.0
11
141.113467
21
124.000000
31
0.0
0
LINE
8
VIEW_HIDDEN
10
141.113467
20
124.000000
30
0.0
11
141.334989
21
124.000000
31
0.0
0
LINE
8
VIEW_HIDDEN
10
141.334989
20
124.000000
30
0.0
11
141.549036
21
124.000000
31
0.0
0
LINE
8
VIEW_HIDDEN
10
141.549036
20
124.000000
30
0.0
11
141.750834
21
124.000000
31
0.0
0
LINE
8
VIEW_HIDDEN
10
141.750834
20
124.000000
30
0.0
11
141.935880
21
124.000000
31
0.0
0
LINE
8
VIEW_HIDDEN
10
141.935880
20
124.000000
30
0.0
11
142.100046
21
124.000000
31
0.0
0
LINE
8
VIEW_HIDDEN
10
142.100046
20
124.000000
30
0.0
11
142.239668
21
124.000000
31
0.0
0
LINE
8
VIEW_HIDDEN
10
142.239668
20
124.000000
30
0.0
11
142.351633
21
124.000000
31
0.0
0
LINE
8
VIEW_HIDDEN
10
142.351633
20
124.000000
30
0.0
11
142.433441
21
124.000000
31
0.0
0
LINE
8
VIEW_HIDDEN
10
142.433441
20
124.000000
30
0.0
11
142.483267
21
124.000000
31
0.0
0
LINE
8
VIEW_HIDDEN
10
142.483267
20
124.000000
30
0.0
11
142.500000
21
124.000000
31
0.0
0
LINE
8
VIEW_HIDDEN
10
142.500000
20
124.000000
30
0.0
11
142.490569
21
124.000000
31
0.0
0
LINE
8
VIEW_HIDDEN
10
142.490569
20
124.000000
30
0.0
11
142.462392
21
124.000000
31
0.0
0
LINE
8
VIEW_HIDDEN
10
142.462392
20
124.000000
30
0.0
11
142.415825
21
124.000000
31
0.0
0
LINE
8
VIEW_HIDDEN
10
142.415825
20
124.000000
30
0.0
11
142.351454
21
124.000000
31
0.0
0
LINE
8
VIEW_HIDDEN
10
142.351454
20
124.000000
30
0.0
11
142.270087
21
124.000000
31
0.0
0
LINE
8
VIEW_HIDDEN
10
142.270087
20
124.000000
30
0.0
11
142.172748
21
124.000000
31
0.0
0
LINE
8
VIEW_HIDDEN
10
142.172748
20
124.000000
30
0.0
11
142.060660
21
124.000000
31
0.0
0
LINE
8
VIEW_HIDDEN
10
142.060660
20
124.000000
30
0.0
11
141.935235
21
124.000000
31
0.0
0
LINE
8
VIEW_HIDDEN
10
141.935235
20
124.000000
30
0.0
11
141.798048
21
124.000000
31
0.0
0
LINE
8
VIEW_HIDDEN
10
141.798048
20
124.000000
30
0.0
11
141.650826
21
124.000000
31
0.0
0
LINE
8
VIEW_HIDDEN
10
141.650826
20
124.000000
30
0.0
11
141.495419
21
124.000000
31
0.0
0
LINE
8
VIEW_HIDDEN
10
141.495419
20
124.000000
30
0.0
11
141.333782
21
124.000000
31
0.0
0
LINE
8
VIEW_HIDDEN
10
141.333782
20
124.000000
30
0.0
11
141.167947
21
124.000000
31
0.0
0
LINE
8
VIEW_HIDDEN
10
141.167947
20
124.000000
30
0.0
11
141.000000
21
124.000000
31
0.0
0
LINE
8
VIEW_HIDDEN
10
116.748332
20
124.000000
30
0.0
11
140.251669
21
124.000000
31
0.0
0
LINE
8
VIEW_HIDDEN
10
116.000000
20
124.000000
30
0.0
11
115.832054
21
124.000000
31
0.0
0
LINE
8
VIEW_HIDDEN
10
115.832054
20
124.000000
30
0.0
11
115.666219
21
124.000000
31
0.0
0
LINE
8
VIEW_HIDDEN
10
115.666219
20
124.000000
30
0.0
11
115.504582
21
124.000000
31
0.0
0
LINE
8
VIEW_HIDDEN
10
115.504582
20
124.000000
30
0.0
11
115.349175
21
124.000000
31
0.0
0
LINE
8
VIEW_HIDDEN
10
115.349175
20
124.000000
30
0.0
11
115.201952
21
124.000000
31
0.0
0
LINE
8
VIEW_HIDDEN
10
115.201952
20
124.000000
30
0.0
11
115.064766
21
124.000000
31
0.0
0
LINE
8
VIEW_HIDDEN
10
115.064766
20
124.000000
30
0.0
11
114.939340
21
124.000000
31
0.0
0
LINE
8
VIEW_HIDDEN
10
114.939340
20
124.000000
30
0.0
11
114.827253
21
124.000000
31
0.0
0
LINE
8
VIEW_HIDDEN
10
114.827253
20
124.000000
30
0.0
11
114.729914
21
124.000000
31
0.0
0
LINE
8
VIEW_HIDDEN
10
114.729914
20
124.000000
30
0.0
11
114.648547
21
124.000000
31
0.0
0
LINE
8
VIEW_HIDDEN
10
114.648547
20
124.000000
30
0.0
11
114.584175
21
124.000000
31
0.0
0
LINE
8
VIEW_HIDDEN
10
114.584175
20
124.000000
30
0.0
11
114.537608
21
124.000000
31
0.0
0
LINE
8
VIEW_HIDDEN
10
114.537608
20
124.000000
30
0.0
11
114.509432
21
124.000000
31
0.0
0
LINE
8
VIEW_HIDDEN
10
114.509432
20
124.000000
30
0.0
11
114.500000
21
124.000000
31
0.0
0
LINE
8
VIEW_HIDDEN
10
114.500000
20
124.000000
30
0.0
11
114.516734
21
124.000000
31
0.0
0
LINE
8
VIEW_HIDDEN
10
114.516734
20
124.000000
30
0.0
11
114.566560
21
124.000000
31
0.0
0
LINE
8
VIEW_HIDDEN
10
114.566560
20
124.000000
30
0.0
11
114.648368
21
124.000000
31
0.0
0
LINE
8
VIEW_HIDDEN
10
114.648368
20
124.000000
30
0.0
11
114.760332
21
124.000000
31
0.0
0
LINE
8
VIEW_HIDDEN
10
114.760332
20
124.000000
30
0.0
11
114.899955
21
124.000000
31
0.0
0
LINE
8
VIEW_HIDDEN
10
114.899955
20
124.000000
30
0.0
11
115.064120
21
124.000000
31
0.0
0
LINE
8
VIEW_HIDDEN
10
115.064120
20
124.000000
30
0.0
11
115.249167
21
124.000000
31
0.0
0
LINE
8
VIEW_HIDDEN
10
115.249167
20
124.000000
30
0.0
11
115.450964
21
124.000000
31
0.0
0
LINE
8
VIEW_HIDDEN
10
115.450964
20
124.000000
30
0.0
11
115.665012
21
124.000000
31
0.0
0
LINE
8
VIEW_HIDDEN
10
115.665012
20
124.000000
30
0.0
11
115.886533
21
124.000000
31
0.0
0
LINE
8
VIEW_HIDDEN
10
115.886533
20
124.000000
30
0.0
11
116.110586
21
124.000000
31
0.0
0
LINE
8
VIEW_HIDDEN
10
116.110586
20
124.000000
30
0.0
11
116.332172
21
124.000000
31
0.0
0
LINE
8
VIEW_HIDDEN
10
116.332172
20
124.000000
30
0.0
11
116.546347
21
124.000000
31
0.0
0
LINE
8
VIEW_HIDDEN
10
116.546347
20
124.000000
30
0.0
11
116.748332
21
124.000000
31
0.0
0
LINE
8
VIEW_HIDDEN
10
32.000000
20
118.000000
30
0.0
11
26.000000
21
118.000000
31
0.0
0
LINE
8
VIEW_HIDDEN
10
170.000000
20
118.000000
30
0.0
11
176.000000
21
118.000000
31
0.0
0
LINE
8
VIEW_HIDDEN
10
26.000000
20
118.000000
30
0.0
11
32.000000
21
118.000000
31
0.0
0
LINE
8
VIEW_HIDDEN
10
176.000000
20
118.000000
30
0.0
11
170.000000
21
118.000000
31
0.0
0
LINE
8
VIEW_HIDDEN
10
170.000000
20
118.000000
30
0.0
11
176.000000
21
118.000000
31
0.0
0
LINE
8
VIEW_HIDDEN
10
61.748332
20
118.000000
30
0.0
11
61.546347
21
118.000000
31
0.0
0
LINE
8
VIEW_HIDDEN
10
61.546347
20
118.000000
30
0.0
11
61.332172
21
118.000000
31
0.0
0
LINE
8
VIEW_HIDDEN
10
61.332172
20
118.000000
30
0.0
11
61.110586
21
118.000000
31
0.0
0
LINE
8
VIEW_HIDDEN
10
61.110586
20
118.000000
30
0.0
11
60.886533
21
118.000000
31
0.0
0
LINE
8
VIEW_HIDDEN
10
60.886533
20
118.000000
30
0.0
11
60.665012
21
118.000000
31
0.0
0
LINE
8
VIEW_HIDDEN
10
60.665012
20
118.000000
30
0.0
11
60.450964
21
118.000000
31
0.0
0
LINE
8
VIEW_HIDDEN
10
60.450964
20
118.000000
30
0.0
11
60.249167
21
118.000000
31
0.0
0
LINE
8
VIEW_HIDDEN
10
60.249167
20
118.000000
30
0.0
11
60.064120
21
118.000000
31
0.0
0
LINE
8
VIEW_HIDDEN
10
60.064120
20
118.000000
30
0.0
11
59.899955
21
118.000000
31
0.0
0
LINE
8
VIEW_HIDDEN
10
59.899955
20
118.000000
30
0.0
11
59.760332
21
118.000000
31
0.0
0
LINE
8
VIEW_HIDDEN
10
59.760332
20
118.000000
30
0.0
11
59.648368
21
118.000000
31
0.0
0
LINE
8
VIEW_HIDDEN
10
59.648368
20
118.000000
30
0.0
11
59.566560
21
118.000000
31
0.0
0
LINE
8
VIEW_HIDDEN
10
59.566560
20
118.000000
30
0.0
11
59.516734
21
118.000000
31
0.0
0
LINE
8
VIEW_HIDDEN
10
59.516734
20
118.000000
30
0.0
11
59.500000
21
118.000000
31
0.0
0
LINE
8
VIEW_HIDDEN
10
59.500000
20
118.000000
30
0.0
11
59.509432
21
118.000000
31
0.0
0
LINE
8
VIEW_HIDDEN
10
59.509432
20
118.000000
30
0.0
11
59.537608
21
118.000000
31
0.0
0
LINE
8
VIEW_HIDDEN
10
59.537608
20
118.000000
30
0.0
11
59.584175
21
118.000000
31
0.0
0
LINE
8
VIEW_HIDDEN
10
59.584175
20
118.000000
30
0.0
11
59.648547
21
118.000000
31
0.0
0
LINE
8
VIEW_HIDDEN
10
59.648547
20
118.000000
30
0.0
11
59.729914
21
118.000000
31
0.0
0
LINE
8
VIEW_HIDDEN
10
59.729914
20
118.000000
30
0.0
11
59.827253
21
118.000000
31
0.0
0
LINE
8
VIEW_HIDDEN
10
59.827253
20
118.000000
30
0.0
11
59.939340
21
118.000000
31
0.0
0
LINE
8
VIEW_HIDDEN
10
59.939340
20
118.000000
30
0.0
11
60.064766
21
118.000000
31
0.0
0
LINE
8
VIEW_HIDDEN
10
60.064766
20
118.000000
30
0.0
11
60.201952
21
118.000000
31
0.0
0
LINE
8
VIEW_HIDDEN
10
60.201952
20
118.000000
30
0.0
11
60.349175
21
118.000000
31
0.0
0
LINE
8
VIEW_HIDDEN
10
60.349175
20
118.000000
30
0.0
11
60.504582
21
118.000000
31
0.0
0
LINE
8
VIEW_HIDDEN
10
60.504582
20
118.000000
30
0.0
11
60.666219
21
118.000000
31
0.0
0
LINE
8
VIEW_HIDDEN
10
60.666219
20
118.000000
30
0.0
11
60.832054
21
118.000000
31
0.0
0
LINE
8
VIEW_HIDDEN
10
60.832054
20
118.000000
30
0.0
11
61.000000
21
118.000000
31
0.0
0
LINE
8
VIEW_HIDDEN
10
85.251669
20
118.000000
30
0.0
11
61.748332
21
118.000000
31
0.0
0
LINE
8
VIEW_HIDDEN
10
86.000000
20
118.000000
30
0.0
11
86.167947
21
118.000000
31
0.0
0
LINE
8
VIEW_HIDDEN
10
86.167947
20
118.000000
30
0.0
11
86.333782
21
118.000000
31
0.0
0
LINE
8
VIEW_HIDDEN
10
86.333782
20
118.000000
30
0.0
11
86.495419
21
118.000000
31
0.0
0
LINE
8
VIEW_HIDDEN
10
86.495419
20
118.000000
30
0.0
11
86.650826
21
118.000000
31
0.0
0
LINE
8
VIEW_HIDDEN
10
86.650826
20
118.000000
30
0.0
11
86.798048
21
118.000000
31
0.0
0
LINE
8
VIEW_HIDDEN
10
86.798048
20
118.000000
30
0.0
11
86.935235
21
118.000000
31
0.0
0
LINE
8
VIEW_HIDDEN
10
86.935235
20
118.000000
30
0.0
11
87.060660
21
118.000000
31
0.0
0
LINE
8
VIEW_HIDDEN
10
87.060660
20
118.000000
30
0.0
11
87.172748
21
118.000000
31
0.0
0
LINE
8
VIEW_HIDDEN
10
87.172748
20
118.000000
30
0.0
11
87.270087
21
118.000000
31
0.0
0
LINE
8
VIEW_HIDDEN
10
87.270087
20
118.000000
30
0.0
11
87.351454
21
118.000000
31
0.0
0
LINE
8
VIEW_HIDDEN
10
87.351454
20
118.000000
30
0.0
11
87.415825
21
118.000000
31
0.0
0
LINE
8
VIEW_HIDDEN
10
87.415825
20
118.000000
30
0.0
11
87.462392
21
118.000000
31
0.0
0
LINE
8
VIEW_HIDDEN
10
87.462392
20
118.000000
30
0.0
11
87.490569
21
118.000000
31
0.0
0
LINE
8
VIEW_HIDDEN
10
87.490569
20
118.000000
30
0.0
11
87.500000
21
118.000000
31
0.0
0
LINE
8
VIEW_HIDDEN
10
87.500000
20
118.000000
30
0.0
11
87.483267
21
118.000000
31
0.0
0
LINE
8
VIEW_HIDDEN
10
87.483267
20
118.000000
30
0.0
11
87.433441
21
118.000000
31
0.0
0
LINE
8
VIEW_HIDDEN
10
87.433441
20
118.000000
30
0.0
11
87.351633
21
118.000000
31
0.0
0
LINE
8
VIEW_HIDDEN
10
87.351633
20
118.000000
30
0.0
11
87.239668
21
118.000000
31
0.0
0
LINE
8
VIEW_HIDDEN
10
87.239668
20
118.000000
30
0.0
11
87.100046
21
118.000000
31
0.0
0
LINE
8
VIEW_HIDDEN
10
87.100046
20
118.000000
30
0.0
11
86.935880
21
118.000000
31
0.0
0
LINE
8
VIEW_HIDDEN
10
86.935880
20
118.000000
30
0.0
11
86.750834
21
118.000000
31
0.0
0
LINE
8
VIEW_HIDDEN
10
86.750834
20
118.000000
30
0.0
11
86.549036
21
118.000000
31
0.0
0
LINE
8
VIEW_HIDDEN
10
86.549036
20
118.000000
30
0.0
11
86.334989
21
118.000000
31
0.0
0
LINE
8
VIEW_HIDDEN
10
86.334989
20
118.000000
30
0.0
11
86.113467
21
118.000000
31
0.0
0
LINE
8
VIEW_HIDDEN
10
86.113467
20
118.000000
30
0.0
11
85.889414
21
118.000000
31
0.0
0
LINE
8
VIEW_HIDDEN
10
85.889414
20
118.000000
30
0.0
11
85.667829
21
118.000000
31
0.0
0
LINE
8
VIEW_HIDDEN
10
85.667829
20
118.000000
30
0.0
11
85.453654
21
118.000000
31
0.0
0
LINE
8
VIEW_HIDDEN
10
85.453654
20
118.000000
30
0.0
11
85.251669
21
118.000000
31
0.0
0
LINE
8
VIEW_HIDDEN
10
85.251669
20
118.000000
30
0.0
11
85.453654
21
118.000000
31
0.0
0
LINE
8
VIEW_HIDDEN
10
85.453654
20
118.000000
30
0.0
11
85.667829
21
118.000000
31
0.0
0
LINE
8
VIEW_HIDDEN
10
85.667829
20
118.000000
30
0.0
11
85.889414
21
118.000000
31
0.0
0
LINE
8
VIEW_HIDDEN
10
85.889414
20
118.000000
30
0.0
11
86.113467
21
118.000000
31
0.0
0
LINE
8
VIEW_HIDDEN
10
86.113467
20
118.000000
30
0.0
11
86.334989
21
118.000000
31
0.0
0
LINE
8
VIEW_HIDDEN
10
86.334989
20
118.000000
30
0.0
11
86.549036
21
118.000000
31
0.0
0
LINE
8
VIEW_HIDDEN
10
86.549036
20
118.000000
30
0.0
11
86.750834
21
118.000000
31
0.0
0
LINE
8
VIEW_HIDDEN
10
86.750834
20
118.000000
30
0.0
11
86.935880
21
118.000000
31
0.0
0
LINE
8
VIEW_HIDDEN
10
86.935880
20
118.000000
30
0.0
11
87.100046
21
118.000000
31
0.0
0
LINE
8
VIEW_HIDDEN
10
87.100046
20
118.000000
30
0.0
11
87.239668
21
118.000000
31
0.0
0
LINE
8
VIEW_HIDDEN
10
87.239668
20
118.000000
30
0.0
11
87.351633
21
118.000000
31
0.0
0
LINE
8
VIEW_HIDDEN
10
87.351633
20
118.000000
30
0.0
11
87.433441
21
118.000000
31
0.0
0
LINE
8
VIEW_HIDDEN
10
87.433441
20
118.000000
30
0.0
11
87.483267
21
118.000000
31
0.0
0
LINE
8
VIEW_HIDDEN
10
87.483267
20
118.000000
30
0.0
11
87.500000
21
118.000000
31
0.0
0
LINE
8
VIEW_HIDDEN
10
87.500000
20
118.000000
30
0.0
11
87.490569
21
118.000000
31
0.0
0
LINE
8
VIEW_HIDDEN
10
87.490569
20
118.000000
30
0.0
11
87.462392
21
118.000000
31
0.0
0
LINE
8
VIEW_HIDDEN
10
87.462392
20
118.000000
30
0.0
11
87.415825
21
118.000000
31
0.0
0
LINE
8
VIEW_HIDDEN
10
87.415825
20
118.000000
30
0.0
11
87.351454
21
118.000000
31
0.0
0
LINE
8
VIEW_HIDDEN
10
87.351454
20
118.000000
30
0.0
11
87.270087
21
118.000000
31
0.0
0
LINE
8
VIEW_HIDDEN
10
87.270087
20
118.000000
30
0.0
11
87.172748
21
118.000000
31
0.0
0
LINE
8
VIEW_HIDDEN
10
87.172748
20
118.000000
30
0.0
11
87.060660
21
118.000000
31
0.0
0
LINE
8
VIEW_HIDDEN
10
87.060660
20
118.000000
30
0.0
11
86.935235
21
118.000000
31
0.0
0
LINE
8
VIEW_HIDDEN
10
86.935235
20
118.000000
30
0.0
11
86.798048
21
118.000000
31
0.0
0
LINE
8
VIEW_HIDDEN
10
86.798048
20
118.000000
30
0.0
11
86.650826
21
118.000000
31
0.0
0
LINE
8
VIEW_HIDDEN
10
86.650826
20
118.000000
30
0.0
11
86.495419
21
118.000000
31
0.0
0
LINE
8
VIEW_HIDDEN
10
86.495419
20
118.000000
30
0.0
11
86.333782
21
118.000000
31
0.0
0
LINE
8
VIEW_HIDDEN
10
86.333782
20
118.000000
30
0.0
11
86.167947
21
118.000000
31
0.0
0
LINE
8
VIEW_HIDDEN
10
86.167947
20
118.000000
30
0.0
11
86.000000
21
118.000000
31
0.0
0
LINE
8
VIEW_HIDDEN
10
61.748332
20
118.000000
30
0.0
11
85.251669
21
118.000000
31
0.0
0
LINE
8
VIEW_HIDDEN
10
61.000000
20
118.000000
30
0.0
11
60.832054
21
118.000000
31
0.0
0
LINE
8
VIEW_HIDDEN
10
60.832054
20
118.000000
30
0.0
11
60.666219
21
118.000000
31
0.0
0
LINE
8
VIEW_HIDDEN
10
60.666219
20
118.000000
30
0.0
11
60.504582
21
118.000000
31
0.0
0
LINE
8
VIEW_HIDDEN
10
60.504582
20
118.000000
30
0.0
11
60.349175
21
118.000000
31
0.0
0
LINE
8
VIEW_HIDDEN
10
60.349175
20
118.000000
30
0.0
11
60.201952
21
118.000000
31
0.0
0
LINE
8
VIEW_HIDDEN
10
60.201952
20
118.000000
30
0.0
11
60.064766
21
118.000000
31
0.0
0
LINE
8
VIEW_HIDDEN
10
60.064766
20
118.000000
30
0.0
11
59.939340
21
118.000000
31
0.0
0
LINE
8
VIEW_HIDDEN
10
59.939340
20
118.000000
30
0.0
11
59.827253
21
118.000000
31
0.0
0
LINE
8
VIEW_HIDDEN
10
59.827253
20
118.000000
30
0.0
11
59.729914
21
118.000000
31
0.0
0
LINE
8
VIEW_HIDDEN
10
59.729914
20
118.000000
30
0.0
11
59.648547
21
118.000000
31
0.0
0
LINE
8
VIEW_HIDDEN
10
59.648547
20
118.000000
30
0.0
11
59.584175
21
118.000000
31
0.0
0
LINE
8
VIEW_HIDDEN
10
59.584175
20
118.000000
30
0.0
11
59.537608
21
118.000000
31
0.0
0
LINE
8
VIEW_HIDDEN
10
59.537608
20
118.000000
30
0.0
11
59.509432
21
118.000000
31
0.0
0
LINE
8
VIEW_HIDDEN
10
59.509432
20
118.000000
30
0.0
11
59.500000
21
118.000000
31
0.0
0
LINE
8
VIEW_HIDDEN
10
59.500000
20
118.000000
30
0.0
11
59.516734
21
118.000000
31
0.0
0
LINE
8
VIEW_HIDDEN
10
59.516734
20
118.000000
30
0.0
11
59.566560
21
118.000000
31
0.0
0
LINE
8
VIEW_HIDDEN
10
59.566560
20
118.000000
30
0.0
11
59.648368
21
118.000000
31
0.0
0
LINE
8
VIEW_HIDDEN
10
59.648368
20
118.000000
30
0.0
11
59.760332
21
118.000000
31
0.0
0
LINE
8
VIEW_HIDDEN
10
59.760332
20
118.000000
30
0.0
11
59.899955
21
118.000000
31
0.0
0
LINE
8
VIEW_HIDDEN
10
59.899955
20
118.000000
30
0.0
11
60.064120
21
118.000000
31
0.0
0
LINE
8
VIEW_HIDDEN
10
60.064120
20
118.000000
30
0.0
11
60.249167
21
118.000000
31
0.0
0
LINE
8
VIEW_HIDDEN
10
60.249167
20
118.000000
30
0.0
11
60.450964
21
118.000000
31
0.0
0
LINE
8
VIEW_HIDDEN
10
60.450964
20
118.000000
30
0.0
11
60.665012
21
118.000000
31
0.0
0
LINE
8
VIEW_HIDDEN
10
60.665012
20
118.000000
30
0.0
11
60.886533
21
118.000000
31
0.0
0
LINE
8
VIEW_HIDDEN
10
60.886533
20
118.000000
30
0.0
11
61.110586
21
118.000000
31
0.0
0
LINE
8
VIEW_HIDDEN
10
61.110586
20
118.000000
30
0.0
11
61.332172
21
118.000000
31
0.0
0
LINE
8
VIEW_HIDDEN
10
61.332172
20
118.000000
30
0.0
11
61.546347
21
118.000000
31
0.0
0
LINE
8
VIEW_HIDDEN
10
61.546347
20
118.000000
30
0.0
11
61.748332
21
118.000000
31
0.0
0
LINE
8
VIEW_HIDDEN
10
116.748332
20
118.000000
30
0.0
11
116.546347
21
118.000000
31
0.0
0
LINE
8
VIEW_HIDDEN
10
116.546347
20
118.000000
30
0.0
11
116.332172
21
118.000000
31
0.0
0
LINE
8
VIEW_HIDDEN
10
116.332172
20
118.000000
30
0.0
11
116.110586
21
118.000000
31
0.0
0
LINE
8
VIEW_HIDDEN
10
116.110586
20
118.000000
30
0.0
11
115.886533
21
118.000000
31
0.0
0
LINE
8
VIEW_HIDDEN
10
115.886533
20
118.000000
30
0.0
11
115.665012
21
118.000000
31
0.0
0
LINE
8
VIEW_HIDDEN
10
115.665012
20
118.000000
30
0.0
11
115.450964
21
118.000000
31
0.0
0
LINE
8
VIEW_HIDDEN
10
115.450964
20
118.000000
30
0.0
11
115.249167
21
118.000000
31
0.0
0
LINE
8
VIEW_HIDDEN
10
115.249167
20
118.000000
30
0.0
11
115.064120
21
118.000000
31
0.0
0
LINE
8
VIEW_HIDDEN
10
115.064120
20
118.000000
30
0.0
11
114.899955
21
118.000000
31
0.0
0
LINE
8
VIEW_HIDDEN
10
114.899955
20
118.000000
30
0.0
11
114.760332
21
118.000000
31
0.0
0
LINE
8
VIEW_HIDDEN
10
114.760332
20
118.000000
30
0.0
11
114.648368
21
118.000000
31
0.0
0
LINE
8
VIEW_HIDDEN
10
114.648368
20
118.000000
30
0.0
11
114.566560
21
118.000000
31
0.0
0
LINE
8
VIEW_HIDDEN
10
114.566560
20
118.000000
30
0.0
11
114.516734
21
118.000000
31
0.0
0
LINE
8
VIEW_HIDDEN
10
114.516734
20
118.000000
30
0.0
11
114.500000
21
118.000000
31
0.0
0
LINE
8
VIEW_HIDDEN
10
114.500000
20
118.000000
30
0.0
11
114.509432
21
118.000000
31
0.0
0
LINE
8
VIEW_HIDDEN
10
114.509432
20
118.000000
30
0.0
11
114.537608
21
118.000000
31
0.0
0
LINE
8
VIEW_HIDDEN
10
114.537608
20
118.000000
30
0.0
11
114.584175
21
118.000000
31
0.0
0
LINE
8
VIEW_HIDDEN
10
114.584175
20
118.000000
30
0.0
11
114.648547
21
118.000000
31
0.0
0
LINE
8
VIEW_HIDDEN
10
114.648547
20
118.000000
30
0.0
11
114.729914
21
118.000000
31
0.0
0
LINE
8
VIEW_HIDDEN
10
114.729914
20
118.000000
30
0.0
11
114.827253
21
118.000000
31
0.0
0
LINE
8
VIEW_HIDDEN
10
114.827253
20
118.000000
30
0.0
11
114.939340
21
118.000000
31
0.0
0
LINE
8
VIEW_HIDDEN
10
114.939340
20
118.000000
30
0.0
11
115.064766
21
118.000000
31
0.0
0
LINE
8
VIEW_HIDDEN
10
115.064766
20
118.000000
30
0.0
11
115.201952
21
118.000000
31
0.0
0
LINE
8
VIEW_HIDDEN
10
115.201952
20
118.000000
30
0.0
11
115.349175
21
118.000000
31
0.0
0
LINE
8
VIEW_HIDDEN
10
115.349175
20
118.000000
30
0.0
11
115.504582
21
118.000000
31
0.0
0
LINE
8
VIEW_HIDDEN
10
115.504582
20
118.000000
30
0.0
11
115.666219
21
118.000000
31
0.0
0
LINE
8
VIEW_HIDDEN
10
115.666219
20
118.000000
30
0.0
11
115.832054
21
118.000000
31
0.0
0
LINE
8
VIEW_HIDDEN
10
115.832054
20
118.000000
30
0.0
11
116.000000
21
118.000000
31
0.0
0
LINE
8
VIEW_HIDDEN
10
140.251669
20
118.000000
30
0.0
11
116.748332
21
118.000000
31
0.0
0
LINE
8
VIEW_HIDDEN
10
141.000000
20
118.000000
30
0.0
11
141.167947
21
118.000000
31
0.0
0
LINE
8
VIEW_HIDDEN
10
141.167947
20
118.000000
30
0.0
11
141.333782
21
118.000000
31
0.0
0
LINE
8
VIEW_HIDDEN
10
141.333782
20
118.000000
30
0.0
11
141.495419
21
118.000000
31
0.0
0
LINE
8
VIEW_HIDDEN
10
141.495419
20
118.000000
30
0.0
11
141.650826
21
118.000000
31
0.0
0
LINE
8
VIEW_HIDDEN
10
141.650826
20
118.000000
30
0.0
11
141.798048
21
118.000000
31
0.0
0
LINE
8
VIEW_HIDDEN
10
141.798048
20
118.000000
30
0.0
11
141.935235
21
118.000000
31
0.0
0
LINE
8
VIEW_HIDDEN
10
141.935235
20
118.000000
30
0.0
11
142.060660
21
118.000000
31
0.0
0
LINE
8
VIEW_HIDDEN
10
142.060660
20
118.000000
30
0.0
11
142.172748
21
118.000000
31
0.0
0
LINE
8
VIEW_HIDDEN
10
142.172748
20
118.000000
30
0.0
11
142.270087
21
118.000000
31
0.0
0
LINE
8
VIEW_HIDDEN
10
142.270087
20
118.000000
30
0.0
11
142.351454
21
118.000000
31
0.0
0
LINE
8
VIEW_HIDDEN
10
142.351454
20
118.000000
30
0.0
11
142.415825
21
118.000000
31
0.0
0
LINE
8
VIEW_HIDDEN
10
142.415825
20
118.000000
30
0.0
11
142.462392
21
118.000000
31
0.0
0
LINE
8
VIEW_HIDDEN
10
142.462392
20
118.000000
30
0.0
11
142.490569
21
118.000000
31
0.0
0
LINE
8
VIEW_HIDDEN
10
142.490569
20
118.000000
30
0.0
11
142.500000
21
118.000000
31
0.0
0
LINE
8
VIEW_HIDDEN
10
142.500000
20
118.000000
30
0.0
11
142.483267
21
118.000000
31
0.0
0
LINE
8
VIEW_HIDDEN
10
142.483267
20
118.000000
30
0.0
11
142.433441
21
118.000000
31
0.0
0
LINE
8
VIEW_HIDDEN
10
142.433441
20
118.000000
30
0.0
11
142.351633
21
118.000000
31
0.0
0
LINE
8
VIEW_HIDDEN
10
142.351633
20
118.000000
30
0.0
11
142.239668
21
118.000000
31
0.0
0
LINE
8
VIEW_HIDDEN
10
142.239668
20
118.000000
30
0.0
11
142.100046
21
118.000000
31
0.0
0
LINE
8
VIEW_HIDDEN
10
142.100046
20
118.000000
30
0.0
11
141.935880
21
118.000000
31
0.0
0
LINE
8
VIEW_HIDDEN
10
141.935880
20
118.000000
30
0.0
11
141.750834
21
118.000000
31
0.0
0
LINE
8
VIEW_HIDDEN
10
141.750834
20
118.000000
30
0.0
11
141.549036
21
118.000000
31
0.0
0
LINE
8
VIEW_HIDDEN
10
141.549036
20
118.000000
30
0.0
11
141.334989
21
118.000000
31
0.0
0
LINE
8
VIEW_HIDDEN
10
141.334989
20
118.000000
30
0.0
11
141.113467
21
118.000000
31
0.0
0
LINE
8
VIEW_HIDDEN
10
141.113467
20
118.000000
30
0.0
11
140.889414
21
118.000000
31
0.0
0
LINE
8
VIEW_HIDDEN
10
140.889414
20
118.000000
30
0.0
11
140.667829
21
118.000000
31
0.0
0
LINE
8
VIEW_HIDDEN
10
140.667829
20
118.000000
30
0.0
11
140.453654
21
118.000000
31
0.0
0
LINE
8
VIEW_HIDDEN
10
140.453654
20
118.000000
30
0.0
11
140.251669
21
118.000000
31
0.0
0
LINE
8
VIEW_HIDDEN
10
140.251669
20
118.000000
30
0.0
11
140.453654
21
118.000000
31
0.0
0
LINE
8
VIEW_HIDDEN
10
140.453654
20
118.000000
30
0.0
11
140.667829
21
118.000000
31
0.0
0
LINE
8
VIEW_HIDDEN
10
140.667829
20
118.000000
30
0.0
11
140.889414
21
118.000000
31
0.0
0
LINE
8
VIEW_HIDDEN
10
140.889414
20
118.000000
30
0.0
11
141.113467
21
118.000000
31
0.0
0
LINE
8
VIEW_HIDDEN
10
141.113467
20
118.000000
30
0.0
11
141.334989
21
118.000000
31
0.0
0
LINE
8
VIEW_HIDDEN
10
141.334989
20
118.000000
30
0.0
11
141.549036
21
118.000000
31
0.0
0
LINE
8
VIEW_HIDDEN
10
141.549036
20
118.000000
30
0.0
11
141.750834
21
118.000000
31
0.0
0
LINE
8
VIEW_HIDDEN
10
141.750834
20
118.000000
30
0.0
11
141.935880
21
118.000000
31
0.0
0
LINE
8
VIEW_HIDDEN
10
141.935880
20
118.000000
30
0.0
11
142.100046
21
118.000000
31
0.0
0
LINE
8
VIEW_HIDDEN
10
142.100046
20
118.000000
30
0.0
11
142.239668
21
118.000000
31
0.0
0
LINE
8
VIEW_HIDDEN
10
142.239668
20
118.000000
30
0.0
11
142.351633
21
118.000000
31
0.0
0
LINE
8
VIEW_HIDDEN
10
142.351633
20
118.000000
30
0.0
11
142.433441
21
118.000000
31
0.0
0
LINE
8
VIEW_HIDDEN
10
142.433441
20
118.000000
30
0.0
11
142.483267
21
118.000000
31
0.0
0
LINE
8
VIEW_HIDDEN
10
142.483267
20
118.000000
30
0.0
11
142.500000
21
118.000000
31
0.0
0
LINE
8
VIEW_HIDDEN
10
142.500000
20
118.000000
30
0.0
11
142.490569
21
118.000000
31
0.0
0
LINE
8
VIEW_HIDDEN
10
142.490569
20
118.000000
30
0.0
11
142.462392
21
118.000000
31
0.0
0
LINE
8
VIEW_HIDDEN
10
142.462392
20
118.000000
30
0.0
11
142.415825
21
118.000000
31
0.0
0
LINE
8
VIEW_HIDDEN
10
142.415825
20
118.000000
30
0.0
11
142.351454
21
118.000000
31
0.0
0
LINE
8
VIEW_HIDDEN
10
142.351454
20
118.000000
30
0.0
11
142.270087
21
118.000000
31
0.0
0
LINE
8
VIEW_HIDDEN
10
142.270087
20
118.000000
30
0.0
11
142.172748
21
118.000000
31
0.0
0
LINE
8
VIEW_HIDDEN
10
142.172748
20
118.000000
30
0.0
11
142.060660
21
118.000000
31
0.0
0
LINE
8
VIEW_HIDDEN
10
142.060660
20
118.000000
30
0.0
11
141.935235
21
118.000000
31
0.0
0
LINE
8
VIEW_HIDDEN
10
141.935235
20
118.000000
30
0.0
11
141.798048
21
118.000000
31
0.0
0
LINE
8
VIEW_HIDDEN
10
141.798048
20
118.000000
30
0.0
11
141.650826
21
118.000000
31
0.0
0
LINE
8
VIEW_HIDDEN
10
141.650826
20
118.000000
30
0.0
11
141.495419
21
118.000000
31
0.0
0
LINE
8
VIEW_HIDDEN
10
141.495419
20
118.000000
30
0.0
11
141.333782
21
118.000000
31
0.0
0
LINE
8
VIEW_HIDDEN
10
141.333782
20
118.000000
30
0.0
11
141.167947
21
118.000000
31
0.0
0
LINE
8
VIEW_HIDDEN
10
141.167947
20
118.000000
30
0.0
11
141.000000
21
118.000000
31
0.0
0
LINE
8
VIEW_HIDDEN
10
116.748332
20
118.000000
30
0.0
11
140.251669
21
118.000000
31
0.0
0
LINE
8
VIEW_HIDDEN
10
116.000000
20
118.000000
30
0.0
11
115.832054
21
118.000000
31
0.0
0
LINE
8
VIEW_HIDDEN
10
115.832054
20
118.000000
30
0.0
11
115.666219
21
118.000000
31
0.0
0
LINE
8
VIEW_HIDDEN
10
115.666219
20
118.000000
30
0.0
11
115.504582
21
118.000000
31
0.0
0
LINE
8
VIEW_HIDDEN
10
115.504582
20
118.000000
30
0.0
11
115.349175
21
118.000000
31
0.0
0
LINE
8
VIEW_HIDDEN
10
115.349175
20
118.000000
30
0.0
11
115.201952
21
118.000000
31
0.0
0
LINE
8
VIEW_HIDDEN
10
115.201952
20
118.000000
30
0.0
11
115.064766
21
118.000000
31
0.0
0
LINE
8
VIEW_HIDDEN
10
115.064766
20
118.000000
30
0.0
11
114.939340
21
118.000000
31
0.0
0
LINE
8
VIEW_HIDDEN
10
114.939340
20
118.000000
30
0.0
11
114.827253
21
118.000000
31
0.0
0
LINE
8
VIEW_HIDDEN
10
114.827253
20
118.000000
30
0.0
11
114.729914
21
118.000000
31
0.0
0
LINE
8
VIEW_HIDDEN
10
114.729914
20
118.000000
30
0.0
11
114.648547
21
118.000000
31
0.0
0
LINE
8
VIEW_HIDDEN
10
114.648547
20
118.000000
30
0.0
11
114.584175
21
118.000000
31
0.0
0
LINE
8
VIEW_HIDDEN
10
114.584175
20
118.000000
30
0.0
11
114.537608
21
118.000000
31
0.0
0
LINE
8
VIEW_HIDDEN
10
114.537608
20
118.000000
30
0.0
11
114.509432
21
118.000000
31
0.0
0
LINE
8
VIEW_HIDDEN
10
114.509432
20
118.000000
30
0.0
11
114.500000
21
118.000000
31
0.0
0
LINE
8
VIEW_HIDDEN
10
114.500000
20
118.000000
30
0.0
11
114.516734
21
118.000000
31
0.0
0
LINE
8
VIEW_HIDDEN
10
114.516734
20
118.000000
30
0.0
11
114.566560
21
118.000000
31
0.0
0
LINE
8
VIEW_HIDDEN
10
114.566560
20
118.000000
30
0.0
11
114.648368
21
118.000000
31
0.0
0
LINE
8
VIEW_HIDDEN
10
114.648368
20
118.000000
30
0.0
11
114.760332
21
118.000000
31
0.0
0
LINE
8
VIEW_HIDDEN
10
114.760332
20
118.000000
30
0.0
11
114.899955
21
118.000000
31
0.0
0
LINE
8
VIEW_HIDDEN
10
114.899955
20
118.000000
30
0.0
11
115.064120
21
118.000000
31
0.0
0
LINE
8
VIEW_HIDDEN
10
115.064120
20
118.000000
30
0.0
11
115.249167
21
118.000000
31
0.0
0
LINE
8
VIEW_HIDDEN
10
115.249167
20
118.000000
30
0.0
11
115.450964
21
118.000000
31
0.0
0
LINE
8
VIEW_HIDDEN
10
115.450964
20
118.000000
30
0.0
11
115.665012
21
118.000000
31
0.0
0
LINE
8
VIEW_HIDDEN
10
115.665012
20
118.000000
30
0.0
11
115.886533
21
118.000000
31
0.0
0
LINE
8
VIEW_HIDDEN
10
115.886533
20
118.000000
30
0.0
11
116.110586
21
118.000000
31
0.0
0
LINE
8
VIEW_HIDDEN
10
116.110586
20
118.000000
30
0.0
11
116.332172
21
118.000000
31
0.0
0
LINE
8
VIEW_HIDDEN
10
116.332172
20
118.000000
30
0.0
11
116.546347
21
118.000000
31
0.0
0
LINE
8
VIEW_HIDDEN
10
116.546347
20
118.000000
30
0.0
11
116.748332
21
118.000000
31
0.0
0
LINE
8
VIEW_HIDDEN
10
26.000000
20
124.000000
30
0.0
11
26.000000
21
118.000000
31
0.0
0
LINE
8
VIEW_HIDDEN
10
170.000000
20
124.000000
30
0.0
11
170.000000
21
118.000000
31
0.0
0
LINE
8
VIEW_HIDDEN
10
32.000000
20
124.000000
30
0.0
11
32.000000
21
118.000000
31
0.0
0
LINE
8
VIEW_HIDDEN
10
176.000000
20
124.000000
30
0.0
11
176.000000
21
118.000000
31
0.0
0
LINE
8
VIEW_HIDDEN
10
32.000000
20
124.000000
30
0.0
11
32.000000
21
118.000000
31
0.0
0
LINE
8
VIEW_HIDDEN
10
176.000000
20
124.000000
30
0.0
11
176.000000
21
118.000000
31
0.0
0
LINE
8
VIEW_HIDDEN
10
26.000000
20
124.000000
30
0.0
11
26.000000
21
118.000000
31
0.0
0
LINE
8
VIEW_HIDDEN
10
170.000000
20
124.000000
30
0.0
11
170.000000
21
118.000000
31
0.0
0
LINE
8
VIEW_HIDDEN
10
170.000000
20
124.000000
30
0.0
11
170.000000
21
118.000000
31
0.0
0
LINE
8
VIEW_HIDDEN
10
32.000000
20
124.000000
30
0.0
11
32.000000
21
118.000000
31
0.0
0
LINE
8
VIEW_HIDDEN
10
176.000000
20
124.000000
30
0.0
11
176.000000
21
118.000000
31
0.0
0
LINE
8
VIEW_HIDDEN
10
170.000000
20
124.000000
30
0.0
11
170.000000
21
118.000000
31
0.0
0
LINE
8
VIEW_HIDDEN
10
61.748332
20
124.000000
30
0.0
11
61.748332
21
118.000000
31
0.0
0
LINE
8
VIEW_HIDDEN
10
61.000000
20
124.000000
30
0.0
11
61.000000
21
118.000000
31
0.0
0
LINE
8
VIEW_HIDDEN
10
85.251669
20
124.000000
30
0.0
11
85.251669
21
118.000000
31
0.0
0
LINE
8
VIEW_HIDDEN
10
86.000000
20
124.000000
30
0.0
11
86.000000
21
118.000000
31
0.0
0
LINE
8
VIEW_HIDDEN
10
86.000000
20
124.000000
30
0.0
11
86.000000
21
118.000000
31
0.0
0
LINE
8
VIEW_HIDDEN
10
85.251669
20
124.000000
30
0.0
11
85.251669
21
118.000000
31
0.0
0
LINE
8
VIEW_HIDDEN
10
61.748332
20
124.000000
30
0.0
11
61.748332
21
118.000000
31
0.0
0
LINE
8
VIEW_HIDDEN
10
61.000000
20
124.000000
30
0.0
11
61.000000
21
118.000000
31
0.0
0
LINE
8
VIEW_HIDDEN
10
116.748332
20
124.000000
30
0.0
11
116.748332
21
118.000000
31
0.0
0
LINE
8
VIEW_HIDDEN
10
116.000000
20
124.000000
30
0.0
11
116.000000
21
118.000000
31
0.0
0
LINE
8
VIEW_HIDDEN
10
140.251669
20
124.000000
30
0.0
11
140.251669
21
118.000000
31
0.0
0
LINE
8
VIEW_HIDDEN
10
141.000000
20
124.000000
30
0.0
11
141.000000
21
118.000000
31
0.0
0
LINE
8
VIEW_HIDDEN
10
141.000000
20
124.000000
30
0.0
11
141.000000
21
118.000000
31
0.0
0
LINE
8
VIEW_HIDDEN
10
140.251669
20
124.000000
30
0.0
11
140.251669
21
118.000000
31
0.0
0
LINE
8
VIEW_HIDDEN
10
116.748332
20
124.000000
30
0.0
11
116.748332
21
118.000000
31
0.0
0
LINE
8
VIEW_HIDDEN
10
116.000000
20
124.000000
30
0.0
11
116.000000
21
118.000000
31
0.0
0
LINE
8
VIEW_HIDDEN
10
59.500000
20
118.000000
30
0.0
11
59.500000
21
124.000000
31
0.0
0
LINE
8
VIEW_HIDDEN
10
87.500000
20
118.000000
30
0.0
11
87.500000
21
124.000000
31
0.0
0
LINE
8
VIEW_HIDDEN
10
87.500000
20
118.000000
30
0.0
11
87.500000
21
124.000000
31
0.0
0
LINE
8
VIEW_HIDDEN
10
59.500000
20
118.000000
30
0.0
11
59.500000
21
124.000000
31
0.0
0
LINE
8
VIEW_HIDDEN
10
114.500000
20
118.000000
30
0.0
11
114.500000
21
124.000000
31
0.0
0
LINE
8
VIEW_HIDDEN
10
142.500000
20
118.000000
30
0.0
11
142.500000
21
124.000000
31
0.0
0
LINE
8
VIEW_HIDDEN
10
142.500000
20
118.000000
30
0.0
11
142.500000
21
124.000000
31
0.0
0
LINE
8
VIEW_HIDDEN
10
114.500000
20
118.000000
30
0.0
11
114.500000
21
124.000000
31
0.0
0
LINE
8
VIEW_VISIBLE
10
220.000001
20
161.000000
30
0.0
11
220.000001
21
151.000000
31
0.0
0
LINE
8
VIEW_VISIBLE
10
214.000001
20
151.000000
30
0.0
11
220.000001
21
151.000000
31
0.0
0
LINE
8
VIEW_VISIBLE
10
214.000001
20
161.000000
30
0.0
11
214.000001
21
151.000000
31
0.0
0
LINE
8
VIEW_VISIBLE
10
214.000001
20
161.000000
30
0.0
11
220.000001
21
161.000000
31
0.0
0
LINE
8
VIEW_VISIBLE
10
214.000001
20
173.500000
30
0.0
11
214.000001
21
161.000000
31
0.0
0
LINE
8
VIEW_VISIBLE
10
214.000001
20
181.000000
30
0.0
11
214.000001
21
173.500000
31
0.0
0
LINE
8
VIEW_VISIBLE
10
214.000001
20
193.500000
30
0.0
11
214.000001
21
181.000000
31
0.0
0
LINE
8
VIEW_VISIBLE
10
214.000001
20
201.000000
30
0.0
11
214.000001
21
193.500000
31
0.0
0
LINE
8
VIEW_VISIBLE
10
220.000001
20
173.500000
30
0.0
11
220.000001
21
161.000000
31
0.0
0
LINE
8
VIEW_VISIBLE
10
220.000001
20
181.000000
30
0.0
11
220.000001
21
173.500000
31
0.0
0
LINE
8
VIEW_VISIBLE
10
220.000001
20
193.500000
30
0.0
11
220.000001
21
181.000000
31
0.0
0
LINE
8
VIEW_VISIBLE
10
220.000001
20
201.000000
30
0.0
11
220.000001
21
193.500000
31
0.0
0
LINE
8
VIEW_VISIBLE
10
214.000001
20
173.500000
30
0.0
11
220.000001
21
173.500000
31
0.0
0
LINE
8
VIEW_VISIBLE
10
214.000001
20
181.000000
30
0.0
11
220.000001
21
181.000000
31
0.0
0
LINE
8
VIEW_VISIBLE
10
214.000001
20
193.500000
30
0.0
11
220.000001
21
193.500000
31
0.0
0
LINE
8
VIEW_VISIBLE
10
214.000001
20
201.000000
30
0.0
11
220.000001
21
201.000000
31
0.0
0
LINE
8
VIEW_HIDDEN
10
214.000001
20
161.000000
30
0.0
11
220.000001
21
161.000000
31
0.0
0
LINE
8
VIEW_HIDDEN
10
214.000001
20
151.000000
30
0.0
11
220.000001
21
151.000000
31
0.0
0
LINE
8
VIEW_HIDDEN
10
214.000001
20
151.000000
30
0.0
11
214.000001
21
161.000000
31
0.0
0
LINE
8
VIEW_HIDDEN
10
214.000001
20
161.000000
30
0.0
11
214.000001
21
173.500000
31
0.0
0
LINE
8
VIEW_HIDDEN
10
214.000001
20
173.500000
30
0.0
11
214.000001
21
181.000000
31
0.0
0
LINE
8
VIEW_HIDDEN
10
214.000001
20
181.000000
30
0.0
11
214.000001
21
193.500000
31
0.0
0
LINE
8
VIEW_HIDDEN
10
214.000001
20
193.500000
30
0.0
11
214.000001
21
201.000000
31
0.0
0
LINE
8
VIEW_HIDDEN
10
214.000001
20
153.000000
30
0.0
11
214.000001
21
152.972993
31
0.0
0
LINE
8
VIEW_HIDDEN
10
214.000001
20
152.972993
30
0.0
11
214.000001
21
152.947832
31
0.0
0
LINE
8
VIEW_HIDDEN
10
214.000001
20
152.947832
30
0.0
11
214.000001
21
152.924552
31
0.0
0
LINE
8
VIEW_HIDDEN
10
214.000001
20
152.924552
30
0.0
11
214.000001
21
152.903188
31
0.0
0
LINE
8
VIEW_HIDDEN
10
214.000001
20
152.903188
30
0.0
11
214.000001
21
152.883767
31
0.0
0
LINE
8
VIEW_HIDDEN
10
214.000001
20
152.883767
30
0.0
11
214.000001
21
152.866317
31
0.0
0
LINE
8
VIEW_HIDDEN
10
214.000001
20
152.866317
30
0.0
11
214.000001
21
152.850863
31
0.0
0
LINE
8
VIEW_HIDDEN
10
214.000001
20
152.850863
30
0.0
11
214.000001
21
152.837425
31
0.0
0
LINE
8
VIEW_HIDDEN
10
214.000001
20
152.837425
30
0.0
11
214.000001
21
152.826023
31
0.0
0
LINE
8
VIEW_HIDDEN
10
214.000001
20
152.826023
30
0.0
11
214.000001
21
152.816672
31
0.0
0
LINE
8
VIEW_HIDDEN
10
214.000001
20
152.816672
30
0.0
11
214.000001
21
152.809386
31
0.0
0
LINE
8
VIEW_HIDDEN
10
214.000001
20
152.809386
30
0.0
11
214.000001
21
152.804174
31
0.0
0
LINE
8
VIEW_HIDDEN
10
214.000001
20
152.804174
30
0.0
11
214.000001
21
152.801044
31
0.0
0
LINE
8
VIEW_HIDDEN
10
214.000001
20
152.801044
30
0.0
11
214.000001
21
152.800000
31
0.0
0
LINE
8
VIEW_HIDDEN
10
214.000001
20
152.800000
30
0.0
11
214.000001
21
152.837608
31
0.0
0
LINE
8
VIEW_HIDDEN
10
214.000001
20
152.837608
30
0.0
11
214.000001
21
152.948547
31
0.0
0
LINE
8
VIEW_HIDDEN
10
214.000001
20
152.948547
30
0.0
11
214.000001
21
153.127253
31
0.0
0
LINE
8
VIEW_HIDDEN
10
214.000001
20
153.127253
30
0.0
11
214.000001
21
153.364766
31
0.0
0
LINE
8
VIEW_HIDDEN
10
214.000001
20
153.364766
30
0.0
11
214.000001
21
153.649175
31
0.0
0
LINE
8
VIEW_HIDDEN
10
214.000001
20
153.649175
30
0.0
11
214.000001
21
153.966219
31
0.0
0
LINE
8
VIEW_HIDDEN
10
214.000001
20
153.966219
30
0.0
11
214.000001
21
154.300000
31
0.0
0
LINE
8
VIEW_HIDDEN
10
214.000001
20
154.300000
30
0.0
11
214.000001
21
154.633782
31
0.0
0
LINE
8
VIEW_HIDDEN
10
214.000001
20
154.633782
30
0.0
11
214.000001
21
154.950826
31
0.0
0
LINE
8
VIEW_HIDDEN
10
214.000001
20
154.950826
30
0.0
11
214.000001
21
155.235235
31
0.0
0
LINE
8
VIEW_HIDDEN
10
214.000001
20
155.235235
30
0.0
11
214.000001
21
155.472748
31
0.0
0
LINE
8
VIEW_HIDDEN
10
214.000001
20
155.472748
30
0.0
11
214.000001
21
155.651454
31
0.0
0
LINE
8
VIEW_HIDDEN
10
214.000001
20
155.651454
30
0.0
11
214.000001
21
155.762392
31
0.0
0
LINE
8
VIEW_HIDDEN
10
214.000001
20
155.762392
30
0.0
11
214.000001
21
155.800000
31
0.0
0
LINE
8
VIEW_HIDDEN
10
214.000001
20
155.800000
30
0.0
11
214.000001
21
155.762392
31
0.0
0
LINE
8
VIEW_HIDDEN
10
214.000001
20
155.762392
30
0.0
11
214.000001
21
155.651454
31
0.0
0
LINE
8
VIEW_HIDDEN
10
214.000001
20
155.651454
30
0.0
11
214.000001
21
155.472748
31
0.0
0
LINE
8
VIEW_HIDDEN
10
214.000001
20
155.472748
30
0.0
11
214.000001
21
155.235235
31
0.0
0
LINE
8
VIEW_HIDDEN
10
214.000001
20
155.235235
30
0.0
11
214.000001
21
154.950826
31
0.0
0
LINE
8
VIEW_HIDDEN
10
214.000001
20
154.950826
30
0.0
11
214.000001
21
154.633782
31
0.0
0
LINE
8
VIEW_HIDDEN
10
214.000001
20
154.633782
30
0.0
11
214.000001
21
154.300000
31
0.0
0
LINE
8
VIEW_HIDDEN
10
214.000001
20
154.300000
30
0.0
11
214.000001
21
153.966219
31
0.0
0
LINE
8
VIEW_HIDDEN
10
214.000001
20
153.966219
30
0.0
11
214.000001
21
153.649175
31
0.0
0
LINE
8
VIEW_HIDDEN
10
214.000001
20
153.649175
30
0.0
11
214.000001
21
153.364766
31
0.0
0
LINE
8
VIEW_HIDDEN
10
214.000001
20
153.364766
30
0.0
11
214.000001
21
153.127253
31
0.0
0
LINE
8
VIEW_HIDDEN
10
214.000001
20
153.127253
30
0.0
11
214.000001
21
152.948547
31
0.0
0
LINE
8
VIEW_HIDDEN
10
214.000001
20
152.948547
30
0.0
11
214.000001
21
152.837608
31
0.0
0
LINE
8
VIEW_HIDDEN
10
214.000001
20
152.837608
30
0.0
11
214.000001
21
152.800000
31
0.0
0
LINE
8
VIEW_HIDDEN
10
214.000001
20
152.800000
30
0.0
11
214.000001
21
152.801044
31
0.0
0
LINE
8
VIEW_HIDDEN
10
214.000001
20
152.801044
30
0.0
11
214.000001
21
152.804174
31
0.0
0
LINE
8
VIEW_HIDDEN
10
214.000001
20
152.804174
30
0.0
11
214.000001
21
152.809386
31
0.0
0
LINE
8
VIEW_HIDDEN
10
214.000001
20
152.809386
30
0.0
11
214.000001
21
152.816672
31
0.0
0
LINE
8
VIEW_HIDDEN
10
214.000001
20
152.816672
30
0.0
11
214.000001
21
152.826023
31
0.0
0
LINE
8
VIEW_HIDDEN
10
214.000001
20
152.826023
30
0.0
11
214.000001
21
152.837425
31
0.0
0
LINE
8
VIEW_HIDDEN
10
214.000001
20
152.837425
30
0.0
11
214.000001
21
152.850863
31
0.0
0
LINE
8
VIEW_HIDDEN
10
214.000001
20
152.850863
30
0.0
11
214.000001
21
152.866317
31
0.0
0
LINE
8
VIEW_HIDDEN
10
214.000001
20
152.866317
30
0.0
11
214.000001
21
152.883767
31
0.0
0
LINE
8
VIEW_HIDDEN
10
214.000001
20
152.883767
30
0.0
11
214.000001
21
152.903188
31
0.0
0
LINE
8
VIEW_HIDDEN
10
214.000001
20
152.903188
30
0.0
11
214.000001
21
152.924552
31
0.0
0
LINE
8
VIEW_HIDDEN
10
214.000001
20
152.924552
30
0.0
11
214.000001
21
152.947832
31
0.0
0
LINE
8
VIEW_HIDDEN
10
214.000001
20
152.947832
30
0.0
11
214.000001
21
152.972993
31
0.0
0
LINE
8
VIEW_HIDDEN
10
214.000001
20
152.972993
30
0.0
11
214.000001
21
153.000000
31
0.0
0
LINE
8
VIEW_HIDDEN
10
214.000001
20
156.200000
30
0.0
11
214.000001
21
155.800000
31
0.0
0
LINE
8
VIEW_HIDDEN
10
214.000001
20
159.000000
30
0.0
11
214.000001
21
159.027008
31
0.0
0
LINE
8
VIEW_HIDDEN
10
214.000001
20
159.027008
30
0.0
11
214.000001
21
159.052169
31
0.0
0
LINE
8
VIEW_HIDDEN
10
214.000001
20
159.052169
30
0.0
11
214.000001
21
159.075448
31
0.0
0
LINE
8
VIEW_HIDDEN
10
214.000001
20
159.075448
30
0.0
11
214.000001
21
159.096813
31
0.0
0
LINE
8
VIEW_HIDDEN
10
214.000001
20
159.096813
30
0.0
11
214.000001
21
159.116234
31
0.0
0
LINE
8
VIEW_HIDDEN
10
214.000001
20
159.116234
30
0.0
11
214.000001
21
159.133684
31
0.0
0
LINE
8
VIEW_HIDDEN
10
214.000001
20
159.133684
30
0.0
11
214.000001
21
159.149138
31
0.0
0
LINE
8
VIEW_HIDDEN
10
214.000001
20
159.149138
30
0.0
11
214.000001
21
159.162576
31
0.0
0
LINE
8
VIEW_HIDDEN
10
214.000001
20
159.162576
30
0.0
11
214.000001
21
159.173978
31
0.0
0
LINE
8
VIEW_HIDDEN
10
214.000001
20
159.173978
30
0.0
11
214.000001
21
159.183328
31
0.0
0
LINE
8
VIEW_HIDDEN
10
214.000001
20
159.183328
30
0.0
11
214.000001
21
159.190615
31
0.0
0
LINE
8
VIEW_HIDDEN
10
214.000001
20
159.190615
30
0.0
11
214.000001
21
159.195827
31
0.0
0
LINE
8
VIEW_HIDDEN
10
214.000001
20
159.195827
30
0.0
11
214.000001
21
159.198956
31
0.0
0
LINE
8
VIEW_HIDDEN
10
214.000001
20
159.198956
30
0.0
11
214.000001
21
159.200000
31
0.0
0
LINE
8
VIEW_HIDDEN
10
214.000001
20
159.200000
30
0.0
11
214.000001
21
159.162392
31
0.0
0
LINE
8
VIEW_HIDDEN
10
214.000001
20
159.162392
30
0.0
11
214.000001
21
159.051454
31
0.0
0
LINE
8
VIEW_HIDDEN
10
214.000001
20
159.051454
30
0.0
11
214.000001
21
158.872748
31
0.0
0
LINE
8
VIEW_HIDDEN
10
214.000001
20
158.872748
30
0.0
11
214.000001
21
158.635235
31
0.0
0
LINE
8
VIEW_HIDDEN
10
214.000001
20
158.635235
30
0.0
11
214.000001
21
158.350826
31
0.0
0
LINE
8
VIEW_HIDDEN
10
214.000001
20
158.350826
30
0.0
11
214.000001
21
158.033782
31
0.0
0
LINE
8
VIEW_HIDDEN
10
214.000001
20
158.033782
30
0.0
11
214.000001
21
157.700000
31
0.0
0
LINE
8
VIEW_HIDDEN
10
214.000001
20
157.700000
30
0.0
11
214.000001
21
157.366219
31
0.0
0
LINE
8
VIEW_HIDDEN
10
214.000001
20
157.366219
30
0.0
11
214.000001
21
157.049175
31
0.0
0
LINE
8
VIEW_HIDDEN
10
214.000001
20
157.049175
30
0.0
11
214.000001
21
156.764766
31
0.0
0
LINE
8
VIEW_HIDDEN
10
214.000001
20
156.764766
30
0.0
11
214.000001
21
156.527253
31
0.0
0
LINE
8
VIEW_HIDDEN
10
214.000001
20
156.527253
30
0.0
11
214.000001
21
156.348547
31
0.0
0
LINE
8
VIEW_HIDDEN
10
214.000001
20
156.348547
30
0.0
11
214.000001
21
156.237608
31
0.0
0
LINE
8
VIEW_HIDDEN
10
214.000001
20
156.237608
30
0.0
11
214.000001
21
156.200000
31
0.0
0
LINE
8
VIEW_HIDDEN
10
214.000001
20
156.200000
30
0.0
11
214.000001
21
156.237608
31
0.0
0
LINE
8
VIEW_HIDDEN
10
214.000001
20
156.237608
30
0.0
11
214.000001
21
156.348547
31
0.0
0
LINE
8
VIEW_HIDDEN
10
214.000001
20
156.348547
30
0.0
11
214.000001
21
156.527253
31
0.0
0
LINE
8
VIEW_HIDDEN
10
214.000001
20
156.527253
30
0.0
11
214.000001
21
156.764766
31
0.0
0
LINE
8
VIEW_HIDDEN
10
214.000001
20
156.764766
30
0.0
11
214.000001
21
157.049175
31
0.0
0
LINE
8
VIEW_HIDDEN
10
214.000001
20
157.049175
30
0.0
11
214.000001
21
157.366219
31
0.0
0
LINE
8
VIEW_HIDDEN
10
214.000001
20
157.366219
30
0.0
11
214.000001
21
157.700000
31
0.0
0
LINE
8
VIEW_HIDDEN
10
214.000001
20
157.700000
30
0.0
11
214.000001
21
158.033782
31
0.0
0
LINE
8
VIEW_HIDDEN
10
214.000001
20
158.033782
30
0.0
11
214.000001
21
158.350826
31
0.0
0
LINE
8
VIEW_HIDDEN
10
214.000001
20
158.350826
30
0.0
11
214.000001
21
158.635235
31
0.0
0
LINE
8
VIEW_HIDDEN
10
214.000001
20
158.635235
30
0.0
11
214.000001
21
158.872748
31
0.0
0
LINE
8
VIEW_HIDDEN
10
214.000001
20
158.872748
30
0.0
11
214.000001
21
159.051454
31
0.0
0
LINE
8
VIEW_HIDDEN
10
214.000001
20
159.051454
30
0.0
11
214.000001
21
159.162392
31
0.0
0
LINE
8
VIEW_HIDDEN
10
214.000001
20
159.162392
30
0.0
11
214.000001
21
159.200000
31
0.0
0
LINE
8
VIEW_HIDDEN
10
214.000001
20
159.200000
30
0.0
11
214.000001
21
159.198956
31
0.0
0
LINE
8
VIEW_HIDDEN
10
214.000001
20
159.198956
30
0.0
11
214.000001
21
159.195827
31
0.0
0
LINE
8
VIEW_HIDDEN
10
214.000001
20
159.195827
30
0.0
11
214.000001
21
159.190615
31
0.0
0
LINE
8
VIEW_HIDDEN
10
214.000001
20
159.190615
30
0.0
11
214.000001
21
159.183328
31
0.0
0
LINE
8
VIEW_HIDDEN
10
214.000001
20
159.183328
30
0.0
11
214.000001
21
159.173978
31
0.0
0
LINE
8
VIEW_HIDDEN
10
214.000001
20
159.173978
30
0.0
11
214.000001
21
159.162576
31
0.0
0
LINE
8
VIEW_HIDDEN
10
214.000001
20
159.162576
30
0.0
11
214.000001
21
159.149138
31
0.0
0
LINE
8
VIEW_HIDDEN
10
214.000001
20
159.149138
30
0.0
11
214.000001
21
159.133684
31
0.0
0
LINE
8
VIEW_HIDDEN
10
214.000001
20
159.133684
30
0.0
11
214.000001
21
159.116234
31
0.0
0
LINE
8
VIEW_HIDDEN
10
214.000001
20
159.116234
30
0.0
11
214.000001
21
159.096813
31
0.0
0
LINE
8
VIEW_HIDDEN
10
214.000001
20
159.096813
30
0.0
11
214.000001
21
159.075448
31
0.0
0
LINE
8
VIEW_HIDDEN
10
214.000001
20
159.075448
30
0.0
11
214.000001
21
159.052169
31
0.0
0
LINE
8
VIEW_HIDDEN
10
214.000001
20
159.052169
30
0.0
11
214.000001
21
159.027008
31
0.0
0
LINE
8
VIEW_HIDDEN
10
214.000001
20
159.027008
30
0.0
11
214.000001
21
159.000000
31
0.0
0
LINE
8
VIEW_HIDDEN
10
214.000001
20
155.800000
30
0.0
11
214.000001
21
156.200000
31
0.0
0
LINE
8
VIEW_HIDDEN
10
214.000001
20
153.000000
30
0.0
11
214.000001
21
152.972993
31
0.0
0
LINE
8
VIEW_HIDDEN
10
214.000001
20
152.972993
30
0.0
11
214.000001
21
152.947832
31
0.0
0
LINE
8
VIEW_HIDDEN
10
214.000001
20
152.947832
30
0.0
11
214.000001
21
152.924552
31
0.0
0
LINE
8
VIEW_HIDDEN
10
214.000001
20
152.924552
30
0.0
11
214.000001
21
152.903188
31
0.0
0
LINE
8
VIEW_HIDDEN
10
214.000001
20
152.903188
30
0.0
11
214.000001
21
152.883767
31
0.0
0
LINE
8
VIEW_HIDDEN
10
214.000001
20
152.883767
30
0.0
11
214.000001
21
152.866317
31
0.0
0
LINE
8
VIEW_HIDDEN
10
214.000001
20
152.866317
30
0.0
11
214.000001
21
152.850863
31
0.0
0
LINE
8
VIEW_HIDDEN
10
214.000001
20
152.850863
30
0.0
11
214.000001
21
152.837425
31
0.0
0
LINE
8
VIEW_HIDDEN
10
214.000001
20
152.837425
30
0.0
11
214.000001
21
152.826023
31
0.0
0
LINE
8
VIEW_HIDDEN
10
214.000001
20
152.826023
30
0.0
11
214.000001
21
152.816672
31
0.0
0
LINE
8
VIEW_HIDDEN
10
214.000001
20
152.816672
30
0.0
11
214.000001
21
152.809386
31
0.0
0
LINE
8
VIEW_HIDDEN
10
214.000001
20
152.809386
30
0.0
11
214.000001
21
152.804174
31
0.0
0
LINE
8
VIEW_HIDDEN
10
214.000001
20
152.804174
30
0.0
11
214.000001
21
152.801044
31
0.0
0
LINE
8
VIEW_HIDDEN
10
214.000001
20
152.801044
30
0.0
11
214.000001
21
152.800000
31
0.0
0
LINE
8
VIEW_HIDDEN
10
214.000001
20
152.800000
30
0.0
11
214.000001
21
152.837608
31
0.0
0
LINE
8
VIEW_HIDDEN
10
214.000001
20
152.837608
30
0.0
11
214.000001
21
152.948547
31
0.0
0
LINE
8
VIEW_HIDDEN
10
214.000001
20
152.948547
30
0.0
11
214.000001
21
153.127253
31
0.0
0
LINE
8
VIEW_HIDDEN
10
214.000001
20
153.127253
30
0.0
11
214.000001
21
153.364766
31
0.0
0
LINE
8
VIEW_HIDDEN
10
214.000001
20
153.364766
30
0.0
11
214.000001
21
153.649175
31
0.0
0
LINE
8
VIEW_HIDDEN
10
214.000001
20
153.649175
30
0.0
11
214.000001
21
153.966219
31
0.0
0
LINE
8
VIEW_HIDDEN
10
214.000001
20
153.966219
30
0.0
11
214.000001
21
154.300000
31
0.0
0
LINE
8
VIEW_HIDDEN
10
214.000001
20
154.300000
30
0.0
11
214.000001
21
154.633782
31
0.0
0
LINE
8
VIEW_HIDDEN
10
214.000001
20
154.633782
30
0.0
11
214.000001
21
154.950826
31
0.0
0
LINE
8
VIEW_HIDDEN
10
214.000001
20
154.950826
30
0.0
11
214.000001
21
155.235235
31
0.0
0
LINE
8
VIEW_HIDDEN
10
214.000001
20
155.235235
30
0.0
11
214.000001
21
155.472748
31
0.0
0
LINE
8
VIEW_HIDDEN
10
214.000001
20
155.472748
30
0.0
11
214.000001
21
155.651454
31
0.0
0
LINE
8
VIEW_HIDDEN
10
214.000001
20
155.651454
30
0.0
11
214.000001
21
155.762392
31
0.0
0
LINE
8
VIEW_HIDDEN
10
214.000001
20
155.762392
30
0.0
11
214.000001
21
155.800000
31
0.0
0
LINE
8
VIEW_HIDDEN
10
214.000001
20
155.800000
30
0.0
11
214.000001
21
155.762392
31
0.0
0
LINE
8
VIEW_HIDDEN
10
214.000001
20
155.762392
30
0.0
11
214.000001
21
155.651454
31
0.0
0
LINE
8
VIEW_HIDDEN
10
214.000001
20
155.651454
30
0.0
11
214.000001
21
155.472748
31
0.0
0
LINE
8
VIEW_HIDDEN
10
214.000001
20
155.472748
30
0.0
11
214.000001
21
155.235235
31
0.0
0
LINE
8
VIEW_HIDDEN
10
214.000001
20
155.235235
30
0.0
11
214.000001
21
154.950826
31
0.0
0
LINE
8
VIEW_HIDDEN
10
214.000001
20
154.950826
30
0.0
11
214.000001
21
154.633782
31
0.0
0
LINE
8
VIEW_HIDDEN
10
214.000001
20
154.633782
30
0.0
11
214.000001
21
154.300000
31
0.0
0
LINE
8
VIEW_HIDDEN
10
214.000001
20
154.300000
30
0.0
11
214.000001
21
153.966219
31
0.0
0
LINE
8
VIEW_HIDDEN
10
214.000001
20
153.966219
30
0.0
11
214.000001
21
153.649175
31
0.0
0
LINE
8
VIEW_HIDDEN
10
214.000001
20
153.649175
30
0.0
11
214.000001
21
153.364766
31
0.0
0
LINE
8
VIEW_HIDDEN
10
214.000001
20
153.364766
30
0.0
11
214.000001
21
153.127253
31
0.0
0
LINE
8
VIEW_HIDDEN
10
214.000001
20
153.127253
30
0.0
11
214.000001
21
152.948547
31
0.0
0
LINE
8
VIEW_HIDDEN
10
214.000001
20
152.948547
30
0.0
11
214.000001
21
152.837608
31
0.0
0
LINE
8
VIEW_HIDDEN
10
214.000001
20
152.837608
30
0.0
11
214.000001
21
152.800000
31
0.0
0
LINE
8
VIEW_HIDDEN
10
214.000001
20
152.800000
30
0.0
11
214.000001
21
152.801044
31
0.0
0
LINE
8
VIEW_HIDDEN
10
214.000001
20
152.801044
30
0.0
11
214.000001
21
152.804174
31
0.0
0
LINE
8
VIEW_HIDDEN
10
214.000001
20
152.804174
30
0.0
11
214.000001
21
152.809386
31
0.0
0
LINE
8
VIEW_HIDDEN
10
214.000001
20
152.809386
30
0.0
11
214.000001
21
152.816672
31
0.0
0
LINE
8
VIEW_HIDDEN
10
214.000001
20
152.816672
30
0.0
11
214.000001
21
152.826023
31
0.0
0
LINE
8
VIEW_HIDDEN
10
214.000001
20
152.826023
30
0.0
11
214.000001
21
152.837425
31
0.0
0
LINE
8
VIEW_HIDDEN
10
214.000001
20
152.837425
30
0.0
11
214.000001
21
152.850863
31
0.0
0
LINE
8
VIEW_HIDDEN
10
214.000001
20
152.850863
30
0.0
11
214.000001
21
152.866317
31
0.0
0
LINE
8
VIEW_HIDDEN
10
214.000001
20
152.866317
30
0.0
11
214.000001
21
152.883767
31
0.0
0
LINE
8
VIEW_HIDDEN
10
214.000001
20
152.883767
30
0.0
11
214.000001
21
152.903188
31
0.0
0
LINE
8
VIEW_HIDDEN
10
214.000001
20
152.903188
30
0.0
11
214.000001
21
152.924552
31
0.0
0
LINE
8
VIEW_HIDDEN
10
214.000001
20
152.924552
30
0.0
11
214.000001
21
152.947832
31
0.0
0
LINE
8
VIEW_HIDDEN
10
214.000001
20
152.947832
30
0.0
11
214.000001
21
152.972993
31
0.0
0
LINE
8
VIEW_HIDDEN
10
214.000001
20
152.972993
30
0.0
11
214.000001
21
153.000000
31
0.0
0
LINE
8
VIEW_HIDDEN
10
214.000001
20
156.200000
30
0.0
11
214.000001
21
155.800000
31
0.0
0
LINE
8
VIEW_HIDDEN
10
214.000001
20
159.000000
30
0.0
11
214.000001
21
159.027008
31
0.0
0
LINE
8
VIEW_HIDDEN
10
214.000001
20
159.027008
30
0.0
11
214.000001
21
159.052169
31
0.0
0
LINE
8
VIEW_HIDDEN
10
214.000001
20
159.052169
30
0.0
11
214.000001
21
159.075448
31
0.0
0
LINE
8
VIEW_HIDDEN
10
214.000001
20
159.075448
30
0.0
11
214.000001
21
159.096813
31
0.0
0
LINE
8
VIEW_HIDDEN
10
214.000001
20
159.096813
30
0.0
11
214.000001
21
159.116234
31
0.0
0
LINE
8
VIEW_HIDDEN
10
214.000001
20
159.116234
30
0.0
11
214.000001
21
159.133684
31
0.0
0
LINE
8
VIEW_HIDDEN
10
214.000001
20
159.133684
30
0.0
11
214.000001
21
159.149138
31
0.0
0
LINE
8
VIEW_HIDDEN
10
214.000001
20
159.149138
30
0.0
11
214.000001
21
159.162576
31
0.0
0
LINE
8
VIEW_HIDDEN
10
214.000001
20
159.162576
30
0.0
11
214.000001
21
159.173978
31
0.0
0
LINE
8
VIEW_HIDDEN
10
214.000001
20
159.173978
30
0.0
11
214.000001
21
159.183328
31
0.0
0
LINE
8
VIEW_HIDDEN
10
214.000001
20
159.183328
30
0.0
11
214.000001
21
159.190615
31
0.0
0
LINE
8
VIEW_HIDDEN
10
214.000001
20
159.190615
30
0.0
11
214.000001
21
159.195827
31
0.0
0
LINE
8
VIEW_HIDDEN
10
214.000001
20
159.195827
30
0.0
11
214.000001
21
159.198956
31
0.0
0
LINE
8
VIEW_HIDDEN
10
214.000001
20
159.198956
30
0.0
11
214.000001
21
159.200000
31
0.0
0
LINE
8
VIEW_HIDDEN
10
214.000001
20
159.200000
30
0.0
11
214.000001
21
159.162392
31
0.0
0
LINE
8
VIEW_HIDDEN
10
214.000001
20
159.162392
30
0.0
11
214.000001
21
159.051454
31
0.0
0
LINE
8
VIEW_HIDDEN
10
214.000001
20
159.051454
30
0.0
11
214.000001
21
158.872748
31
0.0
0
LINE
8
VIEW_HIDDEN
10
214.000001
20
158.872748
30
0.0
11
214.000001
21
158.635235
31
0.0
0
LINE
8
VIEW_HIDDEN
10
214.000001
20
158.635235
30
0.0
11
214.000001
21
158.350826
31
0.0
0
LINE
8
VIEW_HIDDEN
10
214.000001
20
158.350826
30
0.0
11
214.000001
21
158.033782
31
0.0
0
LINE
8
VIEW_HIDDEN
10
214.000001
20
158.033782
30
0.0
11
214.000001
21
157.700000
31
0.0
0
LINE
8
VIEW_HIDDEN
10
214.000001
20
157.700000
30
0.0
11
214.000001
21
157.366219
31
0.0
0
LINE
8
VIEW_HIDDEN
10
214.000001
20
157.366219
30
0.0
11
214.000001
21
157.049175
31
0.0
0
LINE
8
VIEW_HIDDEN
10
214.000001
20
157.049175
30
0.0
11
214.000001
21
156.764766
31
0.0
0
LINE
8
VIEW_HIDDEN
10
214.000001
20
156.764766
30
0.0
11
214.000001
21
156.527253
31
0.0
0
LINE
8
VIEW_HIDDEN
10
214.000001
20
156.527253
30
0.0
11
214.000001
21
156.348547
31
0.0
0
LINE
8
VIEW_HIDDEN
10
214.000001
20
156.348547
30
0.0
11
214.000001
21
156.237608
31
0.0
0
LINE
8
VIEW_HIDDEN
10
214.000001
20
156.237608
30
0.0
11
214.000001
21
156.200000
31
0.0
0
LINE
8
VIEW_HIDDEN
10
214.000001
20
156.200000
30
0.0
11
214.000001
21
156.237608
31
0.0
0
LINE
8
VIEW_HIDDEN
10
214.000001
20
156.237608
30
0.0
11
214.000001
21
156.348547
31
0.0
0
LINE
8
VIEW_HIDDEN
10
214.000001
20
156.348547
30
0.0
11
214.000001
21
156.527253
31
0.0
0
LINE
8
VIEW_HIDDEN
10
214.000001
20
156.527253
30
0.0
11
214.000001
21
156.764766
31
0.0
0
LINE
8
VIEW_HIDDEN
10
214.000001
20
156.764766
30
0.0
11
214.000001
21
157.049175
31
0.0
0
LINE
8
VIEW_HIDDEN
10
214.000001
20
157.049175
30
0.0
11
214.000001
21
157.366219
31
0.0
0
LINE
8
VIEW_HIDDEN
10
214.000001
20
157.366219
30
0.0
11
214.000001
21
157.700000
31
0.0
0
LINE
8
VIEW_HIDDEN
10
214.000001
20
157.700000
30
0.0
11
214.000001
21
158.033782
31
0.0
0
LINE
8
VIEW_HIDDEN
10
214.000001
20
158.033782
30
0.0
11
214.000001
21
158.350826
31
0.0
0
LINE
8
VIEW_HIDDEN
10
214.000001
20
158.350826
30
0.0
11
214.000001
21
158.635235
31
0.0
0
LINE
8
VIEW_HIDDEN
10
214.000001
20
158.635235
30
0.0
11
214.000001
21
158.872748
31
0.0
0
LINE
8
VIEW_HIDDEN
10
214.000001
20
158.872748
30
0.0
11
214.000001
21
159.051454
31
0.0
0
LINE
8
VIEW_HIDDEN
10
214.000001
20
159.051454
30
0.0
11
214.000001
21
159.162392
31
0.0
0
LINE
8
VIEW_HIDDEN
10
214.000001
20
159.162392
30
0.0
11
214.000001
21
159.200000
31
0.0
0
LINE
8
VIEW_HIDDEN
10
214.000001
20
159.200000
30
0.0
11
214.000001
21
159.198956
31
0.0
0
LINE
8
VIEW_HIDDEN
10
214.000001
20
159.198956
30
0.0
11
214.000001
21
159.195827
31
0.0
0
LINE
8
VIEW_HIDDEN
10
214.000001
20
159.195827
30
0.0
11
214.000001
21
159.190615
31
0.0
0
LINE
8
VIEW_HIDDEN
10
214.000001
20
159.190615
30
0.0
11
214.000001
21
159.183328
31
0.0
0
LINE
8
VIEW_HIDDEN
10
214.000001
20
159.183328
30
0.0
11
214.000001
21
159.173978
31
0.0
0
LINE
8
VIEW_HIDDEN
10
214.000001
20
159.173978
30
0.0
11
214.000001
21
159.162576
31
0.0
0
LINE
8
VIEW_HIDDEN
10
214.000001
20
159.162576
30
0.0
11
214.000001
21
159.149138
31
0.0
0
LINE
8
VIEW_HIDDEN
10
214.000001
20
159.149138
30
0.0
11
214.000001
21
159.133684
31
0.0
0
LINE
8
VIEW_HIDDEN
10
214.000001
20
159.133684
30
0.0
11
214.000001
21
159.116234
31
0.0
0
LINE
8
VIEW_HIDDEN
10
214.000001
20
159.116234
30
0.0
11
214.000001
21
159.096813
31
0.0
0
LINE
8
VIEW_HIDDEN
10
214.000001
20
159.096813
30
0.0
11
214.000001
21
159.075448
31
0.0
0
LINE
8
VIEW_HIDDEN
10
214.000001
20
159.075448
30
0.0
11
214.000001
21
159.052169
31
0.0
0
LINE
8
VIEW_HIDDEN
10
214.000001
20
159.052169
30
0.0
11
214.000001
21
159.027008
31
0.0
0
LINE
8
VIEW_HIDDEN
10
214.000001
20
159.027008
30
0.0
11
214.000001
21
159.000000
31
0.0
0
LINE
8
VIEW_HIDDEN
10
214.000001
20
155.800000
30
0.0
11
214.000001
21
156.200000
31
0.0
0
LINE
8
VIEW_HIDDEN
10
220.000001
20
151.000000
30
0.0
11
220.000001
21
161.000000
31
0.0
0
LINE
8
VIEW_HIDDEN
10
220.000001
20
161.000000
30
0.0
11
220.000001
21
173.500000
31
0.0
0
LINE
8
VIEW_HIDDEN
10
220.000001
20
173.500000
30
0.0
11
220.000001
21
181.000000
31
0.0
0
LINE
8
VIEW_HIDDEN
10
220.000001
20
181.000000
30
0.0
11
220.000001
21
193.500000
31
0.0
0
LINE
8
VIEW_HIDDEN
10
220.000001
20
193.500000
30
0.0
11
220.000001
21
201.000000
31
0.0
0
LINE
8
VIEW_HIDDEN
10
220.000001
20
153.000000
30
0.0
11
220.000001
21
152.972993
31
0.0
0
LINE
8
VIEW_HIDDEN
10
220.000001
20
152.972993
30
0.0
11
220.000001
21
152.947832
31
0.0
0
LINE
8
VIEW_HIDDEN
10
220.000001
20
152.947832
30
0.0
11
220.000001
21
152.924552
31
0.0
0
LINE
8
VIEW_HIDDEN
10
220.000001
20
152.924552
30
0.0
11
220.000001
21
152.903188
31
0.0
0
LINE
8
VIEW_HIDDEN
10
220.000001
20
152.903188
30
0.0
11
220.000001
21
152.883767
31
0.0
0
LINE
8
VIEW_HIDDEN
10
220.000001
20
152.883767
30
0.0
11
220.000001
21
152.866317
31
0.0
0
LINE
8
VIEW_HIDDEN
10
220.000001
20
152.866317
30
0.0
11
220.000001
21
152.850863
31
0.0
0
LINE
8
VIEW_HIDDEN
10
220.000001
20
152.850863
30
0.0
11
220.000001
21
152.837425
31
0.0
0
LINE
8
VIEW_HIDDEN
10
220.000001
20
152.837425
30
0.0
11
220.000001
21
152.826023
31
0.0
0
LINE
8
VIEW_HIDDEN
10
220.000001
20
152.826023
30
0.0
11
220.000001
21
152.816672
31
0.0
0
LINE
8
VIEW_HIDDEN
10
220.000001
20
152.816672
30
0.0
11
220.000001
21
152.809386
31
0.0
0
LINE
8
VIEW_HIDDEN
10
220.000001
20
152.809386
30
0.0
11
220.000001
21
152.804174
31
0.0
0
LINE
8
VIEW_HIDDEN
10
220.000001
20
152.804174
30
0.0
11
220.000001
21
152.801044
31
0.0
0
LINE
8
VIEW_HIDDEN
10
220.000001
20
152.801044
30
0.0
11
220.000001
21
152.800000
31
0.0
0
LINE
8
VIEW_HIDDEN
10
220.000001
20
152.800000
30
0.0
11
220.000001
21
152.837608
31
0.0
0
LINE
8
VIEW_HIDDEN
10
220.000001
20
152.837608
30
0.0
11
220.000001
21
152.948547
31
0.0
0
LINE
8
VIEW_HIDDEN
10
220.000001
20
152.948547
30
0.0
11
220.000001
21
153.127253
31
0.0
0
LINE
8
VIEW_HIDDEN
10
220.000001
20
153.127253
30
0.0
11
220.000001
21
153.364766
31
0.0
0
LINE
8
VIEW_HIDDEN
10
220.000001
20
153.364766
30
0.0
11
220.000001
21
153.649175
31
0.0
0
LINE
8
VIEW_HIDDEN
10
220.000001
20
153.649175
30
0.0
11
220.000001
21
153.966219
31
0.0
0
LINE
8
VIEW_HIDDEN
10
220.000001
20
153.966219
30
0.0
11
220.000001
21
154.300000
31
0.0
0
LINE
8
VIEW_HIDDEN
10
220.000001
20
154.300000
30
0.0
11
220.000001
21
154.633782
31
0.0
0
LINE
8
VIEW_HIDDEN
10
220.000001
20
154.633782
30
0.0
11
220.000001
21
154.950826
31
0.0
0
LINE
8
VIEW_HIDDEN
10
220.000001
20
154.950826
30
0.0
11
220.000001
21
155.235235
31
0.0
0
LINE
8
VIEW_HIDDEN
10
220.000001
20
155.235235
30
0.0
11
220.000001
21
155.472748
31
0.0
0
LINE
8
VIEW_HIDDEN
10
220.000001
20
155.472748
30
0.0
11
220.000001
21
155.651454
31
0.0
0
LINE
8
VIEW_HIDDEN
10
220.000001
20
155.651454
30
0.0
11
220.000001
21
155.762392
31
0.0
0
LINE
8
VIEW_HIDDEN
10
220.000001
20
155.762392
30
0.0
11
220.000001
21
155.800000
31
0.0
0
LINE
8
VIEW_HIDDEN
10
220.000001
20
155.800000
30
0.0
11
220.000001
21
155.762392
31
0.0
0
LINE
8
VIEW_HIDDEN
10
220.000001
20
155.762392
30
0.0
11
220.000001
21
155.651454
31
0.0
0
LINE
8
VIEW_HIDDEN
10
220.000001
20
155.651454
30
0.0
11
220.000001
21
155.472748
31
0.0
0
LINE
8
VIEW_HIDDEN
10
220.000001
20
155.472748
30
0.0
11
220.000001
21
155.235235
31
0.0
0
LINE
8
VIEW_HIDDEN
10
220.000001
20
155.235235
30
0.0
11
220.000001
21
154.950826
31
0.0
0
LINE
8
VIEW_HIDDEN
10
220.000001
20
154.950826
30
0.0
11
220.000001
21
154.633782
31
0.0
0
LINE
8
VIEW_HIDDEN
10
220.000001
20
154.633782
30
0.0
11
220.000001
21
154.300000
31
0.0
0
LINE
8
VIEW_HIDDEN
10
220.000001
20
154.300000
30
0.0
11
220.000001
21
153.966219
31
0.0
0
LINE
8
VIEW_HIDDEN
10
220.000001
20
153.966219
30
0.0
11
220.000001
21
153.649175
31
0.0
0
LINE
8
VIEW_HIDDEN
10
220.000001
20
153.649175
30
0.0
11
220.000001
21
153.364766
31
0.0
0
LINE
8
VIEW_HIDDEN
10
220.000001
20
153.364766
30
0.0
11
220.000001
21
153.127253
31
0.0
0
LINE
8
VIEW_HIDDEN
10
220.000001
20
153.127253
30
0.0
11
220.000001
21
152.948547
31
0.0
0
LINE
8
VIEW_HIDDEN
10
220.000001
20
152.948547
30
0.0
11
220.000001
21
152.837608
31
0.0
0
LINE
8
VIEW_HIDDEN
10
220.000001
20
152.837608
30
0.0
11
220.000001
21
152.800000
31
0.0
0
LINE
8
VIEW_HIDDEN
10
220.000001
20
152.800000
30
0.0
11
220.000001
21
152.801044
31
0.0
0
LINE
8
VIEW_HIDDEN
10
220.000001
20
152.801044
30
0.0
11
220.000001
21
152.804174
31
0.0
0
LINE
8
VIEW_HIDDEN
10
220.000001
20
152.804174
30
0.0
11
220.000001
21
152.809386
31
0.0
0
LINE
8
VIEW_HIDDEN
10
220.000001
20
152.809386
30
0.0
11
220.000001
21
152.816672
31
0.0
0
LINE
8
VIEW_HIDDEN
10
220.000001
20
152.816672
30
0.0
11
220.000001
21
152.826023
31
0.0
0
LINE
8
VIEW_HIDDEN
10
220.000001
20
152.826023
30
0.0
11
220.000001
21
152.837425
31
0.0
0
LINE
8
VIEW_HIDDEN
10
220.000001
20
152.837425
30
0.0
11
220.000001
21
152.850863
31
0.0
0
LINE
8
VIEW_HIDDEN
10
220.000001
20
152.850863
30
0.0
11
220.000001
21
152.866317
31
0.0
0
LINE
8
VIEW_HIDDEN
10
220.000001
20
152.866317
30
0.0
11
220.000001
21
152.883767
31
0.0
0
LINE
8
VIEW_HIDDEN
10
220.000001
20
152.883767
30
0.0
11
220.000001
21
152.903188
31
0.0
0
LINE
8
VIEW_HIDDEN
10
220.000001
20
152.903188
30
0.0
11
220.000001
21
152.924552
31
0.0
0
LINE
8
VIEW_HIDDEN
10
220.000001
20
152.924552
30
0.0
11
220.000001
21
152.947832
31
0.0
0
LINE
8
VIEW_HIDDEN
10
220.000001
20
152.947832
30
0.0
11
220.000001
21
152.972993
31
0.0
0
LINE
8
VIEW_HIDDEN
10
220.000001
20
152.972993
30
0.0
11
220.000001
21
153.000000
31
0.0
0
LINE
8
VIEW_HIDDEN
10
220.000001
20
156.200000
30
0.0
11
220.000001
21
155.800000
31
0.0
0
LINE
8
VIEW_HIDDEN
10
220.000001
20
159.000000
30
0.0
11
220.000001
21
159.027008
31
0.0
0
LINE
8
VIEW_HIDDEN
10
220.000001
20
159.027008
30
0.0
11
220.000001
21
159.052169
31
0.0
0
LINE
8
VIEW_HIDDEN
10
220.000001
20
159.052169
30
0.0
11
220.000001
21
159.075448
31
0.0
0
LINE
8
VIEW_HIDDEN
10
220.000001
20
159.075448
30
0.0
11
220.000001
21
159.096813
31
0.0
0
LINE
8
VIEW_HIDDEN
10
220.000001
20
159.096813
30
0.0
11
220.000001
21
159.116234
31
0.0
0
LINE
8
VIEW_HIDDEN
10
220.000001
20
159.116234
30
0.0
11
220.000001
21
159.133684
31
0.0
0
LINE
8
VIEW_HIDDEN
10
220.000001
20
159.133684
30
0.0
11
220.000001
21
159.149138
31
0.0
0
LINE
8
VIEW_HIDDEN
10
220.000001
20
159.149138
30
0.0
11
220.000001
21
159.162576
31
0.0
0
LINE
8
VIEW_HIDDEN
10
220.000001
20
159.162576
30
0.0
11
220.000001
21
159.173978
31
0.0
0
LINE
8
VIEW_HIDDEN
10
220.000001
20
159.173978
30
0.0
11
220.000001
21
159.183328
31
0.0
0
LINE
8
VIEW_HIDDEN
10
220.000001
20
159.183328
30
0.0
11
220.000001
21
159.190615
31
0.0
0
LINE
8
VIEW_HIDDEN
10
220.000001
20
159.190615
30
0.0
11
220.000001
21
159.195827
31
0.0
0
LINE
8
VIEW_HIDDEN
10
220.000001
20
159.195827
30
0.0
11
220.000001
21
159.198956
31
0.0
0
LINE
8
VIEW_HIDDEN
10
220.000001
20
159.198956
30
0.0
11
220.000001
21
159.200000
31
0.0
0
LINE
8
VIEW_HIDDEN
10
220.000001
20
159.200000
30
0.0
11
220.000001
21
159.162392
31
0.0
0
LINE
8
VIEW_HIDDEN
10
220.000001
20
159.162392
30
0.0
11
220.000001
21
159.051454
31
0.0
0
LINE
8
VIEW_HIDDEN
10
220.000001
20
159.051454
30
0.0
11
220.000001
21
158.872748
31
0.0
0
LINE
8
VIEW_HIDDEN
10
220.000001
20
158.872748
30
0.0
11
220.000001
21
158.635235
31
0.0
0
LINE
8
VIEW_HIDDEN
10
220.000001
20
158.635235
30
0.0
11
220.000001
21
158.350826
31
0.0
0
LINE
8
VIEW_HIDDEN
10
220.000001
20
158.350826
30
0.0
11
220.000001
21
158.033782
31
0.0
0
LINE
8
VIEW_HIDDEN
10
220.000001
20
158.033782
30
0.0
11
220.000001
21
157.700000
31
0.0
0
LINE
8
VIEW_HIDDEN
10
220.000001
20
157.700000
30
0.0
11
220.000001
21
157.366219
31
0.0
0
LINE
8
VIEW_HIDDEN
10
220.000001
20
157.366219
30
0.0
11
220.000001
21
157.049175
31
0.0
0
LINE
8
VIEW_HIDDEN
10
220.000001
20
157.049175
30
0.0
11
220.000001
21
156.764766
31
0.0
0
LINE
8
VIEW_HIDDEN
10
220.000001
20
156.764766
30
0.0
11
220.000001
21
156.527253
31
0.0
0
LINE
8
VIEW_HIDDEN
10
220.000001
20
156.527253
30
0.0
11
220.000001
21
156.348547
31
0.0
0
LINE
8
VIEW_HIDDEN
10
220.000001
20
156.348547
30
0.0
11
220.000001
21
156.237608
31
0.0
0
LINE
8
VIEW_HIDDEN
10
220.000001
20
156.237608
30
0.0
11
220.000001
21
156.200000
31
0.0
0
LINE
8
VIEW_HIDDEN
10
220.000001
20
156.200000
30
0.0
11
220.000001
21
156.237608
31
0.0
0
LINE
8
VIEW_HIDDEN
10
220.000001
20
156.237608
30
0.0
11
220.000001
21
156.348547
31
0.0
0
LINE
8
VIEW_HIDDEN
10
220.000001
20
156.348547
30
0.0
11
220.000001
21
156.527253
31
0.0
0
LINE
8
VIEW_HIDDEN
10
220.000001
20
156.527253
30
0.0
11
220.000001
21
156.764766
31
0.0
0
LINE
8
VIEW_HIDDEN
10
220.000001
20
156.764766
30
0.0
11
220.000001
21
157.049175
31
0.0
0
LINE
8
VIEW_HIDDEN
10
220.000001
20
157.049175
30
0.0
11
220.000001
21
157.366219
31
0.0
0
LINE
8
VIEW_HIDDEN
10
220.000001
20
157.366219
30
0.0
11
220.000001
21
157.700000
31
0.0
0
LINE
8
VIEW_HIDDEN
10
220.000001
20
157.700000
30
0.0
11
220.000001
21
158.033782
31
0.0
0
LINE
8
VIEW_HIDDEN
10
220.000001
20
158.033782
30
0.0
11
220.000001
21
158.350826
31
0.0
0
LINE
8
VIEW_HIDDEN
10
220.000001
20
158.350826
30
0.0
11
220.000001
21
158.635235
31
0.0
0
LINE
8
VIEW_HIDDEN
10
220.000001
20
158.635235
30
0.0
11
220.000001
21
158.872748
31
0.0
0
LINE
8
VIEW_HIDDEN
10
220.000001
20
158.872748
30
0.0
11
220.000001
21
159.051454
31
0.0
0
LINE
8
VIEW_HIDDEN
10
220.000001
20
159.051454
30
0.0
11
220.000001
21
159.162392
31
0.0
0
LINE
8
VIEW_HIDDEN
10
220.000001
20
159.162392
30
0.0
11
220.000001
21
159.200000
31
0.0
0
LINE
8
VIEW_HIDDEN
10
220.000001
20
159.200000
30
0.0
11
220.000001
21
159.198956
31
0.0
0
LINE
8
VIEW_HIDDEN
10
220.000001
20
159.198956
30
0.0
11
220.000001
21
159.195827
31
0.0
0
LINE
8
VIEW_HIDDEN
10
220.000001
20
159.195827
30
0.0
11
220.000001
21
159.190615
31
0.0
0
LINE
8
VIEW_HIDDEN
10
220.000001
20
159.190615
30
0.0
11
220.000001
21
159.183328
31
0.0
0
LINE
8
VIEW_HIDDEN
10
220.000001
20
159.183328
30
0.0
11
220.000001
21
159.173978
31
0.0
0
LINE
8
VIEW_HIDDEN
10
220.000001
20
159.173978
30
0.0
11
220.000001
21
159.162576
31
0.0
0
LINE
8
VIEW_HIDDEN
10
220.000001
20
159.162576
30
0.0
11
220.000001
21
159.149138
31
0.0
0
LINE
8
VIEW_HIDDEN
10
220.000001
20
159.149138
30
0.0
11
220.000001
21
159.133684
31
0.0
0
LINE
8
VIEW_HIDDEN
10
220.000001
20
159.133684
30
0.0
11
220.000001
21
159.116234
31
0.0
0
LINE
8
VIEW_HIDDEN
10
220.000001
20
159.116234
30
0.0
11
220.000001
21
159.096813
31
0.0
0
LINE
8
VIEW_HIDDEN
10
220.000001
20
159.096813
30
0.0
11
220.000001
21
159.075448
31
0.0
0
LINE
8
VIEW_HIDDEN
10
220.000001
20
159.075448
30
0.0
11
220.000001
21
159.052169
31
0.0
0
LINE
8
VIEW_HIDDEN
10
220.000001
20
159.052169
30
0.0
11
220.000001
21
159.027008
31
0.0
0
LINE
8
VIEW_HIDDEN
10
220.000001
20
159.027008
30
0.0
11
220.000001
21
159.000000
31
0.0
0
LINE
8
VIEW_HIDDEN
10
220.000001
20
155.800000
30
0.0
11
220.000001
21
156.200000
31
0.0
0
LINE
8
VIEW_HIDDEN
10
220.000001
20
153.000000
30
0.0
11
220.000001
21
152.972993
31
0.0
0
LINE
8
VIEW_HIDDEN
10
220.000001
20
152.972993
30
0.0
11
220.000001
21
152.947832
31
0.0
0
LINE
8
VIEW_HIDDEN
10
220.000001
20
152.947832
30
0.0
11
220.000001
21
152.924552
31
0.0
0
LINE
8
VIEW_HIDDEN
10
220.000001
20
152.924552
30
0.0
11
220.000001
21
152.903188
31
0.0
0
LINE
8
VIEW_HIDDEN
10
220.000001
20
152.903188
30
0.0
11
220.000001
21
152.883767
31
0.0
0
LINE
8
VIEW_HIDDEN
10
220.000001
20
152.883767
30
0.0
11
220.000001
21
152.866317
31
0.0
0
LINE
8
VIEW_HIDDEN
10
220.000001
20
152.866317
30
0.0
11
220.000001
21
152.850863
31
0.0
0
LINE
8
VIEW_HIDDEN
10
220.000001
20
152.850863
30
0.0
11
220.000001
21
152.837425
31
0.0
0
LINE
8
VIEW_HIDDEN
10
220.000001
20
152.837425
30
0.0
11
220.000001
21
152.826023
31
0.0
0
LINE
8
VIEW_HIDDEN
10
220.000001
20
152.826023
30
0.0
11
220.000001
21
152.816672
31
0.0
0
LINE
8
VIEW_HIDDEN
10
220.000001
20
152.816672
30
0.0
11
220.000001
21
152.809386
31
0.0
0
LINE
8
VIEW_HIDDEN
10
220.000001
20
152.809386
30
0.0
11
220.000001
21
152.804174
31
0.0
0
LINE
8
VIEW_HIDDEN
10
220.000001
20
152.804174
30
0.0
11
220.000001
21
152.801044
31
0.0
0
LINE
8
VIEW_HIDDEN
10
220.000001
20
152.801044
30
0.0
11
220.000001
21
152.800000
31
0.0
0
LINE
8
VIEW_HIDDEN
10
220.000001
20
152.800000
30
0.0
11
220.000001
21
152.837608
31
0.0
0
LINE
8
VIEW_HIDDEN
10
220.000001
20
152.837608
30
0.0
11
220.000001
21
152.948547
31
0.0
0
LINE
8
VIEW_HIDDEN
10
220.000001
20
152.948547
30
0.0
11
220.000001
21
153.127253
31
0.0
0
LINE
8
VIEW_HIDDEN
10
220.000001
20
153.127253
30
0.0
11
220.000001
21
153.364766
31
0.0
0
LINE
8
VIEW_HIDDEN
10
220.000001
20
153.364766
30
0.0
11
220.000001
21
153.649175
31
0.0
0
LINE
8
VIEW_HIDDEN
10
220.000001
20
153.649175
30
0.0
11
220.000001
21
153.966219
31
0.0
0
LINE
8
VIEW_HIDDEN
10
220.000001
20
153.966219
30
0.0
11
220.000001
21
154.300000
31
0.0
0
LINE
8
VIEW_HIDDEN
10
220.000001
20
154.300000
30
0.0
11
220.000001
21
154.633782
31
0.0
0
LINE
8
VIEW_HIDDEN
10
220.000001
20
154.633782
30
0.0
11
220.000001
21
154.950826
31
0.0
0
LINE
8
VIEW_HIDDEN
10
220.000001
20
154.950826
30
0.0
11
220.000001
21
155.235235
31
0.0
0
LINE
8
VIEW_HIDDEN
10
220.000001
20
155.235235
30
0.0
11
220.000001
21
155.472748
31
0.0
0
LINE
8
VIEW_HIDDEN
10
220.000001
20
155.472748
30
0.0
11
220.000001
21
155.651454
31
0.0
0
LINE
8
VIEW_HIDDEN
10
220.000001
20
155.651454
30
0.0
11
220.000001
21
155.762392
31
0.0
0
LINE
8
VIEW_HIDDEN
10
220.000001
20
155.762392
30
0.0
11
220.000001
21
155.800000
31
0.0
0
LINE
8
VIEW_HIDDEN
10
220.000001
20
155.800000
30
0.0
11
220.000001
21
155.762392
31
0.0
0
LINE
8
VIEW_HIDDEN
10
220.000001
20
155.762392
30
0.0
11
220.000001
21
155.651454
31
0.0
0
LINE
8
VIEW_HIDDEN
10
220.000001
20
155.651454
30
0.0
11
220.000001
21
155.472748
31
0.0
0
LINE
8
VIEW_HIDDEN
10
220.000001
20
155.472748
30
0.0
11
220.000001
21
155.235235
31
0.0
0
LINE
8
VIEW_HIDDEN
10
220.000001
20
155.235235
30
0.0
11
220.000001
21
154.950826
31
0.0
0
LINE
8
VIEW_HIDDEN
10
220.000001
20
154.950826
30
0.0
11
220.000001
21
154.633782
31
0.0
0
LINE
8
VIEW_HIDDEN
10
220.000001
20
154.633782
30
0.0
11
220.000001
21
154.300000
31
0.0
0
LINE
8
VIEW_HIDDEN
10
220.000001
20
154.300000
30
0.0
11
220.000001
21
153.966219
31
0.0
0
LINE
8
VIEW_HIDDEN
10
220.000001
20
153.966219
30
0.0
11
220.000001
21
153.649175
31
0.0
0
LINE
8
VIEW_HIDDEN
10
220.000001
20
153.649175
30
0.0
11
220.000001
21
153.364766
31
0.0
0
LINE
8
VIEW_HIDDEN
10
220.000001
20
153.364766
30
0.0
11
220.000001
21
153.127253
31
0.0
0
LINE
8
VIEW_HIDDEN
10
220.000001
20
153.127253
30
0.0
11
220.000001
21
152.948547
31
0.0
0
LINE
8
VIEW_HIDDEN
10
220.000001
20
152.948547
30
0.0
11
220.000001
21
152.837608
31
0.0
0
LINE
8
VIEW_HIDDEN
10
220.000001
20
152.837608
30
0.0
11
220.000001
21
152.800000
31
0.0
0
LINE
8
VIEW_HIDDEN
10
220.000001
20
152.800000
30
0.0
11
220.000001
21
152.801044
31
0.0
0
LINE
8
VIEW_HIDDEN
10
220.000001
20
152.801044
30
0.0
11
220.000001
21
152.804174
31
0.0
0
LINE
8
VIEW_HIDDEN
10
220.000001
20
152.804174
30
0.0
11
220.000001
21
152.809386
31
0.0
0
LINE
8
VIEW_HIDDEN
10
220.000001
20
152.809386
30
0.0
11
220.000001
21
152.816672
31
0.0
0
LINE
8
VIEW_HIDDEN
10
220.000001
20
152.816672
30
0.0
11
220.000001
21
152.826023
31
0.0
0
LINE
8
VIEW_HIDDEN
10
220.000001
20
152.826023
30
0.0
11
220.000001
21
152.837425
31
0.0
0
LINE
8
VIEW_HIDDEN
10
220.000001
20
152.837425
30
0.0
11
220.000001
21
152.850863
31
0.0
0
LINE
8
VIEW_HIDDEN
10
220.000001
20
152.850863
30
0.0
11
220.000001
21
152.866317
31
0.0
0
LINE
8
VIEW_HIDDEN
10
220.000001
20
152.866317
30
0.0
11
220.000001
21
152.883767
31
0.0
0
LINE
8
VIEW_HIDDEN
10
220.000001
20
152.883767
30
0.0
11
220.000001
21
152.903188
31
0.0
0
LINE
8
VIEW_HIDDEN
10
220.000001
20
152.903188
30
0.0
11
220.000001
21
152.924552
31
0.0
0
LINE
8
VIEW_HIDDEN
10
220.000001
20
152.924552
30
0.0
11
220.000001
21
152.947832
31
0.0
0
LINE
8
VIEW_HIDDEN
10
220.000001
20
152.947832
30
0.0
11
220.000001
21
152.972993
31
0.0
0
LINE
8
VIEW_HIDDEN
10
220.000001
20
152.972993
30
0.0
11
220.000001
21
153.000000
31
0.0
0
LINE
8
VIEW_HIDDEN
10
220.000001
20
156.200000
30
0.0
11
220.000001
21
155.800000
31
0.0
0
LINE
8
VIEW_HIDDEN
10
220.000001
20
159.000000
30
0.0
11
220.000001
21
159.027008
31
0.0
0
LINE
8
VIEW_HIDDEN
10
220.000001
20
159.027008
30
0.0
11
220.000001
21
159.052169
31
0.0
0
LINE
8
VIEW_HIDDEN
10
220.000001
20
159.052169
30
0.0
11
220.000001
21
159.075448
31
0.0
0
LINE
8
VIEW_HIDDEN
10
220.000001
20
159.075448
30
0.0
11
220.000001
21
159.096813
31
0.0
0
LINE
8
VIEW_HIDDEN
10
220.000001
20
159.096813
30
0.0
11
220.000001
21
159.116234
31
0.0
0
LINE
8
VIEW_HIDDEN
10
220.000001
20
159.116234
30
0.0
11
220.000001
21
159.133684
31
0.0
0
LINE
8
VIEW_HIDDEN
10
220.000001
20
159.133684
30
0.0
11
220.000001
21
159.149138
31
0.0
0
LINE
8
VIEW_HIDDEN
10
220.000001
20
159.149138
30
0.0
11
220.000001
21
159.162576
31
0.0
0
LINE
8
VIEW_HIDDEN
10
220.000001
20
159.162576
30
0.0
11
220.000001
21
159.173978
31
0.0
0
LINE
8
VIEW_HIDDEN
10
220.000001
20
159.173978
30
0.0
11
220.000001
21
159.183328
31
0.0
0
LINE
8
VIEW_HIDDEN
10
220.000001
20
159.183328
30
0.0
11
220.000001
21
159.190615
31
0.0
0
LINE
8
VIEW_HIDDEN
10
220.000001
20
159.190615
30
0.0
11
220.000001
21
159.195827
31
0.0
0
LINE
8
VIEW_HIDDEN
10
220.000001
20
159.195827
30
0.0
11
220.000001
21
159.198956
31
0.0
0
LINE
8
VIEW_HIDDEN
10
220.000001
20
159.198956
30
0.0
11
220.000001
21
159.200000
31
0.0
0
LINE
8
VIEW_HIDDEN
10
220.000001
20
159.200000
30
0.0
11
220.000001
21
159.162392
31
0.0
0
LINE
8
VIEW_HIDDEN
10
220.000001
20
159.162392
30
0.0
11
220.000001
21
159.051454
31
0.0
0
LINE
8
VIEW_HIDDEN
10
220.000001
20
159.051454
30
0.0
11
220.000001
21
158.872748
31
0.0
0
LINE
8
VIEW_HIDDEN
10
220.000001
20
158.872748
30
0.0
11
220.000001
21
158.635235
31
0.0
0
LINE
8
VIEW_HIDDEN
10
220.000001
20
158.635235
30
0.0
11
220.000001
21
158.350826
31
0.0
0
LINE
8
VIEW_HIDDEN
10
220.000001
20
158.350826
30
0.0
11
220.000001
21
158.033782
31
0.0
0
LINE
8
VIEW_HIDDEN
10
220.000001
20
158.033782
30
0.0
11
220.000001
21
157.700000
31
0.0
0
LINE
8
VIEW_HIDDEN
10
220.000001
20
157.700000
30
0.0
11
220.000001
21
157.366219
31
0.0
0
LINE
8
VIEW_HIDDEN
10
220.000001
20
157.366219
30
0.0
11
220.000001
21
157.049175
31
0.0
0
LINE
8
VIEW_HIDDEN
10
220.000001
20
157.049175
30
0.0
11
220.000001
21
156.764766
31
0.0
0
LINE
8
VIEW_HIDDEN
10
220.000001
20
156.764766
30
0.0
11
220.000001
21
156.527253
31
0.0
0
LINE
8
VIEW_HIDDEN
10
220.000001
20
156.527253
30
0.0
11
220.000001
21
156.348547
31
0.0
0
LINE
8
VIEW_HIDDEN
10
220.000001
20
156.348547
30
0.0
11
220.000001
21
156.237608
31
0.0
0
LINE
8
VIEW_HIDDEN
10
220.000001
20
156.237608
30
0.0
11
220.000001
21
156.200000
31
0.0
0
LINE
8
VIEW_HIDDEN
10
220.000001
20
156.200000
30
0.0
11
220.000001
21
156.237608
31
0.0
0
LINE
8
VIEW_HIDDEN
10
220.000001
20
156.237608
30
0.0
11
220.000001
21
156.348547
31
0.0
0
LINE
8
VIEW_HIDDEN
10
220.000001
20
156.348547
30
0.0
11
220.000001
21
156.527253
31
0.0
0
LINE
8
VIEW_HIDDEN
10
220.000001
20
156.527253
30
0.0
11
220.000001
21
156.764766
31
0.0
0
LINE
8
VIEW_HIDDEN
10
220.000001
20
156.764766
30
0.0
11
220.000001
21
157.049175
31
0.0
0
LINE
8
VIEW_HIDDEN
10
220.000001
20
157.049175
30
0.0
11
220.000001
21
157.366219
31
0.0
0
LINE
8
VIEW_HIDDEN
10
220.000001
20
157.366219
30
0.0
11
220.000001
21
157.700000
31
0.0
0
LINE
8
VIEW_HIDDEN
10
220.000001
20
157.700000
30
0.0
11
220.000001
21
158.033782
31
0.0
0
LINE
8
VIEW_HIDDEN
10
220.000001
20
158.033782
30
0.0
11
220.000001
21
158.350826
31
0.0
0
LINE
8
VIEW_HIDDEN
10
220.000001
20
158.350826
30
0.0
11
220.000001
21
158.635235
31
0.0
0
LINE
8
VIEW_HIDDEN
10
220.000001
20
158.635235
30
0.0
11
220.000001
21
158.872748
31
0.0
0
LINE
8
VIEW_HIDDEN
10
220.000001
20
158.872748
30
0.0
11
220.000001
21
159.051454
31
0.0
0
LINE
8
VIEW_HIDDEN
10
220.000001
20
159.051454
30
0.0
11
220.000001
21
159.162392
31
0.0
0
LINE
8
VIEW_HIDDEN
10
220.000001
20
159.162392
30
0.0
11
220.000001
21
159.200000
31
0.0
0
LINE
8
VIEW_HIDDEN
10
220.000001
20
159.200000
30
0.0
11
220.000001
21
159.198956
31
0.0
0
LINE
8
VIEW_HIDDEN
10
220.000001
20
159.198956
30
0.0
11
220.000001
21
159.195827
31
0.0
0
LINE
8
VIEW_HIDDEN
10
220.000001
20
159.195827
30
0.0
11
220.000001
21
159.190615
31
0.0
0
LINE
8
VIEW_HIDDEN
10
220.000001
20
159.190615
30
0.0
11
220.000001
21
159.183328
31
0.0
0
LINE
8
VIEW_HIDDEN
10
220.000001
20
159.183328
30
0.0
11
220.000001
21
159.173978
31
0.0
0
LINE
8
VIEW_HIDDEN
10
220.000001
20
159.173978
30
0.0
11
220.000001
21
159.162576
31
0.0
0
LINE
8
VIEW_HIDDEN
10
220.000001
20
159.162576
30
0.0
11
220.000001
21
159.149138
31
0.0
0
LINE
8
VIEW_HIDDEN
10
220.000001
20
159.149138
30
0.0
11
220.000001
21
159.133684
31
0.0
0
LINE
8
VIEW_HIDDEN
10
220.000001
20
159.133684
30
0.0
11
220.000001
21
159.116234
31
0.0
0
LINE
8
VIEW_HIDDEN
10
220.000001
20
159.116234
30
0.0
11
220.000001
21
159.096813
31
0.0
0
LINE
8
VIEW_HIDDEN
10
220.000001
20
159.096813
30
0.0
11
220.000001
21
159.075448
31
0.0
0
LINE
8
VIEW_HIDDEN
10
220.000001
20
159.075448
30
0.0
11
220.000001
21
159.052169
31
0.0
0
LINE
8
VIEW_HIDDEN
10
220.000001
20
159.052169
30
0.0
11
220.000001
21
159.027008
31
0.0
0
LINE
8
VIEW_HIDDEN
10
220.000001
20
159.027008
30
0.0
11
220.000001
21
159.000000
31
0.0
0
LINE
8
VIEW_HIDDEN
10
220.000001
20
155.800000
30
0.0
11
220.000001
21
156.200000
31
0.0
0
LINE
8
VIEW_HIDDEN
10
214.000001
20
161.000000
30
0.0
11
220.000001
21
161.000000
31
0.0
0
LINE
8
VIEW_HIDDEN
10
214.000001
20
173.500000
30
0.0
11
220.000001
21
173.500000
31
0.0
0
LINE
8
VIEW_HIDDEN
10
214.000001
20
161.000000
30
0.0
11
220.000001
21
161.000000
31
0.0
0
LINE
8
VIEW_HIDDEN
10
214.000001
20
181.000000
30
0.0
11
220.000001
21
181.000000
31
0.0
0
LINE
8
VIEW_HIDDEN
10
214.000001
20
173.500000
30
0.0
11
220.000001
21
173.500000
31
0.0
0
LINE
8
VIEW_HIDDEN
10
214.000001
20
173.500000
30
0.0
11
220.000001
21
173.500000
31
0.0
0
LINE
8
VIEW_HIDDEN
10
214.000001
20
181.000000
30
0.0
11
220.000001
21
181.000000
31
0.0
0
LINE
8
VIEW_HIDDEN
10
214.000001
20
193.500000
30
0.0
11
220.000001
21
193.500000
31
0.0
0
LINE
8
VIEW_HIDDEN
10
214.000001
20
181.000000
30
0.0
11
220.000001
21
181.000000
31
0.0
0
LINE
8
VIEW_HIDDEN
10
214.000001
20
193.500000
30
0.0
11
220.000001
21
193.500000
31
0.0
0
LINE
8
VIEW_HIDDEN
10
214.000001
20
201.000000
30
0.0
11
220.000001
21
201.000000
31
0.0
0
LINE
8
VIEW_HIDDEN
10
214.000001
20
193.500000
30
0.0
11
220.000001
21
193.500000
31
0.0
0
LINE
8
VIEW_HIDDEN
10
214.000001
20
153.000000
30
0.0
11
220.000001
21
153.000000
31
0.0
0
LINE
8
VIEW_HIDDEN
10
214.000001
20
155.800000
30
0.0
11
220.000001
21
155.800000
31
0.0
0
LINE
8
VIEW_HIDDEN
10
214.000001
20
153.000000
30
0.0
11
220.000001
21
153.000000
31
0.0
0
LINE
8
VIEW_HIDDEN
10
214.000001
20
155.800000
30
0.0
11
220.000001
21
155.800000
31
0.0
0
LINE
8
VIEW_HIDDEN
10
214.000001
20
156.200000
30
0.0
11
220.000001
21
156.200000
31
0.0
0
LINE
8
VIEW_HIDDEN
10
214.000001
20
159.000000
30
0.0
11
220.000001
21
159.000000
31
0.0
0
LINE
8
VIEW_HIDDEN
10
214.000001
20
159.000000
30
0.0
11
220.000001
21
159.000000
31
0.0
0
LINE
8
VIEW_HIDDEN
10
214.000001
20
156.200000
30
0.0
11
220.000001
21
156.200000
31
0.0
0
LINE
8
VIEW_HIDDEN
10
214.000001
20
153.000000
30
0.0
11
220.000001
21
153.000000
31
0.0
0
LINE
8
VIEW_HIDDEN
10
214.000001
20
155.800000
30
0.0
11
220.000001
21
155.800000
31
0.0
0
LINE
8
VIEW_HIDDEN
10
214.000001
20
153.000000
30
0.0
11
220.000001
21
153.000000
31
0.0
0
LINE
8
VIEW_HIDDEN
10
214.000001
20
155.800000
30
0.0
11
220.000001
21
155.800000
31
0.0
0
LINE
8
VIEW_HIDDEN
10
214.000001
20
156.200000
30
0.0
11
220.000001
21
156.200000
31
0.0
0
LINE
8
VIEW_HIDDEN
10
214.000001
20
159.000000
30
0.0
11
220.000001
21
159.000000
31
0.0
0
LINE
8
VIEW_HIDDEN
10
214.000001
20
159.000000
30
0.0
11
220.000001
21
159.000000
31
0.0
0
LINE
8
VIEW_HIDDEN
10
214.000001
20
156.200000
30
0.0
11
220.000001
21
156.200000
31
0.0
0
LINE
8
VIEW_HIDDEN
10
220.000001
20
152.800000
30
0.0
11
214.000001
21
152.800000
31
0.0
0
LINE
8
VIEW_HIDDEN
10
220.000001
20
152.800000
30
0.0
11
214.000001
21
152.800000
31
0.0
0
LINE
8
VIEW_HIDDEN
10
220.000001
20
159.200000
30
0.0
11
214.000001
21
159.200000
31
0.0
0
LINE
8
VIEW_HIDDEN
10
220.000001
20
159.200000
30
0.0
11
214.000001
21
159.200000
31
0.0
0
LINE
8
VIEW_HIDDEN
10
220.000001
20
152.800000
30
0.0
11
214.000001
21
152.800000
31
0.0
0
LINE
8
VIEW_HIDDEN
10
220.000001
20
152.800000
30
0.0
11
214.000001
21
152.800000
31
0.0
0
LINE
8
VIEW_HIDDEN
10
220.000001
20
159.200000
30
0.0
11
214.000001
21
159.200000
31
0.0
0
LINE
8
VIEW_HIDDEN
10
220.000001
20
159.200000
30
0.0
11
214.000001
21
159.200000
31
0.0
0
LINE
8
VIEW_VISIBLE
10
193.241213
20
130.797959
30
0.0
11
190.412786
21
129.164966
31
0.0
0
LINE
8
VIEW_VISIBLE
10
190.412786
20
127.205374
30
0.0
11
190.412786
21
129.164966
31
0.0
0
LINE
8
VIEW_VISIBLE
10
191.544157
20
129.818163
30
0.0
11
191.544157
21
131.777755
31
0.0
0
LINE
8
VIEW_VISIBLE
10
191.544157
20
131.777755
30
0.0
11
193.241213
21
130.797959
31
0.0
0
LINE
8
VIEW_VISIBLE
10
190.412786
20
129.164966
30
0.0
11
229.445080
21
106.629660
31
0.0
0
LINE
8
VIEW_VISIBLE
10
229.445080
20
104.670068
30
0.0
11
229.445080
21
106.629660
31
0.0
0
LINE
8
VIEW_VISIBLE
10
190.412786
20
127.205374
30
0.0
11
229.445080
21
104.670068
31
0.0
0
LINE
8
VIEW_VISIBLE
10
229.445080
20
104.670068
30
0.0
11
232.273507
21
106.303061
31
0.0
0
LINE
8
VIEW_VISIBLE
10
232.273507
20
106.303061
30
0.0
11
233.970564
21
105.323265
31
0.0
0
LINE
8
VIEW_VISIBLE
10
233.970564
20
105.323265
30
0.0
11
237.506098
21
107.364507
31
0.0
0
LINE
8
VIEW_VISIBLE
10
237.506098
20
109.324099
30
0.0
11
237.930362
21
109.569048
31
0.0
0
LINE
8
VIEW_VISIBLE
10
237.930362
20
109.569048
30
0.0
11
239.627418
21
108.589252
31
0.0
0
LINE
8
VIEW_VISIBLE
10
239.627418
20
108.589252
30
0.0
11
243.162952
21
110.630493
31
0.0
0
LINE
8
VIEW_VISIBLE
10
243.162952
20
112.590085
30
0.0
11
243.587216
21
112.835034
31
0.0
0
LINE
8
VIEW_VISIBLE
10
206.040318
20
120.795603
30
0.0
11
206.463638
21
120.551199
31
0.0
0
LINE
8
VIEW_VISIBLE
10
200.666306
20
123.898290
30
0.0
11
200.810604
21
123.863688
31
0.0
0
LINE
8
VIEW_VISIBLE
10
200.810604
20
123.863688
30
0.0
11
200.934535
21
123.808748
31
0.0
0
LINE
8
VIEW_VISIBLE
10
200.934535
20
123.808748
30
0.0
11
201.029693
21
123.737197
31
0.0
0
LINE
8
VIEW_VISIBLE
10
201.029693
20
123.737197
30
0.0
11
201.064377
21
123.696673
31
0.0
0
LINE
8
VIEW_VISIBLE
10
201.064377
20
123.696673
30
0.0
11
201.089626
21
123.653886
31
0.0
0
LINE
8
VIEW_VISIBLE
10
221.596667
20
111.814141
30
0.0
11
222.019987
21
111.569737
31
0.0
0
LINE
8
VIEW_VISIBLE
10
216.222655
20
114.916828
30
0.0
11
216.366953
21
114.882225
31
0.0
0
LINE
8
VIEW_VISIBLE
10
216.366953
20
114.882225
30
0.0
11
216.490884
21
114.827286
31
0.0
0
LINE
8
VIEW_VISIBLE
10
216.490884
20
114.827286
30
0.0
11
216.586042
21
114.755734
31
0.0
0
LINE
8
VIEW_VISIBLE
10
216.586042
20
114.755734
30
0.0
11
216.620726
21
114.715210
31
0.0
0
LINE
8
VIEW_VISIBLE
10
216.620726
20
114.715210
30
0.0
11
216.645976
21
114.672424
31
0.0
0
LINE
8
VIEW_VISIBLE
10
195.079691
20
133.818996
30
0.0
11
191.544157
21
131.777755
31
0.0
0
LINE
8
VIEW_VISIBLE
10
229.445080
20
106.629660
30
0.0
11
232.273507
21
108.262653
31
0.0
0
LINE
8
VIEW_VISIBLE
10
196.776747
20
132.839200
30
0.0
11
195.079691
21
133.818996
31
0.0
0
LINE
8
VIEW_VISIBLE
10
232.273507
20
108.262653
30
0.0
11
233.970564
21
107.282857
31
0.0
0
LINE
8
VIEW_VISIBLE
10
198.898067
20
134.063945
30
0.0
11
196.776747
21
132.839200
31
0.0
0
LINE
8
VIEW_VISIBLE
10
233.970564
20
107.282857
30
0.0
11
237.506098
21
109.324099
31
0.0
0
LINE
8
VIEW_VISIBLE
10
197.201011
20
135.043741
30
0.0
11
198.898067
21
134.063945
31
0.0
0
LINE
8
VIEW_VISIBLE
10
237.506098
20
109.324099
30
0.0
11
235.809041
21
110.303894
31
0.0
0
LINE
8
VIEW_VISIBLE
10
200.736545
20
137.084982
30
0.0
11
197.201011
21
135.043741
31
0.0
0
LINE
8
VIEW_VISIBLE
10
235.809041
20
110.303894
30
0.0
11
237.930362
21
111.528639
31
0.0
0
LINE
8
VIEW_VISIBLE
10
202.433601
20
136.105186
30
0.0
11
200.736545
21
137.084982
31
0.0
0
LINE
8
VIEW_VISIBLE
10
237.930362
20
111.528639
30
0.0
11
239.627418
21
110.548843
31
0.0
0
LINE
8
VIEW_VISIBLE
10
204.554922
20
137.329931
30
0.0
11
202.433601
21
136.105186
31
0.0
0
LINE
8
VIEW_VISIBLE
10
239.627418
20
110.548843
30
0.0
11
243.162952
21
112.590085
31
0.0
0
LINE
8
VIEW_VISIBLE
10
243.587216
20
114.794626
30
0.0
11
204.554922
21
137.329931
31
0.0
0
LINE
8
VIEW_VISIBLE
10
243.162952
20
112.590085
30
0.0
11
241.465896
21
113.569881
31
0.0
0
LINE
8
VIEW_VISIBLE
10
241.465896
20
113.569881
30
0.0
11
243.587216
21
114.794626
31
0.0
0
LINE
8
VIEW_VISIBLE
10
199.392570
20
124.633682
30
0.0
11
199.300367
21
124.652801
31
0.0
0
LINE
8
VIEW_VISIBLE
10
199.300367
20
124.652801
30
0.0
11
199.214783
21
124.680329
31
0.0
0
LINE
8
VIEW_VISIBLE
10
199.214783
20
124.680329
30
0.0
11
199.138099
21
124.715531
31
0.0
0
LINE
8
VIEW_VISIBLE
10
199.138099
20
124.715531
30
0.0
11
199.072359
21
124.757468
31
0.0
0
LINE
8
VIEW_VISIBLE
10
199.072359
20
124.757468
30
0.0
11
199.019317
21
124.805024
31
0.0
0
LINE
8
VIEW_VISIBLE
10
199.019317
20
124.805024
30
0.0
11
198.980386
21
124.856928
31
0.0
0
LINE
8
VIEW_VISIBLE
10
198.980386
20
124.856928
30
0.0
11
198.956604
21
124.911799
31
0.0
0
LINE
8
VIEW_VISIBLE
10
198.956604
20
124.911799
30
0.0
11
198.948606
21
124.968173
31
0.0
0
LINE
8
VIEW_VISIBLE
10
198.948606
20
124.968173
30
0.0
11
198.955100
21
125.019002
31
0.0
0
LINE
8
VIEW_VISIBLE
10
198.955100
20
125.019002
30
0.0
11
198.974441
21
125.068731
31
0.0
0
LINE
8
VIEW_VISIBLE
10
198.974441
20
125.068731
30
0.0
11
199.006212
21
125.116283
31
0.0
0
LINE
8
VIEW_VISIBLE
10
199.006212
20
125.116283
30
0.0
11
199.049724
21
125.160628
31
0.0
0
LINE
8
VIEW_VISIBLE
10
199.049724
20
125.160628
30
0.0
11
199.104035
21
125.200808
31
0.0
0
LINE
8
VIEW_VISIBLE
10
199.104035
20
125.200808
30
0.0
11
199.167970
21
125.235952
31
0.0
0
LINE
8
VIEW_VISIBLE
10
199.167970
20
125.235952
30
0.0
11
199.240144
21
125.265299
31
0.0
0
LINE
8
VIEW_VISIBLE
10
199.240144
20
125.265299
30
0.0
11
199.318995
21
125.288214
31
0.0
0
LINE
8
VIEW_VISIBLE
10
199.318995
20
125.288214
30
0.0
11
199.489795
21
125.312915
31
0.0
0
LINE
8
VIEW_VISIBLE
10
199.489795
20
125.312915
30
0.0
11
199.665660
21
125.307927
31
0.0
0
LINE
8
VIEW_VISIBLE
10
199.665660
20
125.307927
30
0.0
11
199.831444
21
125.273680
31
0.0
0
LINE
8
VIEW_VISIBLE
10
199.831444
20
125.273680
30
0.0
11
199.906025
21
125.246412
31
0.0
0
LINE
8
VIEW_VISIBLE
10
199.906025
20
125.246412
30
0.0
11
199.972870
21
125.213122
31
0.0
0
LINE
8
VIEW_VISIBLE
10
206.040318
20
120.795603
30
0.0
11
199.392570
21
124.633682
31
0.0
0
LINE
8
VIEW_VISIBLE
10
207.043937
20
121.130639
30
0.0
11
207.118555
21
121.078145
31
0.0
0
LINE
8
VIEW_VISIBLE
10
207.118555
20
121.078145
30
0.0
11
207.174001
21
121.018256
31
0.0
0
LINE
8
VIEW_VISIBLE
10
207.174001
20
121.018256
30
0.0
11
207.208145
21
120.953271
31
0.0
0
LINE
8
VIEW_VISIBLE
10
207.208145
20
120.953271
30
0.0
11
207.219673
21
120.885690
31
0.0
0
LINE
8
VIEW_VISIBLE
10
207.219673
20
120.885690
30
0.0
11
207.209990
21
120.823704
31
0.0
0
LINE
8
VIEW_VISIBLE
10
207.209990
20
120.823704
30
0.0
11
207.181251
21
120.763719
31
0.0
0
LINE
8
VIEW_VISIBLE
10
207.181251
20
120.763719
30
0.0
11
207.134385
21
120.707671
31
0.0
0
LINE
8
VIEW_VISIBLE
10
207.134385
20
120.707671
30
0.0
11
207.070904
21
120.657370
31
0.0
0
LINE
8
VIEW_VISIBLE
10
207.070904
20
120.657370
30
0.0
11
206.992858
21
120.614438
31
0.0
0
LINE
8
VIEW_VISIBLE
10
206.992858
20
120.614438
30
0.0
11
206.902766
21
120.580262
31
0.0
0
LINE
8
VIEW_VISIBLE
10
206.902766
20
120.580262
30
0.0
11
206.803536
21
120.555946
31
0.0
0
LINE
8
VIEW_VISIBLE
10
206.803536
20
120.555946
30
0.0
11
206.698371
21
120.542273
31
0.0
0
LINE
8
VIEW_VISIBLE
10
206.698371
20
120.542273
30
0.0
11
206.590666
21
120.539685
31
0.0
0
LINE
8
VIEW_VISIBLE
10
206.590666
20
120.539685
30
0.0
11
206.483897
21
120.548266
31
0.0
0
LINE
8
VIEW_VISIBLE
10
206.483897
20
120.548266
30
0.0
11
206.381510
21
120.567739
31
0.0
0
LINE
8
VIEW_VISIBLE
10
206.381510
20
120.567739
30
0.0
11
206.286812
21
120.597475
31
0.0
0
LINE
8
VIEW_VISIBLE
10
206.286812
20
120.597475
30
0.0
11
206.202858
21
120.636515
31
0.0
0
LINE
8
VIEW_VISIBLE
10
206.202858
20
120.636515
30
0.0
11
206.132358
21
120.683598
31
0.0
0
LINE
8
VIEW_VISIBLE
10
206.132358
20
120.683598
30
0.0
11
206.077589
21
120.737204
31
0.0
0
LINE
8
VIEW_VISIBLE
10
206.077589
20
120.737204
30
0.0
11
206.040318
21
120.795603
31
0.0
0
LINE
8
VIEW_VISIBLE
10
207.157075
20
121.195959
30
0.0
11
207.043937
21
121.130639
31
0.0
0
LINE
8
VIEW_VISIBLE
10
207.737374
20
121.775399
30
0.0
11
207.829577
21
121.756280
31
0.0
0
LINE
8
VIEW_VISIBLE
10
207.829577
20
121.756280
30
0.0
11
207.915161
21
121.728752
31
0.0
0
LINE
8
VIEW_VISIBLE
10
207.915161
20
121.728752
30
0.0
11
207.991845
21
121.693550
31
0.0
0
LINE
8
VIEW_VISIBLE
10
207.991845
20
121.693550
30
0.0
11
208.057585
21
121.651613
31
0.0
0
LINE
8
VIEW_VISIBLE
10
208.057585
20
121.651613
30
0.0
11
208.110627
21
121.604057
31
0.0
0
LINE
8
VIEW_VISIBLE
10
208.110627
20
121.604057
30
0.0
11
208.149559
21
121.552152
31
0.0
0
LINE
8
VIEW_VISIBLE
10
208.149559
20
121.552152
30
0.0
11
208.173340
21
121.497282
31
0.0
0
LINE
8
VIEW_VISIBLE
10
208.173340
20
121.497282
30
0.0
11
208.181339
21
121.440908
31
0.0
0
LINE
8
VIEW_VISIBLE
10
208.181339
20
121.440908
30
0.0
11
208.174844
21
121.390079
31
0.0
0
LINE
8
VIEW_VISIBLE
10
208.174844
20
121.390079
30
0.0
11
208.155503
21
121.340350
31
0.0
0
LINE
8
VIEW_VISIBLE
10
208.155503
20
121.340350
30
0.0
11
208.123732
21
121.292798
31
0.0
0
LINE
8
VIEW_VISIBLE
10
208.123732
20
121.292798
30
0.0
11
208.080220
21
121.248453
31
0.0
0
LINE
8
VIEW_VISIBLE
10
208.080220
20
121.248453
30
0.0
11
208.025909
21
121.208273
31
0.0
0
LINE
8
VIEW_VISIBLE
10
208.025909
20
121.208273
30
0.0
11
207.961975
21
121.173129
31
0.0
0
LINE
8
VIEW_VISIBLE
10
207.961975
20
121.173129
30
0.0
11
207.889800
21
121.143782
31
0.0
0
LINE
8
VIEW_VISIBLE
10
207.889800
20
121.143782
30
0.0
11
207.810949
21
121.120867
31
0.0
0
LINE
8
VIEW_VISIBLE
10
207.810949
20
121.120867
30
0.0
11
207.640149
21
121.096166
31
0.0
0
LINE
8
VIEW_VISIBLE
10
207.640149
20
121.096166
30
0.0
11
207.464284
21
121.101154
31
0.0
0
LINE
8
VIEW_VISIBLE
10
207.464284
20
121.101154
30
0.0
11
207.298501
21
121.135401
31
0.0
0
LINE
8
VIEW_VISIBLE
10
207.298501
20
121.135401
30
0.0
11
207.223919
21
121.162669
31
0.0
0
LINE
8
VIEW_VISIBLE
10
207.223919
20
121.162669
30
0.0
11
207.157075
21
121.195959
31
0.0
0
LINE
8
VIEW_VISIBLE
10
201.089626
20
125.613478
30
0.0
11
207.737374
21
121.775399
31
0.0
0
LINE
8
VIEW_VISIBLE
10
200.086007
20
125.278442
30
0.0
11
200.011389
21
125.330936
31
0.0
0
LINE
8
VIEW_VISIBLE
10
200.011389
20
125.330936
30
0.0
11
199.955943
21
125.390825
31
0.0
0
LINE
8
VIEW_VISIBLE
10
199.955943
20
125.390825
30
0.0
11
199.921800
21
125.455809
31
0.0
0
LINE
8
VIEW_VISIBLE
10
199.921800
20
125.455809
30
0.0
11
199.910271
21
125.523391
31
0.0
0
LINE
8
VIEW_VISIBLE
10
199.910271
20
125.523391
30
0.0
11
199.919955
21
125.585377
31
0.0
0
LINE
8
VIEW_VISIBLE
10
199.919955
20
125.585377
30
0.0
11
199.948693
21
125.645362
31
0.0
0
LINE
8
VIEW_VISIBLE
10
199.948693
20
125.645362
30
0.0
11
199.995559
21
125.701410
31
0.0
0
LINE
8
VIEW_VISIBLE
10
199.995559
20
125.701410
30
0.0
11
200.059040
21
125.751711
31
0.0
0
LINE
8
VIEW_VISIBLE
10
200.059040
20
125.751711
30
0.0
11
200.137086
21
125.794643
31
0.0
0
LINE
8
VIEW_VISIBLE
10
200.137086
20
125.794643
30
0.0
11
200.227178
21
125.828819
31
0.0
0
LINE
8
VIEW_VISIBLE
10
200.227178
20
125.828819
30
0.0
11
200.326408
21
125.853135
31
0.0
0
LINE
8
VIEW_VISIBLE
10
200.326408
20
125.853135
30
0.0
11
200.431573
21
125.866808
31
0.0
0
LINE
8
VIEW_VISIBLE
10
200.431573
20
125.866808
30
0.0
11
200.539279
21
125.869396
31
0.0
0
LINE
8
VIEW_VISIBLE
10
200.539279
20
125.869396
30
0.0
11
200.646048
21
125.860815
31
0.0
0
LINE
8
VIEW_VISIBLE
10
200.646048
20
125.860815
30
0.0
11
200.748434
21
125.841342
31
0.0
0
LINE
8
VIEW_VISIBLE
10
200.748434
20
125.841342
30
0.0
11
200.843132
21
125.811605
31
0.0
0
LINE
8
VIEW_VISIBLE
10
200.843132
20
125.811605
30
0.0
11
200.927086
21
125.772566
31
0.0
0
LINE
8
VIEW_VISIBLE
10
200.927086
20
125.772566
30
0.0
11
200.997586
21
125.725483
31
0.0
0
LINE
8
VIEW_VISIBLE
10
200.997586
20
125.725483
30
0.0
11
201.052355
21
125.671877
31
0.0
0
LINE
8
VIEW_VISIBLE
10
201.052355
20
125.671877
30
0.0
11
201.089626
21
125.613478
31
0.0
0
LINE
8
VIEW_VISIBLE
10
199.972870
20
125.213122
30
0.0
11
200.086007
21
125.278442
31
0.0
0
LINE
8
VIEW_VISIBLE
10
214.948919
20
115.652220
30
0.0
11
214.856717
21
115.671339
31
0.0
0
LINE
8
VIEW_VISIBLE
10
214.856717
20
115.671339
30
0.0
11
214.771132
21
115.698867
31
0.0
0
LINE
8
VIEW_VISIBLE
10
214.771132
20
115.698867
30
0.0
11
214.694448
21
115.734068
31
0.0
0
LINE
8
VIEW_VISIBLE
10
214.694448
20
115.734068
30
0.0
11
214.628708
21
115.776006
31
0.0
0
LINE
8
VIEW_VISIBLE
10
214.628708
20
115.776006
30
0.0
11
214.575666
21
115.823561
31
0.0
0
LINE
8
VIEW_VISIBLE
10
214.575666
20
115.823561
30
0.0
11
214.536735
21
115.875466
31
0.0
0
LINE
8
VIEW_VISIBLE
10
214.536735
20
115.875466
30
0.0
11
214.512953
21
115.930337
31
0.0
0
LINE
8
VIEW_VISIBLE
10
214.512953
20
115.930337
30
0.0
11
214.504955
21
115.986711
31
0.0
0
LINE
8
VIEW_VISIBLE
10
214.504955
20
115.986711
30
0.0
11
214.511449
21
116.037540
31
0.0
0
LINE
8
VIEW_VISIBLE
10
214.511449
20
116.037540
30
0.0
11
214.530791
21
116.087268
31
0.0
0
LINE
8
VIEW_VISIBLE
10
214.530791
20
116.087268
30
0.0
11
214.562561
21
116.134820
31
0.0
0
LINE
8
VIEW_VISIBLE
10
214.562561
20
116.134820
30
0.0
11
214.606073
21
116.179166
31
0.0
0
LINE
8
VIEW_VISIBLE
10
214.606073
20
116.179166
30
0.0
11
214.660384
21
116.219346
31
0.0
0
LINE
8
VIEW_VISIBLE
10
214.660384
20
116.219346
30
0.0
11
214.724319
21
116.254489
31
0.0
0
LINE
8
VIEW_VISIBLE
10
214.724319
20
116.254489
30
0.0
11
214.796493
21
116.283837
31
0.0
0
LINE
8
VIEW_VISIBLE
10
214.796493
20
116.283837
30
0.0
11
214.875345
21
116.306752
31
0.0
0
LINE
8
VIEW_VISIBLE
10
214.875345
20
116.306752
30
0.0
11
215.046144
21
116.331453
31
0.0
0
LINE
8
VIEW_VISIBLE
10
215.046144
20
116.331453
30
0.0
11
215.222009
21
116.326465
31
0.0
0
LINE
8
VIEW_VISIBLE
10
215.222009
20
116.326465
30
0.0
11
215.387793
21
116.292217
31
0.0
0
LINE
8
VIEW_VISIBLE
10
215.387793
20
116.292217
30
0.0
11
215.462374
21
116.264950
31
0.0
0
LINE
8
VIEW_VISIBLE
10
215.462374
20
116.264950
30
0.0
11
215.529219
21
116.231660
31
0.0
0
LINE
8
VIEW_VISIBLE
10
221.596667
20
111.814141
30
0.0
11
214.948919
21
115.652220
31
0.0
0
LINE
8
VIEW_VISIBLE
10
222.600287
20
112.149177
30
0.0
11
222.674904
21
112.096683
31
0.0
0
LINE
8
VIEW_VISIBLE
10
222.674904
20
112.096683
30
0.0
11
222.730350
21
112.036793
31
0.0
0
LINE
8
VIEW_VISIBLE
10
222.730350
20
112.036793
30
0.0
11
222.764494
21
111.971809
31
0.0
0
LINE
8
VIEW_VISIBLE
10
222.764494
20
111.971809
30
0.0
11
222.776023
21
111.904228
31
0.0
0
LINE
8
VIEW_VISIBLE
10
222.776023
20
111.904228
30
0.0
11
222.766339
21
111.842242
31
0.0
0
LINE
8
VIEW_VISIBLE
10
222.766339
20
111.842242
30
0.0
11
222.737600
21
111.782257
31
0.0
0
LINE
8
VIEW_VISIBLE
10
222.737600
20
111.782257
30
0.0
11
222.690734
21
111.726209
31
0.0
0
LINE
8
VIEW_VISIBLE
10
222.690734
20
111.726209
30
0.0
11
222.627253
21
111.675907
31
0.0
0
LINE
8
VIEW_VISIBLE
10
222.627253
20
111.675907
30
0.0
11
222.549207
21
111.632976
31
0.0
0
LINE
8
VIEW_VISIBLE
10
222.549207
20
111.632976
30
0.0
11
222.459115
21
111.598800
31
0.0
0
LINE
8
VIEW_VISIBLE
10
222.459115
20
111.598800
30
0.0
11
222.359885
21
111.574483
31
0.0
0
LINE
8
VIEW_VISIBLE
10
222.359885
20
111.574483
30
0.0
11
222.254720
21
111.560810
31
0.0
0
LINE
8
VIEW_VISIBLE
10
222.254720
20
111.560810
30
0.0
11
222.147015
21
111.558223
31
0.0
0
LINE
8
VIEW_VISIBLE
10
222.147015
20
111.558223
30
0.0
11
222.040246
21
111.566804
31
0.0
0
LINE
8
VIEW_VISIBLE
10
222.040246
20
111.566804
30
0.0
11
221.937859
21
111.586277
31
0.0
0
LINE
8
VIEW_VISIBLE
10
221.937859
20
111.586277
30
0.0
11
221.843161
21
111.616013
31
0.0
0
LINE
8
VIEW_VISIBLE
10
221.843161
20
111.616013
30
0.0
11
221.759207
21
111.655053
31
0.0
0
LINE
8
VIEW_VISIBLE
10
221.759207
20
111.655053
30
0.0
11
221.688707
21
111.702135
31
0.0
0
LINE
8
VIEW_VISIBLE
10
221.688707
20
111.702135
30
0.0
11
221.633938
21
111.755742
31
0.0
0
LINE
8
VIEW_VISIBLE
10
221.633938
20
111.755742
30
0.0
11
221.596667
21
111.814141
31
0.0
0
LINE
8
VIEW_VISIBLE
10
222.713424
20
112.214496
30
0.0
11
222.600287
21
112.149177
31
0.0
0
LINE
8
VIEW_VISIBLE
10
223.293723
20
112.793937
30
0.0
11
223.385926
21
112.774817
31
0.0
0
LINE
8
VIEW_VISIBLE
10
223.385926
20
112.774817
30
0.0
11
223.471510
21
112.747290
31
0.0
0
LINE
8
VIEW_VISIBLE
10
223.471510
20
112.747290
30
0.0
11
223.548194
21
112.712088
31
0.0
0
LINE
8
VIEW_VISIBLE
10
223.548194
20
112.712088
30
0.0
11
223.613934
21
112.670150
31
0.0
0
LINE
8
VIEW_VISIBLE
10
223.613934
20
112.670150
30
0.0
11
223.666977
21
112.622595
31
0.0
0
LINE
8
VIEW_VISIBLE
10
223.666977
20
112.622595
30
0.0
11
223.705908
21
112.570690
31
0.0
0
LINE
8
VIEW_VISIBLE
10
223.705908
20
112.570690
30
0.0
11
223.729689
21
112.515819
31
0.0
0
LINE
8
VIEW_VISIBLE
10
223.729689
20
112.515819
30
0.0
11
223.737688
21
112.459445
31
0.0
0
LINE
8
VIEW_VISIBLE
10
223.737688
20
112.459445
30
0.0
11
223.731194
21
112.408617
31
0.0
0
LINE
8
VIEW_VISIBLE
10
223.731194
20
112.408617
30
0.0
11
223.711852
21
112.358888
31
0.0
0
LINE
8
VIEW_VISIBLE
10
223.711852
20
112.358888
30
0.0
11
223.680081
21
112.311336
31
0.0
0
LINE
8
VIEW_VISIBLE
10
223.680081
20
112.311336
30
0.0
11
223.636570
21
112.266990
31
0.0
0
LINE
8
VIEW_VISIBLE
10
223.636570
20
112.266990
30
0.0
11
223.582258
21
112.226811
31
0.0
0
LINE
8
VIEW_VISIBLE
10
223.582258
20
112.226811
30
0.0
11
223.518324
21
112.191667
31
0.0
0
LINE
8
VIEW_VISIBLE
10
223.518324
20
112.191667
30
0.0
11
223.446149
21
112.162320
31
0.0
0
LINE
8
VIEW_VISIBLE
10
223.446149
20
112.162320
30
0.0
11
223.367298
21
112.139404
31
0.0
0
LINE
8
VIEW_VISIBLE
10
223.367298
20
112.139404
30
0.0
11
223.196498
21
112.114703
31
0.0
0
LINE
8
VIEW_VISIBLE
10
223.196498
20
112.114703
30
0.0
11
223.020634
21
112.119691
31
0.0
0
LINE
8
VIEW_VISIBLE
10
223.020634
20
112.119691
30
0.0
11
222.854850
21
112.153939
31
0.0
0
LINE
8
VIEW_VISIBLE
10
222.854850
20
112.153939
30
0.0
11
222.780268
21
112.181206
31
0.0
0
LINE
8
VIEW_VISIBLE
10
222.780268
20
112.181206
30
0.0
11
222.713424
21
112.214496
31
0.0
0
LINE
8
VIEW_VISIBLE
10
216.645976
20
116.632015
30
0.0
11
223.293723
21
112.793937
31
0.0
0
LINE
8
VIEW_VISIBLE
10
215.642356
20
116.296979
30
0.0
11
215.567738
21
116.349473
31
0.0
0
LINE
8
VIEW_VISIBLE
10
215.567738
20
116.349473
30
0.0
11
215.512292
21
116.409363
31
0.0
0
LINE
8
VIEW_VISIBLE
10
215.512292
20
116.409363
30
0.0
11
215.478149
21
116.474347
31
0.0
0
LINE
8
VIEW_VISIBLE
10
215.478149
20
116.474347
30
0.0
11
215.466620
21
116.541928
31
0.0
0
LINE
8
VIEW_VISIBLE
10
215.466620
20
116.541928
30
0.0
11
215.476304
21
116.603914
31
0.0
0
LINE
8
VIEW_VISIBLE
10
215.476304
20
116.603914
30
0.0
11
215.505042
21
116.663899
31
0.0
0
LINE
8
VIEW_VISIBLE
10
215.505042
20
116.663899
30
0.0
11
215.551909
21
116.719947
31
0.0
0
LINE
8
VIEW_VISIBLE
10
215.551909
20
116.719947
30
0.0
11
215.615389
21
116.770249
31
0.0
0
LINE
8
VIEW_VISIBLE
10
215.615389
20
116.770249
30
0.0
11
215.693435
21
116.813180
31
0.0
0
LINE
8
VIEW_VISIBLE
10
215.693435
20
116.813180
30
0.0
11
215.783527
21
116.847356
31
0.0
0
LINE
8
VIEW_VISIBLE
10
215.783527
20
116.847356
30
0.0
11
215.882757
21
116.871673
31
0.0
0
LINE
8
VIEW_VISIBLE
10
215.882757
20
116.871673
30
0.0
11
215.987922
21
116.885346
31
0.0
0
LINE
8
VIEW_VISIBLE
10
215.987922
20
116.885346
30
0.0
11
216.095628
21
116.887933
31
0.0
0
LINE
8
VIEW_VISIBLE
10
216.095628
20
116.887933
30
0.0
11
216.202397
21
116.879352
31
0.0
0
LINE
8
VIEW_VISIBLE
10
216.202397
20
116.879352
30
0.0
11
216.304783
21
116.859879
31
0.0
0
LINE
8
VIEW_VISIBLE
10
216.304783
20
116.859879
30
0.0
11
216.399482
21
116.830143
31
0.0
0
LINE
8
VIEW_VISIBLE
10
216.399482
20
116.830143
30
0.0
11
216.483436
21
116.791104
31
0.0
0
LINE
8
VIEW_VISIBLE
10
216.483436
20
116.791104
30
0.0
11
216.553935
21
116.744021
31
0.0
0
LINE
8
VIEW_VISIBLE
10
216.553935
20
116.744021
30
0.0
11
216.608704
21
116.690415
31
0.0
0
LINE
8
VIEW_VISIBLE
10
216.608704
20
116.690415
30
0.0
11
216.645976
21
116.632015
31
0.0
0
LINE
8
VIEW_VISIBLE
10
215.529219
20
116.231660
30
0.0
11
215.642356
21
116.296979
31
0.0
0
LINE
8
VIEW_VISIBLE
10
232.273507
20
106.303061
30
0.0
11
232.273507
21
108.262653
31
0.0
0
LINE
8
VIEW_VISIBLE
10
233.970564
20
105.323265
30
0.0
11
233.970564
21
107.282857
31
0.0
0
LINE
8
VIEW_VISIBLE
10
237.506098
20
107.364507
30
0.0
11
237.506098
21
109.324099
31
0.0
0
LINE
8
VIEW_VISIBLE
10
197.201011
20
133.084149
30
0.0
11
197.201011
21
135.043741
31
0.0
0
LINE
8
VIEW_VISIBLE
10
237.930362
20
109.569048
30
0.0
11
237.930362
21
111.528639
31
0.0
0
LINE
8
VIEW_VISIBLE
10
239.627418
20
108.589252
30
0.0
11
239.627418
21
110.548843
31
0.0
0
LINE
8
VIEW_VISIBLE
10
243.162952
20
110.630493
30
0.0
11
243.162952
21
112.590085
31
0.0
0
LINE
8
VIEW_VISIBLE
10
243.587216
20
112.835034
30
0.0
11
243.587216
21
114.794626
31
0.0
0
LINE
8
VIEW_VISIBLE
10
199.972870
20
124.298646
30
0.0
11
199.972870
21
125.213122
31
0.0
0
LINE
8
VIEW_VISIBLE
10
207.043937
20
120.640741
30
0.0
11
207.043937
21
121.130639
31
0.0
0
LINE
8
VIEW_VISIBLE
10
207.737374
20
121.106417
30
0.0
11
207.737374
21
121.775399
31
0.0
0
LINE
8
VIEW_VISIBLE
10
201.089626
20
123.653886
30
0.0
11
201.089626
21
125.613478
31
0.0
0
LINE
8
VIEW_VISIBLE
10
200.086007
20
124.233326
30
0.0
11
200.086007
21
125.278442
31
0.0
0
LINE
8
VIEW_VISIBLE
10
215.529219
20
115.317183
30
0.0
11
215.529219
21
116.231660
31
0.0
0
LINE
8
VIEW_VISIBLE
10
222.600287
20
111.659279
30
0.0
11
222.600287
21
112.149177
31
0.0
0
LINE
8
VIEW_VISIBLE
10
223.293723
20
112.124954
30
0.0
11
223.293723
21
112.793937
31
0.0
0
LINE
8
VIEW_VISIBLE
10
216.645976
20
114.672424
30
0.0
11
216.645976
21
116.632015
31
0.0
0
LINE
8
VIEW_VISIBLE
10
215.642356
20
115.251864
30
0.0
11
215.642356
21
116.296979
31
0.0
0
LINE
8
VIEW_VISIBLE
10
88.993327
20
18.000001
30
0.0
11
87.734796
21
17.456266
31
0.0
0
LINE
8
VIEW_VISIBLE
10
87.734796
20
17.456266
30
0.0
11
86.385693
21
17.212410
31
0.0
0
LINE
8
VIEW_VISIBLE
10
86.385693
20
17.212410
30
0.0
11
85.016453
21
17.281164
31
0.0
0
LINE
8
VIEW_VISIBLE
10
85.016453
20
17.281164
30
0.0
11
83.698563
21
17.658937
31
0.0
0
LINE
8
VIEW_VISIBLE
10
83.698563
20
17.658937
30
0.0
11
82.500831
21
18.326007
31
0.0
0
LINE
8
VIEW_VISIBLE
10
82.500831
20
18.326007
30
0.0
11
81.485789
21
19.247547
31
0.0
0
LINE
8
VIEW_VISIBLE
10
81.485789
20
19.247547
30
0.0
11
80.706432
21
20.375443
31
0.0
0
LINE
8
VIEW_VISIBLE
10
80.706432
20
20.375443
30
0.0
11
80.203450
21
21.650807
31
0.0
0
LINE
8
VIEW_VISIBLE
10
80.203450
20
21.650807
30
0.0
11
80.003104
21
23.007055
31
0.0
0
LINE
8
VIEW_VISIBLE
10
80.003104
20
23.007055
30
0.0
11
80.115853
21
24.373376
31
0.0
0
LINE
8
VIEW_VISIBLE
10
80.115853
20
24.373376
30
0.0
11
80.535812
21
25.678435
31
0.0
0
LINE
8
VIEW_VISIBLE
10
80.535812
20
25.678435
30
0.0
11
81.241053
21
26.854097
31
0.0
0
LINE
8
VIEW_VISIBLE
10
81.241053
20
26.854097
30
0.0
11
82.194758
21
27.838980
31
0.0
0
LINE
8
VIEW_VISIBLE
10
82.194758
20
27.838980
30
0.0
11
83.347132
21
28.581663
31
0.0
0
LINE
8
VIEW_VISIBLE
10
83.347132
20
28.581663
30
0.0
11
84.638012
21
29.043372
31
0.0
0
LINE
8
VIEW_VISIBLE
10
84.638012
20
29.043372
30
0.0
11
86.000001
21
29.200001
31
0.0
0
LINE
8
VIEW_VISIBLE
10
108.895222
20
18.000001
30
0.0
11
88.993327
21
18.000001
31
0.0
0
LINE
8
VIEW_VISIBLE
10
88.993327
20
42.000001
30
0.0
11
120.699177
21
42.000001
31
0.0
0
LINE
8
VIEW_VISIBLE
10
86.000001
20
30.800001
30
0.0
11
84.638012
21
30.956629
31
0.0
0
LINE
8
VIEW_VISIBLE
10
84.638012
20
30.956629
30
0.0
11
83.347132
21
31.418338
31
0.0
0
LINE
8
VIEW_VISIBLE
10
83.347132
20
31.418338
30
0.0
11
82.194758
21
32.161022
31
0.0
0
LINE
8
VIEW_VISIBLE
10
82.194758
20
32.161022
30
0.0
11
81.241053
21
33.145904
31
0.0
0
LINE
8
VIEW_VISIBLE
10
81.241053
20
33.145904
30
0.0
11
80.535812
21
34.321566
31
0.0
0
LINE
8
VIEW_VISIBLE
10
80.535812
20
34.321566
30
0.0
11
80.115853
21
35.626625
31
0.0
0
LINE
8
VIEW_VISIBLE
10
80.115853
20
35.626625
30
0.0
11
80.003104
21
36.992947
31
0.0
0
LINE
8
VIEW_VISIBLE
10
80.003104
20
36.992947
30
0.0
11
80.203450
21
38.349194
31
0.0
0
LINE
8
VIEW_VISIBLE
10
80.203450
20
38.349194
30
0.0
11
80.706432
21
39.624559
31
0.0
0
LINE
8
VIEW_VISIBLE
10
80.706432
20
39.624559
30
0.0
11
81.485789
21
40.752454
31
0.0
0
LINE
8
VIEW_VISIBLE
10
81.485789
20
40.752454
30
0.0
11
82.500831
21
41.673994
31
0.0
0
LINE
8
VIEW_VISIBLE
10
82.500831
20
41.673994
30
0.0
11
83.698563
21
42.341064
31
0.0
0
LINE
8
VIEW_VISIBLE
10
83.698563
20
42.341064
30
0.0
11
85.016453
21
42.718838
31
0.0
0
LINE
8
VIEW_VISIBLE
10
85.016453
20
42.718838
30
0.0
11
86.385693
21
42.787591
31
0.0
0
LINE
8
VIEW_VISIBLE
10
86.385693
20
42.787591
30
0.0
11
87.734796
21
42.543735
31
0.0
0
LINE
8
VIEW_VISIBLE
10
87.734796
20
42.543735
30
0.0
11
88.993327
21
42.000001
31
0.0
0
LINE
8
VIEW_VISIBLE
10
86.000001
20
29.200001
30
0.0
11
86.000001
21
30.800001
31
0.0
0
LINE
8
VIEW_HIDDEN
10
88.993327
20
18.000001
30
0.0
11
87.734796
21
17.456266
31
0.0
0
LINE
8
VIEW_HIDDEN
10
87.734796
20
17.456266
30
0.0
11
86.385693
21
17.212410
31
0.0
0
LINE
8
VIEW_HIDDEN
10
86.385693
20
17.212410
30
0.0
11
85.016453
21
17.281164
31
0.0
0
LINE
8
VIEW_HIDDEN
10
85.016453
20
17.281164
30
0.0
11
83.698563
21
17.658937
31
0.0
0
LINE
8
VIEW_HIDDEN
10
83.698563
20
17.658937
30
0.0
11
82.500831
21
18.326007
31
0.0
0
LINE
8
VIEW_HIDDEN
10
82.500831
20
18.326007
30
0.0
11
81.485789
21
19.247547
31
0.0
0
LINE
8
VIEW_HIDDEN
10
81.485789
20
19.247547
30
0.0
11
80.706432
21
20.375443
31
0.0
0
LINE
8
VIEW_HIDDEN
10
80.706432
20
20.375443
30
0.0
11
80.203450
21
21.650807
31
0.0
0
LINE
8
VIEW_HIDDEN
10
80.203450
20
21.650807
30
0.0
11
80.003104
21
23.007055
31
0.0
0
LINE
8
VIEW_HIDDEN
10
80.003104
20
23.007055
30
0.0
11
80.115853
21
24.373376
31
0.0
0
LINE
8
VIEW_HIDDEN
10
80.115853
20
24.373376
30
0.0
11
80.535812
21
25.678435
31
0.0
0
LINE
8
VIEW_HIDDEN
10
80.535812
20
25.678435
30
0.0
11
81.241053
21
26.854097
31
0.0
0
LINE
8
VIEW_HIDDEN
10
81.241053
20
26.854097
30
0.0
11
82.194758
21
27.838980
31
0.0
0
LINE
8
VIEW_HIDDEN
10
82.194758
20
27.838980
30
0.0
11
83.347132
21
28.581663
31
0.0
0
LINE
8
VIEW_HIDDEN
10
83.347132
20
28.581663
30
0.0
11
84.638012
21
29.043372
31
0.0
0
LINE
8
VIEW_HIDDEN
10
84.638012
20
29.043372
30
0.0
11
86.000001
21
29.200001
31
0.0
0
LINE
8
VIEW_HIDDEN
10
108.895222
20
18.000001
30
0.0
11
88.993327
21
18.000001
31
0.0
0
LINE
8
VIEW_HIDDEN
10
88.993327
20
42.000001
30
0.0
11
120.699177
21
42.000001
31
0.0
0
LINE
8
VIEW_HIDDEN
10
86.000001
20
30.800001
30
0.0
11
84.638012
21
30.956629
31
0.0
0
LINE
8
VIEW_HIDDEN
10
84.638012
20
30.956629
30
0.0
11
83.347132
21
31.418338
31
0.0
0
LINE
8
VIEW_HIDDEN
10
83.347132
20
31.418338
30
0.0
11
82.194758
21
32.161022
31
0.0
0
LINE
8
VIEW_HIDDEN
10
82.194758
20
32.161022
30
0.0
11
81.241053
21
33.145904
31
0.0
0
LINE
8
VIEW_HIDDEN
10
81.241053
20
33.145904
30
0.0
11
80.535812
21
34.321566
31
0.0
0
LINE
8
VIEW_HIDDEN
10
80.535812
20
34.321566
30
0.0
11
80.115853
21
35.626625
31
0.0
0
LINE
8
VIEW_HIDDEN
10
80.115853
20
35.626625
30
0.0
11
80.003104
21
36.992947
31
0.0
0
LINE
8
VIEW_HIDDEN
10
80.003104
20
36.992947
30
0.0
11
80.203450
21
38.349194
31
0.0
0
LINE
8
VIEW_HIDDEN
10
80.203450
20
38.349194
30
0.0
11
80.706432
21
39.624559
31
0.0
0
LINE
8
VIEW_HIDDEN
10
80.706432
20
39.624559
30
0.0
11
81.485789
21
40.752454
31
0.0
0
LINE
8
VIEW_HIDDEN
10
81.485789
20
40.752454
30
0.0
11
82.500831
21
41.673994
31
0.0
0
LINE
8
VIEW_HIDDEN
10
82.500831
20
41.673994
30
0.0
11
83.698563
21
42.341064
31
0.0
0
LINE
8
VIEW_HIDDEN
10
83.698563
20
42.341064
30
0.0
11
85.016453
21
42.718838
31
0.0
0
LINE
8
VIEW_HIDDEN
10
85.016453
20
42.718838
30
0.0
11
86.385693
21
42.787591
31
0.0
0
LINE
8
VIEW_HIDDEN
10
86.385693
20
42.787591
30
0.0
11
87.734796
21
42.543735
31
0.0
0
LINE
8
VIEW_HIDDEN
10
87.734796
20
42.543735
30
0.0
11
88.993327
21
42.000001
31
0.0
0
LINE
8
VIEW_HIDDEN
10
86.000001
20
29.200001
30
0.0
11
86.000001
21
30.800001
31
0.0
0
LINE
8
BORDER
10
230.000000
20
10.000000
30
0.0
11
410.000000
21
10.000000
31
0.0
0
LINE
8
BORDER
10
230.000000
20
56.000000
30
0.0
11
410.000000
21
56.000000
31
0.0
0
LINE
8
BORDER
10
230.000000
20
10.000000
30
0.0
11
230.000000
21
56.000000
31
0.0
0
LINE
8
BORDER
10
410.000000
20
10.000000
30
0.0
11
410.000000
21
56.000000
31
0.0
0
LINE
8
BORDER
10
230.000000
20
40.000000
30
0.0
11
410.000000
21
40.000000
31
0.0
0
LINE
8
BORDER
10
230.000000
20
25.000000
30
0.0
11
410.000000
21
25.000000
31
0.0
0
LINE
8
BORDER
10
340.000000
20
40.000000
30
0.0
11
340.000000
21
56.000000
31
0.0
0
LINE
8
BORDER
10
275.000000
20
10.000000
30
0.0
11
275.000000
21
40.000000
31
0.0
0
LINE
8
BORDER
10
320.000000
20
10.000000
30
0.0
11
320.000000
21
40.000000
31
0.0
0
LINE
8
BORDER
10
365.000000
20
10.000000
30
0.0
11
365.000000
21
40.000000
31
0.0
0
TEXT
8
ANNOTATION
10
234.000000
20
46.000000
30
0.0
40
6.000000
1
SIDE PANEL
0
TEXT
8
ANNOTATION
10
344.000000
20
48.000000
30
0.0
40
3.500000
1
IITEG
0
TEXT
8
ANNOTATION
10
344.000000
20
42.500000
30
0.0
40
2.500000
1
DRAWN
0
TEXT
8
ANNOTATION
10
364.000000
20
42.500000
30
0.0
40
2.500000
1
aa
0
TEXT
8
ANNOTATION
10
232.000000
20
35.000000
30
0.0
40
2.500000
1
MATERIAL
0
TEXT
8
ANNOTATION
10
277.000000
20
35.000000
30
0.0
40
2.500000
1
MASS
0
TEXT
8
ANNOTATION
10
322.000000
20
35.000000
30
0.0
40
2.500000
1
SCALE
0
TEXT
8
ANNOTATION
10
322.000000
20
28.000000
30
0.0
40
3.500000
1
1:2
0
TEXT
8
ANNOTATION
10
367.000000
20
35.000000
30
0.0
40
2.500000
1
SHEET
0
TEXT
8
ANNOTATION
10
367.000000
20
28.000000
30
0.0
40
3.500000
1
1
0
TEXT
8
ANNOTATION
10
232.000000
20
20.000000
30
0.0
40
2.500000
1
PART NUMBER
0
TEXT
8
ANNOTATION
10
367.000000
20
20.000000
30
0.0
40
2.500000
1
REV
0
TEXT
8
ANNOTATION
10
367.000000
20
13.000000
30
0.0
40
5.000000
1
A
0
TEXT
8
ANNOTATION
10
322.000000
20
20.000000
30
0.0
40
2.500000
1
SIZE
0
TEXT
8
ANNOTATION
10
322.000000
20
13.000000
30
0.0
40
3.500000
1
A3
0
TEXT
8
ANNOTATION
10
277.000000
20
20.000000
30
0.0
40
2.500000
1
DATE
0
TEXT
8
ANNOTATION
10
277.000000
20
13.000000
30
0.0
40
3.500000
1
2026-09-22
0
TEXT
8
ANNOTATION
10
101.000000
20
145.000000
30
0.0
40
3.500000
1
Plan
72
1
11
101.000000
21
145.000000
31
0.0
0
TEXT
8
ANNOTATION
10
101.000000
20
112.000000
30
0.0
40
3.500000
1
Front
72
1
11
101.000000
21
112.000000
31
0.0
0
TEXT
8
ANNOTATION
10
217.000001
20
145.000000
30
0.0
40
3.500000
1
End
72
1
11
217.000001
21
145.000000
31
0.0
0
TEXT
8
ANNOTATION
10
217.000001
20
98.670068
30
0.0
40
3.500000
1
Iso
72
1
11
217.000001
21
98.670068
31
0.0
0
TEXT
8
ANNOTATION
10
66.000000
20
11.212410
30
0.0
40
3.500000
1
DETAIL B
72
1
11
66.000000
21
11.212410
31
0.0
0
TEXT
8
ANNOTATION
10
26.000000
20
135.000000
30
0.0
40
3.500000
1
300
0
TEXT
8
ANNOTATION
10
194.000000
20
151.000000
30
0.0
40
3.500000
1
100
0
TEXT
8
ANNOTATION
10
190.000000
20
118.000000
30
0.0
40
3.500000
1
12
0
ENDSEC
0
EOF
